<?xml version="1.0" encoding="utf-8"?>
<!-- Generator: Adobe Illustrator 16.0.0, SVG Export Plug-In . SVG Version: 6.00 Build 0)  -->
<!DOCTYPE svg PUBLIC "-//W3C//DTD SVG 1.1//EN" "http://www.w3.org/Graphics/SVG/1.1/DTD/svg11.dtd">
<svg version="1.1" id="Layer_1" xmlns="http://www.w3.org/2000/svg" xmlns:xlink="http://www.w3.org/1999/xlink" x="0px" y="0px"
	 width="246.5px" height="189px" viewBox="0 0 246.5 189" enable-background="new 0 0 246.5 189" xml:space="preserve">
<g>
	<path fill="#00ADEE" d="M214.713,94.344c0.156-0.271,1.445-3.234,1.618-4.223l0.037-0.008l-0.006-0.217
		c-0.001-0.039-1.408-3.371-2.138-4.236c0.487-0.859,1.123-3.764,1.253-4.41l0.027-0.008l-0.007-0.094
		c0.002-0.016,0.003-0.023,0.003-0.025c-0.001-0.027-0.006-0.051-0.011-0.074l-0.002-0.012c0-0.002-0.003-0.01-0.01-0.025
		c-0.007-0.014-0.013-0.025-0.021-0.039c-0.234-0.455-1.757-3.221-2.517-3.957c0.407-0.906,0.76-3.924,0.819-4.514l0.011-0.004
		l-0.006-0.051c0.003-0.025,0.004-0.045,0.004-0.045c-0.005-0.041-0.012-0.074-0.021-0.102c-0.044-0.283-2.137-3.111-2.927-3.783
		c0.335-1.057,0.383-4.58,0.377-4.619c-0.009-0.059-0.024-0.105-0.042-0.143c-0.15-0.357-2.455-2.918-3.277-3.479
		c0.225-1.09-0.06-4.529-0.068-4.566c-0.009-0.047-0.025-0.129-0.07-0.201c-0.233-0.459-2.775-2.643-3.596-3.127
		c0.134-1.08-0.479-4.396-0.489-4.436c-0.027-0.113-0.063-0.254-0.148-0.334c-0.415-0.502-3.042-2.355-3.855-2.736
		c0.023-1.053-0.827-4.061-0.838-4.096c-0.099-0.328-0.165-0.514-0.273-0.586c-0.493-0.504-3.304-2.037-4.096-2.334
		c-0.036-0.398-0.243-1.268-0.942-3.225c-0.379-1.057-0.517-1.293-0.637-1.346c-0.584-0.492-3.496-1.668-4.27-1.902
		c-0.05-0.219-0.183-0.596-0.465-1.279c-0.851-2.07-1.257-2.77-1.465-3.004v-0.002c-0.175-0.387-3.776-1.434-4.549-1.592
		c-0.037-0.111-0.102-0.256-0.194-0.455c-0.266-0.555-0.741-1.434-1.214-2.242c-0.752-1.281-0.934-1.449-1.059-1.471
		c-0.723-0.398-3.988-1.006-4.562-1.051c-0.019-0.041-0.041-0.086-0.067-0.133c-0.141-0.262-2.001-3.186-2.667-3.691
		c-0.015-0.014-0.036-0.027-0.06-0.041c-0.017-0.01-0.032-0.016-0.046-0.023c-0.734-0.332-4.104-0.613-4.517-0.613
		c-0.051,0-0.099,0-0.144,0.004c-0.003-0.004-0.004-0.006-0.005-0.01c-0.195-0.326-2.749-3.537-3.22-3.582
		c-0.399-0.137-1.485-0.207-3.238-0.207c-0.791,0-1.213,0.02-1.445,0.059c-0.366-0.463-2.78-2.918-3.435-3.23
		c-0.09-0.066-0.248-0.082-0.617-0.082c-0.036,0-3.153,0.059-4.166,0.387c-0.481-0.529-3.213-2.736-3.777-2.906
		c-0.069-0.031-0.15-0.035-0.224-0.035c-0.039,0-3.445,0.383-4.478,0.818c-0.563-0.504-3.57-2.494-4.063-2.533
		c-0.044-0.012-0.085-0.012-0.107-0.012c-0.039,0-3.483,0.717-4.48,1.262c-0.635-0.469-3.696-2.061-4.244-2.121l-0.103-0.006
		c-0.04,0-3.487,1.066-4.403,1.707c-0.812-0.566-3.593-1.463-4.262-1.664L121.315,3.6h-0.124c-0.009-0.002-0.014-0.004-0.014-0.004
		c-0.02,0-0.036,0.002-0.053,0.004h-0.022c-0.457,0-3.624,1.645-4.272,2.123c-0.9-0.492-3.8-1.125-4.379-1.242l-0.04-0.008
		c-0.038-0.008-0.058-0.012-0.062-0.012c-0.022,0-0.063,0-0.107,0.012c-0.494,0.039-3.514,2.037-4.067,2.537
		c-1.038-0.428-4.436-0.822-4.475-0.822c-0.071,0-0.149,0.004-0.217,0.031c-0.576,0.152-3.327,2.432-3.782,2.91
		c-1.012-0.328-4.13-0.387-4.165-0.387c-0.37,0-0.528,0.016-0.618,0.082c-0.653,0.313-3.067,2.768-3.434,3.23
		c-0.233-0.039-0.655-0.059-1.446-0.059c-1.754,0-2.839,0.07-3.238,0.207c-0.471,0.045-3.024,3.256-3.22,3.582
		c-0.001,0.004-0.003,0.006-0.005,0.01c-0.045-0.004-0.093-0.004-0.145-0.004c-0.412,0-3.782,0.281-4.517,0.613
		c-0.014,0.008-0.029,0.014-0.046,0.023c-0.023,0.016-0.045,0.027-0.06,0.041c-0.666,0.506-2.527,3.43-2.667,3.691
		c-0.025,0.047-0.048,0.092-0.067,0.133c-0.573,0.045-3.839,0.652-4.561,1.051c-0.124,0.021-0.306,0.189-1.059,1.471
		c-0.473,0.809-0.948,1.688-1.213,2.244c-0.095,0.197-0.158,0.342-0.195,0.453c-0.773,0.158-4.377,1.205-4.551,1.592v0.002
		c-0.207,0.234-0.614,0.932-1.463,2.998c-0.282,0.689-0.416,1.066-0.466,1.285c-0.773,0.234-3.687,1.41-4.27,1.902
		c-0.119,0.053-0.259,0.289-0.636,1.342c-0.7,1.959-0.908,2.83-0.943,3.229c-0.792,0.297-3.602,1.83-4.096,2.334
		c-0.107,0.076-0.174,0.258-0.273,0.586c-0.011,0.035-0.861,3.043-0.837,4.096c-0.813,0.381-3.443,2.236-3.856,2.736
		c-0.085,0.08-0.121,0.223-0.15,0.334c-0.009,0.039-0.621,3.354-0.488,4.436c-0.822,0.484-3.361,2.668-3.595,3.129
		c-0.046,0.07-0.063,0.154-0.071,0.199c-0.008,0.041-0.293,3.477-0.068,4.566c-0.822,0.561-3.125,3.119-3.277,3.479
		c-0.019,0.037-0.034,0.084-0.042,0.143c-0.006,0.039,0.042,3.563,0.378,4.619c-0.79,0.672-2.887,3.5-2.929,3.783
		c-0.011,0.027-0.018,0.061-0.021,0.102c0,0.002,0.003,0.039,0.009,0.102v0.02h0.002c0.066,0.637,0.41,3.547,0.808,4.469
		c-0.717,0.703-2.25,3.488-2.502,3.973c-0.009,0.014-0.018,0.031-0.026,0.051c-0.005,0.012-0.009,0.021-0.009,0.021v0.01
		c-0.006,0.021-0.01,0.049-0.012,0.076c0,0.004,0.004,0.021,0.011,0.057l-0.001,0.092l0.02,0.002
		c0.14,0.688,0.762,3.512,1.241,4.375c-0.625,0.744-1.795,3.424-2.073,4.096l-0.063,0.012v0.223c0,0.037,1.05,3.432,1.692,4.383
		c-0.013,0.02-0.026,0.041-0.039,0.063c-0.217,0.377-1.454,3.248-1.618,4.221l-0.037,0.006l0.007,0.217
		c0,0.039,1.409,3.371,2.139,4.236c-0.487,0.859-1.123,3.766-1.254,4.414l-0.026,0.006l0.007,0.096
		c-0.003,0.016-0.004,0.021-0.004,0.023c0.001,0.027,0.006,0.053,0.011,0.074l0.001,0.014c0,0,0.004,0.008,0.012,0.023
		c0.005,0.014,0.012,0.027,0.02,0.039c0.235,0.457,1.759,3.219,2.517,3.953c-0.407,0.906-0.76,3.924-0.82,4.516l-0.012,0.004
		l0.006,0.049c-0.002,0.031-0.003,0.047-0.003,0.049c0.004,0.039,0.011,0.074,0.021,0.1c0.042,0.281,2.139,3.111,2.929,3.783
		c-0.336,1.055-0.384,4.58-0.378,4.619c0.008,0.061,0.023,0.105,0.041,0.143c0.151,0.357,2.455,2.916,3.278,3.479
		c-0.227,1.088,0.061,4.529,0.068,4.568c0.01,0.045,0.027,0.131,0.072,0.199c0.236,0.461,2.771,2.645,3.594,3.129
		c-0.134,1.08,0.479,4.396,0.489,4.436c0.028,0.113,0.064,0.256,0.149,0.332c0.415,0.502,3.042,2.357,3.855,2.736
		c-0.024,1.053,0.829,4.066,0.839,4.1c0.1,0.326,0.165,0.51,0.272,0.584c0.496,0.504,3.317,2.045,4.102,2.336
		c0.044,0.527,0.36,1.609,0.944,3.24c0.371,1.037,0.51,1.273,0.629,1.326c0.583,0.494,3.499,1.668,4.271,1.902
		c0.055,0.24,0.208,0.672,0.552,1.492c0.829,1.98,1.2,2.611,1.392,2.816c0.305,0.404,3.777,1.414,4.535,1.57
		c0.037,0.109,0.101,0.256,0.195,0.453c0.264,0.555,0.74,1.436,1.213,2.24c0.752,1.283,0.935,1.451,1.059,1.475
		c0.722,0.396,3.986,1.004,4.561,1.051c0.02,0.041,0.042,0.086,0.067,0.135c0.14,0.26,1.999,3.178,2.666,3.686
		c0.016,0.016,0.037,0.031,0.063,0.043c0.016,0.01,0.029,0.016,0.043,0.021c0.73,0.334,4.104,0.613,4.517,0.613
		c0.052,0,0.1,0,0.145,0c0.002,0.002,0.004,0.006,0.005,0.008c0.196,0.328,2.755,3.545,3.221,3.584
		c0.399,0.137,1.476,0.203,3.213,0.203c0.804,0,1.233-0.021,1.47-0.061c0.359,0.459,2.772,2.914,3.432,3.232
		c0.082,0.063,0.231,0.086,0.624,0.086c0.037,0,3.15-0.059,4.162-0.387c0.453,0.477,3.206,2.756,3.782,2.908
		c0.067,0.027,0.146,0.031,0.218,0.031c0.039,0,3.441-0.381,4.477-0.816c0.575,0.523,3.613,2.484,4.063,2.527
		c0.045,0.014,0.086,0.014,0.108,0.014c0.039,0,3.482-0.715,4.479-1.258c0.637,0.469,3.697,2.061,4.245,2.121l0.007,0.006h0.096
		c0.04,0,3.439-1.053,4.386-1.697c0.244,0.16,0.781,0.416,1.969,0.883c0.312,0.125,1.765,0.691,2.314,0.797l0.087,0.014
		c0.042,0.004,0.074,0.002,0.105,0h0.022c0.457,0,3.625-1.645,4.274-2.123c0.9,0.49,3.799,1.123,4.378,1.238l0.039,0.006
		c0.036,0.01,0.058,0.014,0.062,0.014c0.022,0,0.063,0,0.108-0.014c0.449-0.043,3.487-2.004,4.063-2.527
		c1.035,0.436,4.438,0.816,4.477,0.816c0.074,0,0.155-0.004,0.224-0.035c0.563-0.166,3.297-2.375,3.778-2.904
		c1.013,0.328,4.125,0.387,4.162,0.387c0.393,0,0.542-0.023,0.624-0.086c0.657-0.318,3.071-2.773,3.433-3.232
		c0.235,0.039,0.665,0.061,1.47,0.061c1.735,0,2.813-0.066,3.212-0.203c0.467-0.037,3.025-3.258,3.221-3.584
		c0.001-0.002,0.002-0.008,0.005-0.008c0.045,0,0.093,0,0.144,0c0.414,0,3.807-0.283,4.524-0.615
		c0.005-0.004,0.01-0.006,0.016-0.008c0.042-0.021,0.071-0.041,0.09-0.061c0.672-0.531,2.524-3.432,2.662-3.684
		c0.023-0.047,0.046-0.09,0.064-0.131c0.574-0.047,3.84-0.654,4.562-1.051c0.126-0.023,0.307-0.191,1.062-1.48
		c0.477-0.813,0.952-1.693,1.215-2.244c0.091-0.193,0.153-0.336,0.19-0.443c0.765-0.156,4.296-1.186,4.541-1.584
		c0.196-0.215,0.578-0.869,1.405-2.85c0.33-0.791,0.478-1.209,0.53-1.445c0.771-0.234,3.688-1.41,4.271-1.902
		c0.12-0.055,0.26-0.295,0.645-1.371c0.236-0.662,0.865-2.422,0.93-3.195c0.784-0.293,3.608-1.834,4.101-2.338
		c0.109-0.074,0.177-0.262,0.276-0.592c0.169-0.564,0.411-1.574,0.604-2.514c0.179-0.883,0.246-1.338,0.253-1.586
		c0.837-0.4,3.426-2.232,3.834-2.727c0.086-0.078,0.122-0.223,0.15-0.338c0.01-0.037,0.629-3.354,0.489-4.432
		c0.825-0.488,3.358-2.668,3.594-3.127c0.045-0.072,0.062-0.156,0.07-0.201c0.009-0.037,0.293-3.477,0.068-4.566
		c0.823-0.563,3.131-3.127,3.277-3.48c0.018-0.035,0.033-0.084,0.042-0.141c0.006-0.039-0.044-3.563-0.378-4.619
		c0.79-0.67,2.888-3.504,2.928-3.783c0.01-0.029,0.017-0.063,0.021-0.102c0-0.004-0.002-0.041-0.009-0.102l0.001-0.02h-0.004
		c-0.065-0.633-0.409-3.543-0.806-4.469c0.716-0.699,2.249-3.482,2.501-3.971c0.01-0.014,0.02-0.031,0.026-0.049
		c0.006-0.014,0.009-0.021,0.009-0.023v-0.01c0.007-0.021,0.012-0.049,0.013-0.076c0-0.004-0.003-0.023-0.011-0.059l0.001-0.092
		h-0.02c-0.141-0.688-0.761-3.514-1.24-4.375c0.624-0.744,1.794-3.426,2.071-4.098l0.064-0.01v-0.223
		c0-0.041-1.051-3.43-1.692-4.379C214.688,94.387,214.7,94.363,214.713,94.344z M213.033,98.625v0.215l-0.062,0.01
		c-0.268,0.646-1.395,3.23-1.996,3.947c0.462,0.83,1.06,3.553,1.195,4.213l0.019,0.002l-0.001,0.088
		c0.007,0.033,0.011,0.053,0.011,0.057c-0.002,0.025-0.006,0.051-0.013,0.072v0.01c0,0.002-0.003,0.01-0.008,0.021
		c-0.007,0.018-0.017,0.035-0.026,0.049c-0.242,0.469-1.719,3.15-2.409,3.824c0.382,0.891,0.713,3.695,0.776,4.305h0.004
		l-0.001,0.018c0.007,0.061,0.008,0.096,0.008,0.1c-0.004,0.037-0.011,0.068-0.021,0.098c-0.038,0.268-2.059,2.998-2.819,3.643
		c0.321,1.02,0.369,4.414,0.363,4.451c-0.008,0.055-0.022,0.102-0.04,0.135c-0.141,0.34-2.363,2.811-3.157,3.354
		c0.217,1.051-0.057,4.361-0.065,4.398c-0.009,0.043-0.024,0.125-0.068,0.193c-0.226,0.443-2.666,2.541-3.462,3.014
		c0.135,1.037-0.462,4.232-0.471,4.268c-0.027,0.111-0.062,0.25-0.146,0.326c-0.393,0.477-2.886,2.24-3.692,2.625
		c-0.007,0.24-0.072,0.678-0.244,1.527c-0.185,0.906-0.419,1.879-0.581,2.424c-0.096,0.316-0.16,0.496-0.266,0.568
		c-0.475,0.486-3.195,1.971-3.951,2.252c-0.062,0.744-0.667,2.441-0.896,3.078c-0.37,1.037-0.505,1.268-0.62,1.32
		c-0.563,0.475-3.371,1.607-4.114,1.834c-0.051,0.227-0.193,0.629-0.512,1.391c-0.796,1.908-1.164,2.539-1.354,2.746
		c-0.235,0.385-3.638,1.375-4.374,1.525c-0.036,0.104-0.096,0.242-0.184,0.428c-0.253,0.529-0.711,1.379-1.17,2.162
		c-0.728,1.242-0.901,1.402-1.022,1.424c-0.695,0.383-3.842,0.969-4.394,1.014c-0.019,0.039-0.04,0.08-0.063,0.127
		c-0.132,0.242-1.917,3.035-2.563,3.547c-0.019,0.02-0.047,0.039-0.087,0.059c-0.005,0.002-0.011,0.004-0.015,0.008
		c-0.691,0.32-3.959,0.594-4.358,0.594c-0.049,0-0.096,0-0.139-0.002c-0.002,0.002-0.003,0.006-0.004,0.008
		c-0.188,0.314-2.653,3.416-3.103,3.453c-0.386,0.131-1.423,0.195-3.094,0.195c-0.776,0-1.189-0.021-1.417-0.059
		c-0.348,0.443-2.673,2.809-3.307,3.113c-0.078,0.061-0.223,0.084-0.601,0.084c-0.035,0-3.034-0.057-4.01-0.373
		c-0.463,0.51-3.096,2.637-3.639,2.799c-0.065,0.029-0.144,0.033-0.216,0.033c-0.037,0-3.315-0.367-4.313-0.787
		c-0.554,0.506-3.48,2.393-3.913,2.436C138.389,181,138.349,181,138.327,181c-0.003,0-0.023-0.004-0.06-0.014l-0.037-0.006
		c-0.558-0.111-3.35-0.721-4.217-1.193c-0.626,0.461-3.678,2.045-4.118,2.045h-0.021c-0.03,0.002-0.061,0.004-0.101,0l-0.084-0.012
		c-0.529-0.102-1.93-0.648-2.229-0.768c-1.144-0.451-1.662-0.697-1.897-0.852c-0.91,0.621-4.186,1.635-4.225,1.635h-0.092
		l-0.007-0.006c-0.527-0.059-3.476-1.592-4.089-2.043c-0.961,0.523-4.277,1.213-4.314,1.213c-0.021,0-0.062,0-0.105-0.014
		c-0.433-0.043-3.359-1.93-3.913-2.436c-0.997,0.42-4.274,0.787-4.313,0.787c-0.07,0-0.146-0.004-0.21-0.031
		c-0.556-0.146-3.207-2.342-3.644-2.801c-0.975,0.316-3.974,0.373-4.01,0.373c-0.377,0-0.521-0.023-0.601-0.084
		c-0.635-0.307-2.959-2.672-3.306-3.113c-0.228,0.037-0.642,0.059-1.416,0.059c-1.673,0-2.709-0.064-3.095-0.195
		c-0.448-0.039-2.913-3.137-3.102-3.453c-0.002-0.002-0.004-0.006-0.005-0.008c-0.044,0.002-0.09,0.002-0.14,0.002
		c-0.397,0-3.647-0.27-4.351-0.592c-0.014-0.006-0.026-0.012-0.041-0.02c-0.025-0.014-0.047-0.027-0.062-0.043
		c-0.643-0.49-2.434-3.301-2.568-3.551c-0.024-0.045-0.046-0.09-0.064-0.129c-0.554-0.045-3.698-0.631-4.394-1.014
		c-0.119-0.021-0.296-0.182-1.02-1.418c-0.455-0.775-0.915-1.625-1.169-2.16c-0.091-0.189-0.151-0.33-0.188-0.436
		c-0.73-0.15-4.075-1.123-4.369-1.514c-0.185-0.195-0.542-0.803-1.34-2.711c-0.332-0.791-0.479-1.207-0.531-1.438
		c-0.744-0.227-3.553-1.357-4.114-1.834c-0.115-0.051-0.248-0.277-0.605-1.275c-0.563-1.572-0.867-2.615-0.909-3.123
		c-0.756-0.281-3.474-1.766-3.951-2.25c-0.104-0.072-0.167-0.248-0.263-0.563c-0.01-0.031-0.832-2.934-0.808-3.949
		c-0.784-0.365-3.314-2.152-3.714-2.635c-0.083-0.074-0.117-0.211-0.145-0.32c-0.01-0.037-0.6-3.232-0.472-4.273
		c-0.792-0.467-3.233-2.568-3.461-3.014c-0.044-0.066-0.061-0.148-0.07-0.191c-0.007-0.037-0.283-3.352-0.065-4.4
		c-0.794-0.543-3.012-3.006-3.158-3.352c-0.018-0.035-0.031-0.08-0.04-0.137c-0.005-0.037,0.041-3.434,0.364-4.451
		c-0.761-0.645-2.78-3.371-2.82-3.643c-0.011-0.025-0.018-0.059-0.021-0.098c0,0,0.001-0.016,0.003-0.045l-0.006-0.047l0.012-0.004
		c0.058-0.57,0.398-3.477,0.79-4.35c-0.73-0.707-2.197-3.367-2.424-3.809c-0.008-0.012-0.015-0.023-0.02-0.037
		c-0.007-0.016-0.011-0.023-0.011-0.023l-0.001-0.012c-0.005-0.023-0.009-0.047-0.01-0.072c0-0.002,0.001-0.008,0.003-0.023
		l-0.006-0.092l0.025-0.006c0.126-0.625,0.738-3.424,1.207-4.252c-0.702-0.832-2.06-4.043-2.06-4.08l-0.007-0.209l0.035-0.006
		c0.159-0.938,1.351-3.703,1.56-4.066c0.013-0.02,0.025-0.041,0.037-0.061c-0.619-0.916-1.63-4.186-1.63-4.221v-0.215l0.061-0.012
		c0.269-0.646,1.396-3.229,1.997-3.945c-0.462-0.832-1.061-3.553-1.194-4.213l-0.02-0.002l0.001-0.09
		c-0.007-0.033-0.01-0.051-0.01-0.055c0.001-0.025,0.005-0.051,0.011-0.072v-0.01c0,0,0.004-0.01,0.009-0.021
		c0.009-0.018,0.017-0.035,0.025-0.047c0.242-0.469,1.719-3.15,2.409-3.828c-0.382-0.887-0.714-3.691-0.777-4.305h-0.002v-0.018
		c-0.006-0.063-0.009-0.098-0.009-0.1c0.004-0.039,0.011-0.07,0.021-0.098c0.04-0.271,2.06-2.996,2.82-3.643
		c-0.323-1.02-0.369-4.412-0.364-4.451c0.009-0.057,0.022-0.102,0.041-0.137c0.146-0.346,2.365-2.811,3.157-3.35
		c-0.217-1.051,0.059-4.361,0.065-4.4c0.009-0.043,0.024-0.125,0.068-0.191c0.226-0.443,2.671-2.549,3.463-3.016
		c-0.128-1.041,0.462-4.234,0.471-4.271c0.028-0.107,0.063-0.244,0.146-0.322c0.397-0.48,2.931-2.27,3.715-2.635
		c-0.024-1.016,0.795-3.912,0.806-3.945c0.096-0.316,0.16-0.492,0.264-0.564c0.476-0.486,3.183-1.963,3.944-2.25
		c0.034-0.383,0.234-1.221,0.909-3.109c0.363-1.014,0.497-1.24,0.612-1.293c0.562-0.473,3.367-1.605,4.113-1.832
		c0.047-0.211,0.176-0.574,0.448-1.238c0.817-1.99,1.21-2.662,1.409-2.887v-0.002c0.168-0.371,3.639-1.381,4.384-1.533
		c0.036-0.107,0.097-0.246,0.188-0.436c0.255-0.537,0.714-1.385,1.169-2.162c0.725-1.236,0.9-1.396,1.02-1.418
		c0.695-0.383,3.841-0.969,4.394-1.012c0.019-0.039,0.04-0.082,0.064-0.127c0.135-0.252,1.928-3.068,2.569-3.557
		c0.014-0.014,0.034-0.025,0.058-0.039c0.016-0.01,0.03-0.016,0.044-0.023c0.707-0.32,3.953-0.59,4.351-0.59
		c0.05,0,0.096,0,0.14,0.002c0.001-0.004,0.003-0.006,0.005-0.008c0.188-0.314,2.647-3.406,3.101-3.451
		c0.386-0.133,1.431-0.199,3.119-0.199c0.763,0,1.169,0.02,1.394,0.057c0.353-0.445,2.678-2.811,3.308-3.111
		c0.086-0.064,0.239-0.08,0.596-0.08c0.034,0,3.037,0.057,4.012,0.373c0.438-0.461,3.089-2.656,3.644-2.805
		c0.064-0.025,0.14-0.027,0.209-0.027c0.037,0,3.311,0.379,4.311,0.791c0.532-0.482,3.441-2.406,3.917-2.443
		c0.043-0.014,0.083-0.014,0.104-0.014c0.004,0,0.023,0.004,0.06,0.014l0.038,0.006c0.559,0.113,3.352,0.723,4.219,1.197
		c0.624-0.461,3.675-2.045,4.115-2.045h0.022c0.016-0.002,0.032-0.004,0.049-0.004c0.001,0,0.006,0.002,0.015,0.004h0.12
		l0.005,0.037c0.645,0.195,3.324,1.059,4.105,1.604c0.883-0.617,4.203-1.645,4.242-1.645l0.099,0.006
		c0.527,0.059,3.477,1.592,4.088,2.043c0.961-0.525,4.278-1.217,4.316-1.217c0.021,0,0.061,0,0.103,0.014
		c0.476,0.037,3.372,1.953,3.914,2.439c0.995-0.42,4.276-0.787,4.313-0.787c0.071,0,0.149,0.002,0.216,0.033
		c0.543,0.162,3.175,2.289,3.638,2.799c0.976-0.316,3.979-0.373,4.014-0.373c0.355,0,0.508,0.016,0.595,0.08
		c0.63,0.301,2.955,2.666,3.308,3.111c0.225-0.037,0.631-0.057,1.393-0.057c1.688,0,2.734,0.066,3.12,0.199
		c0.453,0.045,2.913,3.137,3.102,3.451c0.001,0.002,0.002,0.004,0.004,0.008c0.043-0.002,0.09-0.002,0.139-0.002
		c0.396,0,3.643,0.27,4.351,0.59c0.013,0.008,0.028,0.014,0.045,0.023c0.022,0.012,0.043,0.025,0.057,0.039
		c0.642,0.488,2.434,3.305,2.569,3.557c0.025,0.045,0.047,0.088,0.065,0.127c0.551,0.043,3.697,0.629,4.394,1.012
		c0.12,0.021,0.295,0.182,1.02,1.418c0.455,0.777,0.914,1.625,1.169,2.158c0.09,0.193,0.151,0.332,0.188,0.439
		c0.744,0.152,4.213,1.162,4.382,1.533v0.002c0.2,0.225,0.592,0.9,1.411,2.893c0.271,0.66,0.399,1.023,0.447,1.232
		c0.745,0.227,3.551,1.359,4.113,1.832c0.115,0.053,0.248,0.279,0.613,1.299c0.674,1.885,0.873,2.721,0.907,3.104
		c0.764,0.287,3.471,1.764,3.946,2.25c0.104,0.07,0.168,0.248,0.263,0.564c0.011,0.033,0.83,2.93,0.807,3.945
		c0.784,0.365,3.314,2.152,3.714,2.635c0.082,0.078,0.117,0.213,0.144,0.322c0.01,0.037,0.6,3.232,0.471,4.271
		c0.791,0.469,3.239,2.572,3.464,3.014c0.044,0.068,0.06,0.148,0.068,0.193c0.009,0.037,0.282,3.35,0.065,4.4
		c0.793,0.539,3.012,3.006,3.157,3.35c0.018,0.035,0.032,0.08,0.04,0.137c0.006,0.039-0.04,3.432-0.362,4.451
		c0.761,0.646,2.776,3.371,2.818,3.643c0.01,0.027,0.017,0.059,0.021,0.098c0,0.002,0,0.02-0.003,0.045l0.006,0.049l-0.011,0.002
		c-0.058,0.568-0.397,3.475-0.789,4.35c0.731,0.707,2.198,3.373,2.424,3.811c0.008,0.014,0.014,0.025,0.021,0.039
		c0.006,0.014,0.009,0.021,0.009,0.023l0.002,0.012c0.005,0.021,0.009,0.045,0.011,0.07c0,0.004-0.002,0.01-0.004,0.025l0.007,0.09
		l-0.026,0.008c-0.125,0.623-0.737,3.42-1.207,4.248c0.703,0.834,2.059,4.043,2.06,4.08l0.006,0.211l-0.036,0.006
		c-0.166,0.951-1.408,3.807-1.559,4.066c-0.012,0.021-0.023,0.043-0.037,0.063C212.021,95.322,213.033,98.586,213.033,98.625z"/>
	<g>
		<path fill="#00ADEE" d="M160.69,79.822c1.064-0.764,1.603-1.781,1.608-3.055c0.011-1.35-0.485-2.422-1.481-3.221
			c-0.999-0.795-2.307-1.199-3.925-1.211l-4.164-0.025l-0.055,8.617l3.988,0.025C158.281,80.963,159.623,80.588,160.69,79.822z"/>
		<path fill="#00ADEE" d="M104.889,151.773c-0.035-0.012-0.07-0.023-0.104-0.035c-0.067,0.004-0.114,0.047-0.143,0.129
			c-0.024,0.07-0.049,0.139-0.071,0.209c-0.041,0.189-0.063,0.295-0.07,0.316c-0.009,0.021-0.016,0.043-0.022,0.064
			c-0.031,0.09-0.066,0.158-0.108,0.197c-0.004,0.094-0.025,0.188-0.058,0.283c-0.06,0.172-0.117,0.342-0.177,0.514
			c-0.019,0.055-0.008,0.102,0.034,0.137c0.023,0.008,0.048,0.018,0.071,0.025c0.24,0.082,0.422-0.061,0.544-0.424
			c0.051-0.152,0.102-0.301,0.151-0.451c0.13-0.504,0.172-0.764,0.125-0.781C105.014,151.859,104.956,151.797,104.889,151.773z"/>
		<path fill="#00ADEE" d="M120.077,154.861c-0.007,0-0.011,0-0.019,0c-0.121-0.012-0.208,0.078-0.262,0.266
			c-0.032,0.35-0.064,0.697-0.097,1.045c-0.015,0.139-0.028,0.223-0.044,0.252c0.001,0.127-0.003,0.238-0.012,0.34
			c-0.108,1.158-0.217,2.318-0.323,3.479c-0.019,0.473,0.054,0.719,0.213,0.732c0.014,0.002,0.025,0.002,0.039,0.004
			c0.177-0.033,0.271-0.127,0.284-0.281c0.142-1.668,0.282-3.334,0.424-5c-0.011-0.166-0.015-0.258-0.014-0.273
			c0.007-0.084,0.014-0.17,0.021-0.254C120.269,154.975,120.198,154.873,120.077,154.861z"/>
		<path fill="#00ADEE" d="M97.42,148.543c-0.113-0.053-0.228-0.004-0.346,0.152c-0.155,0.314-0.312,0.629-0.467,0.943
			c-0.061,0.123-0.104,0.195-0.13,0.219c-0.044,0.117-0.088,0.221-0.133,0.313c-0.517,1.043-1.032,2.088-1.548,3.131
			c-0.188,0.438-0.205,0.691-0.06,0.764c0.013,0.006,0.024,0.012,0.037,0.018c0.181,0.035,0.306-0.018,0.372-0.158
			c0.729-1.506,1.458-3.01,2.186-4.516c0.05-0.158,0.078-0.246,0.085-0.262c0.037-0.076,0.074-0.152,0.11-0.229
			c0.051-0.189,0.02-0.311-0.092-0.365C97.431,148.549,97.424,148.547,97.42,148.543z"/>
		<path fill="#00ADEE" d="M163.189,146.166c-0.107-0.131-0.177-0.188-0.207-0.166c-0.007,0.002-0.012,0.008-0.019,0.01
			c0.012,0.027,0.023,0.055,0.032,0.082c0.023,0.033,0.044,0.066,0.067,0.098c0.341,0.674,0.571,1.105,0.692,1.289
			c-0.018,0.014,0.008,0.078,0.081,0.193c0.012,0.02,0.025,0.037,0.037,0.057c0.051,0.074,0.131,0.074,0.244,0
			c0.027-0.02,0.055-0.037,0.083-0.057c0.112-0.076,0.14-0.156,0.085-0.242C163.913,147.027,163.549,146.605,163.189,146.166z"/>
		<path fill="#00ADEE" d="M205.608,94.348c0.142-0.244,1.299-2.904,1.454-3.791l0.033-0.006l-0.005-0.195
			c-0.001-0.035-1.265-3.027-1.92-3.805c0.438-0.771,1.009-3.379,1.125-3.959l0.024-0.008l-0.006-0.084
			c0.001-0.014,0.003-0.02,0.003-0.023c-0.002-0.023-0.005-0.045-0.01-0.066l-0.002-0.01c0-0.002-0.003-0.01-0.008-0.023
			c-0.008-0.012-0.012-0.023-0.02-0.035c-0.21-0.408-1.577-2.893-2.259-3.553c0.365-0.814,0.682-3.521,0.734-4.053l0.01-0.002
			l-0.004-0.047c0.002-0.021,0.002-0.039,0.002-0.041c-0.004-0.035-0.01-0.064-0.019-0.09c-0.039-0.254-1.919-2.793-2.628-3.396
			c0.301-0.951,0.344-4.111,0.338-4.148c-0.007-0.053-0.021-0.094-0.037-0.127c-0.136-0.322-2.204-2.621-2.942-3.123
			c0.201-0.979-0.054-4.066-0.062-4.102c-0.008-0.041-0.022-0.115-0.063-0.18c-0.21-0.412-2.491-2.373-3.229-2.809
			c0.12-0.969-0.43-3.947-0.438-3.982c-0.025-0.102-0.058-0.229-0.135-0.299c-0.372-0.451-2.73-2.117-3.461-2.457
			c0.021-0.945-0.742-3.648-0.752-3.678c-0.089-0.295-0.148-0.461-0.245-0.525c-0.443-0.453-2.967-1.83-3.678-2.096
			c-0.032-0.359-0.219-1.139-0.846-2.895c-0.341-0.949-0.465-1.162-0.572-1.211c-0.524-0.441-3.139-1.496-3.833-1.707
			c-0.046-0.197-0.164-0.535-0.418-1.148c-0.764-1.859-1.129-2.488-1.315-2.695v-0.004c-0.156-0.346-3.391-1.285-4.084-1.43
			c-0.033-0.1-0.091-0.229-0.175-0.408c-0.237-0.498-0.666-1.287-1.09-2.014c-0.675-1.15-0.838-1.301-0.95-1.318
			c-0.649-0.359-3.581-0.904-4.096-0.945c-0.017-0.035-0.037-0.076-0.06-0.119c-0.127-0.234-1.797-2.859-2.395-3.314
			c-0.014-0.012-0.033-0.025-0.054-0.035c-0.016-0.008-0.029-0.016-0.042-0.021c-0.659-0.299-3.686-0.551-4.056-0.551
			c-0.045,0-0.088,0-0.129,0.002c-0.002-0.004-0.003-0.004-0.004-0.008c-0.175-0.293-2.468-3.176-2.891-3.217
			c-0.359-0.123-1.334-0.186-2.908-0.186c-0.71,0-1.089,0.018-1.298,0.053c-0.328-0.414-2.496-2.619-3.083-2.9
			c-0.081-0.059-0.223-0.072-0.555-0.072c-0.032,0-2.831,0.051-3.74,0.346c-0.432-0.475-2.885-2.457-3.392-2.609
			c-0.062-0.029-0.135-0.031-0.2-0.031c-0.035,0-3.094,0.344-4.021,0.736c-0.506-0.455-3.206-2.242-3.648-2.275
			c-0.04-0.012-0.077-0.012-0.097-0.012c-0.035,0-3.127,0.645-4.022,1.133c-0.57-0.42-3.319-1.85-3.811-1.904l-0.093-0.004
			c-0.036,0-3.131,0.957-3.954,1.533c-0.728-0.51-3.226-1.314-3.825-1.496l-0.006-0.035h-0.111
			c-0.008-0.002-0.013-0.002-0.014-0.002c-0.016,0-0.03,0-0.046,0.002h-0.021c-0.41,0-3.254,1.477-3.836,1.906
			c-0.809-0.441-3.411-1.01-3.933-1.115l-0.035-0.006c-0.034-0.01-0.052-0.012-0.056-0.012c-0.02,0-0.056,0-0.096,0.012
			c-0.443,0.033-3.155,1.828-3.652,2.277c-0.932-0.383-3.982-0.738-4.017-0.738c-0.064,0-0.135,0.002-0.195,0.027
			c-0.518,0.137-2.987,2.184-3.396,2.613c-0.909-0.295-3.708-0.346-3.74-0.346c-0.332,0-0.475,0.014-0.555,0.072
			c-0.587,0.281-2.754,2.486-3.083,2.9c-0.209-0.035-0.589-0.053-1.299-0.053c-1.574,0-2.548,0.063-2.908,0.186
			c-0.421,0.041-2.714,2.924-2.89,3.217c-0.002,0.004-0.003,0.004-0.005,0.008c-0.04-0.002-0.084-0.002-0.13-0.002
			c-0.369,0-3.396,0.252-4.055,0.551c-0.013,0.006-0.027,0.014-0.042,0.021c-0.021,0.012-0.04,0.023-0.053,0.035
			c-0.599,0.455-2.27,3.08-2.396,3.314c-0.022,0.043-0.043,0.084-0.06,0.119c-0.515,0.041-3.446,0.586-4.095,0.945
			c-0.112,0.018-0.275,0.168-0.95,1.318c-0.425,0.727-0.853,1.516-1.09,2.018c-0.085,0.176-0.142,0.305-0.175,0.404
			c-0.695,0.145-3.931,1.084-4.086,1.43v0.004c-0.186,0.207-0.552,0.834-1.313,2.689c-0.255,0.619-0.374,0.957-0.418,1.154
			c-0.695,0.211-3.312,1.266-3.834,1.707c-0.107,0.049-0.232,0.262-0.571,1.205c-0.629,1.76-0.815,2.541-0.847,2.9
			c-0.711,0.266-3.233,1.643-3.677,2.096c-0.098,0.068-0.157,0.23-0.246,0.525c-0.011,0.031-0.773,2.732-0.751,3.678
			c-0.73,0.34-3.092,2.008-3.463,2.457c-0.077,0.07-0.109,0.199-0.135,0.299c-0.009,0.035-0.559,3.012-0.439,3.982
			c-0.738,0.434-3.018,2.396-3.228,2.811c-0.041,0.063-0.056,0.137-0.063,0.178c-0.007,0.037-0.264,3.123-0.062,4.102
			c-0.738,0.502-2.806,2.799-2.942,3.123c-0.018,0.033-0.03,0.074-0.038,0.127c-0.005,0.037,0.038,3.197,0.34,4.148
			c-0.71,0.604-2.592,3.143-2.63,3.396c-0.01,0.025-0.016,0.055-0.02,0.09c0,0.002,0.003,0.035,0.009,0.092l-0.001,0.018h0.002
			c0.06,0.572,0.369,3.186,0.726,4.012c-0.645,0.633-2.021,3.133-2.246,3.568c-0.009,0.012-0.016,0.027-0.024,0.045
			c-0.004,0.01-0.008,0.02-0.008,0.02v0.008c-0.006,0.021-0.009,0.045-0.01,0.068c0,0.004,0.003,0.02,0.01,0.051l-0.002,0.084h0.019
			c0.124,0.617,0.683,3.154,1.113,3.93c-0.561,0.668-1.611,3.074-1.861,3.678l-0.057,0.008v0.201c0,0.035,0.942,3.082,1.52,3.936
			c-0.012,0.018-0.023,0.039-0.034,0.057c-0.196,0.338-1.307,2.916-1.454,3.789l-0.033,0.006l0.006,0.193
			c0,0.035,1.266,3.029,1.921,3.807c-0.438,0.77-1.009,3.379-1.126,3.959l-0.023,0.008l0.006,0.086
			c-0.002,0.014-0.003,0.018-0.003,0.02c0.001,0.025,0.004,0.047,0.01,0.068v0.012c0,0,0.004,0.008,0.011,0.021
			c0.005,0.012,0.01,0.025,0.018,0.035c0.212,0.41,1.579,2.891,2.259,3.551c-0.365,0.813-0.683,3.521-0.735,4.053l-0.011,0.004
			l0.005,0.043c-0.002,0.027-0.003,0.043-0.003,0.043c0.004,0.037,0.01,0.066,0.02,0.092c0.038,0.252,1.92,2.793,2.63,3.395
			c-0.302,0.949-0.345,4.113-0.34,4.15c0.008,0.051,0.021,0.094,0.037,0.127c0.137,0.32,2.204,2.617,2.943,3.121
			c-0.203,0.979,0.055,4.068,0.062,4.102c0.008,0.041,0.024,0.119,0.064,0.182c0.213,0.412,2.488,2.373,3.227,2.809
			c-0.119,0.969,0.431,3.947,0.439,3.982c0.025,0.102,0.058,0.229,0.135,0.299c0.372,0.449,2.731,2.115,3.462,2.457
			c-0.022,0.943,0.744,3.65,0.753,3.68c0.089,0.293,0.147,0.457,0.245,0.523c0.445,0.451,2.978,1.836,3.683,2.098
			c0.039,0.475,0.323,1.445,0.848,2.91c0.333,0.932,0.457,1.143,0.564,1.189c0.522,0.443,3.142,1.498,3.835,1.709
			c0.048,0.215,0.186,0.604,0.494,1.34c0.744,1.779,1.078,2.346,1.25,2.527c0.272,0.365,3.392,1.271,4.072,1.412
			c0.033,0.1,0.09,0.229,0.175,0.404c0.236,0.5,0.665,1.291,1.09,2.014c0.674,1.152,0.838,1.303,0.95,1.322
			c0.647,0.357,3.579,0.904,4.095,0.945c0.017,0.037,0.037,0.078,0.06,0.119c0.126,0.234,1.796,2.854,2.395,3.311
			c0.014,0.014,0.033,0.027,0.057,0.039c0.014,0.008,0.026,0.014,0.038,0.02c0.656,0.299,3.687,0.551,4.056,0.551
			c0.046,0,0.09,0,0.13,0c0.002,0,0.003,0.004,0.005,0.006c0.177,0.295,2.473,3.184,2.891,3.219c0.36,0.121,1.326,0.182,2.886,0.182
			c0.721,0,1.107-0.02,1.319-0.053c0.322,0.41,2.489,2.615,3.081,2.9c0.073,0.057,0.208,0.078,0.56,0.078
			c0.034,0,2.829-0.053,3.738-0.348c0.406,0.428,2.878,2.475,3.396,2.611c0.061,0.025,0.131,0.029,0.195,0.029
			c0.036,0,3.091-0.342,4.02-0.734c0.517,0.471,3.244,2.23,3.648,2.27c0.041,0.012,0.077,0.012,0.098,0.012
			c0.034,0,3.126-0.641,4.021-1.129c0.571,0.42,3.319,1.85,3.812,1.904l0.006,0.006h0.086c0.036,0,3.089-0.945,3.938-1.525
			c0.219,0.145,0.701,0.373,1.768,0.795c0.279,0.111,1.585,0.619,2.078,0.715l0.078,0.012c0.038,0.004,0.066,0.002,0.095,0h0.02
			c0.41,0,3.255-1.477,3.838-1.906c0.809,0.439,3.411,1.008,3.931,1.111l0.035,0.006c0.033,0.008,0.053,0.012,0.056,0.012
			c0.02,0,0.057,0,0.098-0.012c0.402-0.039,3.13-1.799,3.647-2.27c0.929,0.393,3.984,0.734,4.02,0.734
			c0.066,0,0.14-0.004,0.201-0.031c0.506-0.152,2.96-2.135,3.392-2.609c0.909,0.295,3.704,0.348,3.737,0.348
			c0.352,0,0.486-0.021,0.56-0.078c0.591-0.285,2.758-2.49,3.082-2.9c0.212,0.033,0.598,0.053,1.32,0.053
			c1.558,0,2.524-0.061,2.884-0.182c0.419-0.035,2.717-2.926,2.892-3.219c0.001-0.002,0.002-0.006,0.004-0.006
			c0.041,0,0.084,0,0.129,0c0.373,0,3.418-0.256,4.063-0.553c0.005-0.004,0.01-0.006,0.015-0.01
			c0.037-0.016,0.063-0.033,0.081-0.053c0.603-0.477,2.267-3.08,2.389-3.307c0.021-0.043,0.042-0.08,0.059-0.117
			c0.516-0.041,3.447-0.588,4.096-0.945c0.113-0.02,0.275-0.17,0.953-1.328c0.428-0.73,0.855-1.521,1.091-2.016
			c0.081-0.172,0.138-0.301,0.171-0.396c0.687-0.143,3.857-1.066,4.077-1.422c0.177-0.193,0.52-0.781,1.262-2.561
			c0.297-0.709,0.43-1.086,0.477-1.297c0.692-0.211,3.311-1.268,3.835-1.709c0.107-0.049,0.233-0.264,0.578-1.23
			c0.213-0.594,0.777-2.176,0.835-2.869c0.704-0.262,3.24-1.646,3.683-2.098c0.098-0.068,0.158-0.234,0.248-0.531
			c0.15-0.508,0.369-1.412,0.542-2.258c0.159-0.793,0.221-1.201,0.227-1.426c0.752-0.357,3.076-2.002,3.441-2.445
			c0.078-0.072,0.11-0.199,0.136-0.305c0.009-0.033,0.564-3.01,0.439-3.979c0.741-0.439,3.016-2.396,3.227-2.807
			c0.041-0.066,0.056-0.141,0.063-0.184c0.008-0.033,0.263-3.119,0.062-4.1c0.739-0.504,2.812-2.807,2.942-3.123
			c0.017-0.031,0.03-0.076,0.037-0.127c0.006-0.035-0.039-3.197-0.339-4.148c0.709-0.602,2.593-3.145,2.629-3.395
			c0.009-0.027,0.015-0.057,0.019-0.092c0-0.002-0.001-0.037-0.008-0.092l0.001-0.018h-0.003c-0.06-0.568-0.367-3.182-0.724-4.012
			c0.643-0.629,2.02-3.129,2.245-3.564c0.01-0.014,0.018-0.029,0.024-0.045c0.005-0.012,0.008-0.02,0.008-0.021v-0.008
			c0.007-0.021,0.01-0.045,0.012-0.07c0-0.002-0.003-0.02-0.01-0.049v-0.084h-0.018c-0.125-0.617-0.683-3.156-1.113-3.93
			c0.561-0.668,1.611-3.076,1.86-3.678l0.058-0.01v-0.199c0-0.037-0.943-3.08-1.52-3.932
			C205.587,94.387,205.599,94.365,205.608,94.348z M63.939,97.748l1.059,4.885l-4.322-2.516l-4.318,2.516l1.057-4.885l-3.729-3.332
			l4.975-0.506l2.016-4.574l2.019,4.574l4.972,0.506L63.939,97.748z M138.321,47.902c-0.001-0.463,0.173-0.867,0.521-1.215
			c0.348-0.348,0.752-0.52,1.215-0.52l22.363,0.012c2.006,0.002,3.825,0.262,5.464,0.785c1.641,0.521,3.115,1.283,4.423,2.285
			c1.35,1.082,2.381,2.287,3.093,3.617c0.715,1.328,1.07,2.865,1.068,4.598c0,2.121-0.463,3.99-1.391,5.609
			c-0.926,1.619-2.373,2.93-4.34,3.932c2.006,0.809,3.528,1.813,4.566,3.01c1.929,2.236,2.891,5.111,2.889,8.619
			c-0.003,3.895-1.49,7.053-4.459,9.482c-2.816,2.271-6.479,3.406-10.99,3.404l-22.711-0.014c-0.462,0.002-0.867-0.174-1.215-0.521
			c-0.346-0.346-0.521-0.752-0.52-1.213L138.321,47.902z M122.018,26.213l2.017-4.576l2.018,4.576l4.974,0.504l-3.729,3.332
			l1.061,4.887l-4.323-2.516l-4.32,2.516l1.058-4.887l-3.729-3.332L122.018,26.213z M98.9,52.883
			c0.001-0.193,0.059-0.432,0.175-0.723c0.115-0.289,0.231-0.473,0.347-0.551c0.539-0.539,1.369-1.104,2.486-1.703
			c1.119-0.598,3.315-1.691,5.049-2.426c3.51-1.424,7.096-2.135,10.76-2.133c4.934,0.002,8.887,1.102,11.854,3.303
			c3.238,2.314,4.857,5.535,4.854,9.66c-0.002,3.779-1.412,7.344-4.228,10.697c-1.351,1.619-2.558,3.014-3.618,4.191
			c-1.062,1.176-1.975,2.148-2.745,2.918l-0.002-0.059c-0.463,0.502-0.916,0.955-1.36,1.359c-0.443,0.404-0.879,0.818-1.301,1.242
			h10.855c0.463,0,0.867,0.176,1.215,0.521c0.345,0.348,0.521,0.773,0.518,1.273l-0.004,9.311c-0.001,0.463-0.174,0.865-0.52,1.215
			c-0.35,0.346-0.754,0.518-1.214,0.52l-31.082-0.004c-0.463,0-0.868-0.174-1.215-0.521s-0.521-0.754-0.52-1.215l0.003-5.436
			c-0.001-0.154,0.064-0.377,0.203-0.664c0.134-0.291,0.262-0.494,0.375-0.609l15.145-14.977h-0.061
			c0.889-0.885,1.891-2.061,3.01-3.527c0.771-1,1.158-2.002,1.158-3.006c0-1.234-0.394-2.199-1.184-2.893
			c-0.791-0.693-1.877-1.041-3.268-1.043c-2.275,0-4.569,0.787-6.883,2.367c-2.43,1.656-4.855,3.496-5.743,4.652
			c-0.232,0.348-0.531,0.568-0.896,0.666c-0.368,0.096-0.704,0.084-1.012-0.029c-0.311-0.117-0.579-0.322-0.81-0.609
			c-0.231-0.289-0.348-0.646-0.348-1.07L98.9,52.883z M73.008,53.477c0-0.424,0.135-0.789,0.406-1.098
			c0.268-0.309,0.578-0.5,0.927-0.576c1.425-0.309,2.669-0.625,3.729-0.953c1.06-0.326,1.955-0.664,2.689-1.012
			c0.655-0.307,1.359-0.777,2.111-1.416c0.752-0.635,1.572-1.395,2.459-2.281l8.732,0.006c0.463-0.002,0.848,0.172,1.156,0.518
			c0.308,0.348,0.463,0.754,0.463,1.217l-0.022,41.871c0.001,0.461-0.155,0.867-0.464,1.215c-0.309,0.346-0.693,0.52-1.156,0.52
			l-10.41-0.006c-0.426-0.002-0.801-0.176-1.127-0.521c-0.328-0.348-0.491-0.75-0.489-1.215l0.015-28.281
			c-1.119,0.656-2.229,1.195-3.328,1.617c-1.098,0.424-2.306,0.83-3.615,1.213c-0.54,0.193-1.021,0.107-1.445-0.262
			c-0.424-0.365-0.637-0.855-0.635-1.473L73.008,53.477z M92.443,144.625c-0.359,0.582-0.719,1.164-1.078,1.744
			c-0.08,0.178-0.124,0.275-0.136,0.297c-0.929,1.504-1.857,3.01-2.785,4.516c-0.077,0.178-0.121,0.277-0.134,0.295
			c-0.016,0.025-0.03,0.049-0.045,0.074c-0.07,0.115-0.178,0.129-0.32,0.039c-0.501-0.311-0.998-0.627-1.492-0.953
			c-0.13-0.084-0.153-0.229-0.07-0.432c0.332-1.162,0.68-2.318,1.043-3.465c0.013-0.102,0.011-0.158-0.006-0.168
			c-0.007-0.006-0.011-0.01-0.017-0.012c-0.073,0.059-0.145,0.141-0.216,0.242c-0.361,0.527-0.723,1.053-1.084,1.578
			c-0.035,0.049-0.09,0.154-0.169,0.316c-0.058,0.088-0.109,0.15-0.15,0.184c-0.077,0.141-0.158,0.27-0.242,0.391
			c-0.109,0.158-0.218,0.316-0.325,0.475c-0.045,0.066-0.108,0.07-0.189,0.016c-0.443-0.307-0.883-0.617-1.32-0.934
			c-0.091-0.066-0.111-0.135-0.059-0.209c1.63-2.246,3.263-4.49,4.894-6.734c0.053-0.074,0.129-0.072,0.23,0
			c0.441,0.318,0.885,0.631,1.332,0.936c0.123,0.086,0.131,0.205,0.022,0.365c-0.125,0.451-0.293,0.984-0.505,1.602
			c-0.063,0.277-0.146,0.541-0.249,0.791c-0.105,0.385-0.212,0.77-0.313,1.154c0.01,0.02,0.021,0.039,0.03,0.061
			c0.09-0.09,0.206-0.244,0.348-0.461c0.291-0.445,0.58-0.891,0.871-1.336c0.141-0.283,0.226-0.447,0.248-0.484
			c0.161-0.246,0.322-0.492,0.483-0.738c0.1-0.15,0.195-0.195,0.288-0.137c0.364,0.238,0.73,0.471,1.098,0.699
			C92.52,144.395,92.525,144.49,92.443,144.625z M99.112,149.773c-0.777,1.725-1.556,3.451-2.334,5.176
			c-0.105,0.234-0.318,0.441-0.642,0.621c-0.341,0.145-0.748,0.17-1.219,0.068c-0.207-0.049-0.361-0.098-0.461-0.146
			c-0.199-0.096-0.399-0.193-0.601-0.293c-0.307-0.152-0.604-0.414-0.884-0.789c-0.313-0.545-0.339-1.053-0.092-1.52
			c-0.012-0.008,0.001-0.045,0.036-0.113c0.894-1.689,1.787-3.377,2.68-5.066c0.199-0.373,0.573-0.604,1.118-0.697
			c0.389-0.002,0.69,0.049,0.908,0.156c0.262,0.131,0.525,0.26,0.789,0.387c0.278,0.135,0.521,0.393,0.728,0.773
			C99.356,148.764,99.351,149.246,99.112,149.773z M106.7,152.789c-0.083,0.27-0.166,0.541-0.249,0.811
			c-0.246,0.537-0.407,0.797-0.477,0.775c-0.057,0.072-0.178,0.166-0.366,0.275c-0.002,0.006-0.005,0.012-0.006,0.016
			c-0.012,0.039,0.023,0.139,0.107,0.301c0.136,0.293,0.151,0.619,0.044,0.973c0.014,0.002,0.007,0.043-0.017,0.117
			c-0.209,0.688-0.42,1.375-0.631,2.059c-0.126,0.539-0.153,0.84-0.083,0.898c-0.005,0.039-0.009,0.078-0.014,0.119
			c-0.014,0.043-0.027,0.086-0.039,0.129c-0.033,0.037-0.085,0.045-0.158,0.023c-0.183-0.057-0.364-0.111-0.547-0.17
			c-0.228-0.047-0.356-0.076-0.382-0.086c-0.183-0.059-0.364-0.117-0.546-0.176c-0.169-0.057-0.232-0.256-0.19-0.6
			c0.002-0.047,0.011-0.092,0.024-0.137c0.217-0.646,0.436-1.295,0.652-1.943c0.174-0.633,0.234-0.959,0.183-0.977
			c-0.025-0.127-0.111-0.215-0.259-0.266c-0.064-0.023-0.12,0.02-0.166,0.123c-0.387,1.121-0.772,2.242-1.158,3.365
			c-0.026,0.074-0.086,0.096-0.176,0.064c-0.498-0.172-0.994-0.35-1.489-0.535c-0.09-0.033-0.122-0.088-0.095-0.162
			c0.069-0.186,0.139-0.369,0.209-0.555c0.042-0.189,0.066-0.295,0.074-0.314c0.599-1.6,1.197-3.197,1.797-4.795
			c0.005-0.016,0.041-0.148,0.107-0.395c0.217-0.576,0.434-1.154,0.649-1.73c0.032-0.086,0.1-0.107,0.2-0.068
			c0.646,0.238,1.295,0.469,1.946,0.688c0.39,0.131,0.705,0.363,0.953,0.701c0.186,0.348,0.254,0.67,0.196,0.967
			C106.765,152.455,106.732,152.621,106.7,152.789z M114.089,153.59c-0.026,0.145-0.054,0.289-0.081,0.434
			c-0.012,0.078-0.063,0.109-0.146,0.094c-0.324-0.061-0.648-0.125-0.971-0.189c-0.079-0.018-0.137-0.004-0.177,0.033
			c-0.024,0.186-0.048,0.324-0.066,0.418c-0.098,0.471-0.194,0.941-0.292,1.41c-0.016,0.078,0.037,0.131,0.162,0.154
			c0.043,0.01,0.087,0.02,0.13,0.027c0.213,0.02,0.335,0.031,0.357,0.037c0.162,0.031,0.323,0.063,0.484,0.092
			c0.087,0.016,0.122,0.063,0.108,0.141c-0.072,0.383-0.144,0.768-0.215,1.15c-0.027,0.041-0.074,0.055-0.145,0.043
			c-0.328-0.063-0.656-0.127-0.983-0.193c-0.127-0.025-0.198,0-0.215,0.078c-0.229,1.117-0.46,2.236-0.69,3.354
			c-0.041,0.199-0.107,0.289-0.2,0.27c-0.539-0.111-1.078-0.23-1.614-0.355c-0.106-0.023-0.148-0.08-0.128-0.168
			c0.629-2.678,1.257-5.357,1.887-8.037c0.018-0.076,0.067-0.107,0.15-0.086c0.897,0.207,1.801,0.396,2.708,0.566
			c0.046,0.008,0.072,0.1,0.076,0.271C114.168,153.268,114.12,153.422,114.089,153.59z M121.708,161.066
			c-0.014,0.256-0.139,0.527-0.371,0.811c-0.263,0.256-0.626,0.426-1.09,0.5c-0.206,0.029-0.365,0.039-0.473,0.031
			c-0.218-0.018-0.434-0.037-0.649-0.057c-0.335-0.031-0.697-0.17-1.082-0.416c-0.476-0.396-0.674-0.859-0.611-1.383
			c-0.014-0.002-0.014-0.043-0.005-0.121c0.227-1.895,0.454-3.793,0.682-5.688c0.05-0.422,0.313-0.771,0.776-1.055
			c0.353-0.145,0.646-0.205,0.883-0.184c0.284,0.027,0.569,0.053,0.854,0.076c0.303,0.023,0.612,0.178,0.936,0.461
			c0.351,0.326,0.513,0.775,0.48,1.354C121.927,157.287,121.817,159.176,121.708,161.066z M129.416,162.355
			c-1.014,0.051-2.028,0.08-3.042,0.09c-0.095,0-0.144-0.039-0.144-0.119c-0.007-1.236-0.015-2.475-0.022-3.711
			c0-0.023-0.014-0.131-0.04-0.322c-0.009-1.43-0.016-2.859-0.024-4.289c0-0.016,0.024-0.041,0.071-0.068
			c0.489-0.002,0.979-0.012,1.467-0.027c0.083,0,0.127,0.037,0.129,0.115c0.015,0.463,0.03,0.928,0.045,1.391
			c0.031,0.191,0.045,0.297,0.047,0.32c0,0.006,0,0.01,0,0.016c-0.02,0.166-0.028,0.256-0.027,0.273c0,0.01,0,0.021,0,0.033
			c0.032,0.193,0.047,0.299,0.049,0.322c0.004,0.156,0.009,0.314,0.015,0.475c0.006,0.156,0.001,0.236-0.011,0.236
			c0.017,0.146,0.026,0.264,0.03,0.355c0.037,1.129,0.072,2.26,0.109,3.389c0.003,0.135,0.065,0.201,0.186,0.197
			c0.346-0.012,0.689-0.027,1.035-0.045c0.146-0.006,0.221,0.041,0.227,0.143c0.019,0.361,0.037,0.723,0.058,1.082
			C129.576,162.303,129.525,162.35,129.416,162.355z M138.869,161.248c-0.554,0.104-1.109,0.199-1.665,0.287
			c-0.129,0.021-0.249-0.119-0.354-0.424c-0.279-0.479-0.643-1.166-1.078-2.064c-0.052-0.072-0.09-0.107-0.112-0.104
			c-0.032,0.004-0.042,0.08-0.028,0.225c0.042,0.104,0.067,0.186,0.076,0.248c0.104,0.727,0.21,1.453,0.314,2.18
			c0.011,0.078-0.028,0.125-0.124,0.139c-0.524,0.074-1.048,0.143-1.572,0.205c-0.108,0.014-0.167-0.025-0.177-0.115
			c-0.132-1.123-0.263-2.244-0.396-3.367c-0.046-0.189-0.071-0.295-0.075-0.316c-0.176-1.498-0.35-2.996-0.525-4.496
			c-0.006-0.061,0.019-0.109,0.073-0.145c0.493-0.059,0.983-0.123,1.477-0.191c0.062,0.02,0.099,0.061,0.106,0.121
			c0.01,0.063,0.018,0.125,0.026,0.186c0.008,0.051,0.009,0.141,0.004,0.273c0.038,0.104,0.063,0.186,0.072,0.246
			c0.001,0.018,0.004,0.033,0.006,0.051c0.005,0.193,0.007,0.301,0.011,0.324c0.002,0.021,0.006,0.045,0.009,0.066
			c0.004,0.021,0.03,0.127,0.082,0.314c0.01,0.072,0.021,0.145,0.031,0.217c0.006,0.039,0.007,0.137,0.004,0.291
			c0.023,0.156,0.054,0.232,0.089,0.229c0.055-0.063,0.128-0.473,0.211-1.23c0.058-0.393,0.114-0.783,0.168-1.176
			c0.036-0.029,0.069-0.045,0.102-0.049c0.483-0.076,0.968-0.158,1.451-0.246c0.082-0.014,0.133,0.027,0.15,0.129
			c0.004,0.016,0.007,0.033,0.009,0.049c0.009,0.049-0.052,0.664-0.208,1.844c-0.143,0.975-0.235,1.662-0.26,2.057
			c1.39,2.6,2.193,3.941,2.24,4.082C139.012,161.176,138.966,161.23,138.869,161.248z M145.34,161.197
			c-0.039,0.033-0.074,0.057-0.11,0.066c-0.282,0.076-0.564,0.152-0.848,0.227c-0.063,0.018-0.232-0.215-0.501-0.693
			c-0.176-0.188-0.277-0.342-0.31-0.463c-0.064-0.258-0.131-0.516-0.195-0.773c-0.074-0.18-0.113-0.279-0.12-0.301
			c-0.008-0.033-0.016-0.066-0.025-0.1c-0.023-0.098,0.039-0.172,0.191-0.223c0.446-0.115,0.894-0.236,1.339-0.359
			c0.13-0.037,0.205-0.012,0.231,0.076c0.108,0.387,0.217,0.771,0.325,1.158C145.336,159.877,145.347,160.34,145.34,161.197z
			 M158.886,154.334c-0.356,0.186-0.716,0.369-1.075,0.547c-0.025,0.014-0.139,0.082-0.339,0.207
			c-0.012,0.006-0.025,0.012-0.037,0.018c-0.131,0.064-0.253,0.004-0.366-0.18c-0.778-1.066-1.547-2.139-2.303-3.217
			c-0.633-0.879-1.285-1.832-1.955-2.867c-0.156-0.191-0.256-0.332-0.297-0.422c-0.021-0.047-0.044-0.094-0.064-0.139
			c-0.049-0.102,0.016-0.195,0.193-0.279c0.139-0.064,0.278-0.123,0.422-0.18c0.075-0.047,0.177-0.104,0.306-0.164
			c0.012-0.006,0.019-0.004,0.023,0.006c0.027-0.018,0.051-0.037,0.076-0.055c0.094-0.045,0.187-0.092,0.28-0.137
			c0.1-0.049,0.2,0.033,0.307,0.246c0.651,0.969,1.311,1.936,1.976,2.896c0.005-0.002,0.012-0.006,0.019-0.01
			c0.027-0.014,0.002-0.135-0.073-0.361c-0.035-0.064-0.067-0.129-0.102-0.197c-0.746-1.926-1.147-2.914-1.177-2.977
			c0.016-0.033,0.034-0.066,0.051-0.102c0.431-0.221,0.858-0.447,1.285-0.68c0.06-0.031,0.115-0.031,0.17,0.004
			c0.012,0.02,0.021,0.041,0.032,0.061c0.419,1.076,1.053,2.76,1.856,5.066c0.614,1.758,0.916,2.689,0.935,2.781
			C158.999,154.256,158.95,154.301,158.886,154.334z M167.735,148.928c-0.016,0.012-0.034,0.025-0.053,0.037
			c-0.039,0.029-0.145,0.09-0.313,0.184c-0.124,0.117-0.228,0.203-0.309,0.26c-0.17,0.119-0.338,0.234-0.506,0.354
			c-0.141,0.096-0.322-0.02-0.544-0.348c-0.022,0.006-0.212-0.209-0.566-0.641c-0.105-0.119-0.207-0.145-0.304-0.078
			c-0.143,0.096-0.286,0.191-0.429,0.287c-0.115,0.076-0.102,0.223,0.042,0.439c0.004,0.008,0.161,0.305,0.465,0.893
			c0.027,0.041,0.055,0.084,0.085,0.127c0.049,0.074,0.027,0.145-0.066,0.207c-0.461,0.303-0.921,0.598-1.387,0.889
			c-0.073,0.014-0.129-0.008-0.161-0.061c-0.039-0.063-0.078-0.125-0.115-0.186c-0.884-1.922-1.787-3.83-2.71-5.727
			c-0.466-0.965-0.729-1.51-0.778-1.637c0.021-0.066,0.048-0.111,0.087-0.137c0.173-0.111,0.344-0.225,0.516-0.338
			c0.021-0.014,0.113-0.088,0.276-0.225c0.341-0.229,0.68-0.459,1.019-0.693c0.092-0.064,0.202-0.006,0.331,0.18
			c0.254,0.23,0.873,0.893,1.868,1.98c1.319,1.359,2.194,2.26,2.598,2.727c0.182,0.16,0.546,0.529,1.094,1.115
			C167.966,148.664,167.92,148.795,167.735,148.928z M185.609,116.086c-2.348,3.072-4.738,5.781-7.176,8.127
			c-2.168,2.078-4.584,3.951-7.246,5.619c-2.664,1.674-5.441,2.506-8.326,2.506c-2.168,0-3.639-0.584-4.404-1.76
			c-0.769-1.172-1.107-2.641-1.015-4.402c0.087-1.76,0.474-3.678,1.151-5.756c0.677-2.076,1.375-3.994,2.1-5.756
			c0.719-1.76,1.285-3.227,1.693-4.4c0.405-1.172,0.38-1.762-0.072-1.762c-0.451,0-1.194,0.543-2.233,1.627
			c-1.038,1.084-2.213,2.461-3.519,4.131c-1.311,1.67-2.688,3.498-4.134,5.484c-1.441,1.986-2.796,3.859-4.062,5.621
			c-1.266,1.76-2.326,3.273-3.182,4.535c-0.861,1.266-1.377,2.033-1.557,2.303v0.135h-8.262c0.99-2.256,2.1-5.234,3.318-8.938
			c1.218-3.701,2.368-7.449,3.451-11.24l-2.676,3.881c-0.012,0.016-0.016,0.027-0.029,0.045c-0.072,0.104-0.164,0.188-0.242,0.283
			c-0.18,0.223-0.357,0.438-0.529,0.623c-0.203,0.221-0.417,0.432-0.636,0.637c-0.003,0-0.003,0-0.003,0
			c-1.047,0.973-2.281,1.779-3.736,2.385c-2.168,0.906-4.38,1.131-6.635,0.678c-1.809,3.434-4.02,6.23-6.638,8.396
			c-2.618,2.168-5.552,3.25-8.802,3.25c-2.079,0-3.929-0.473-5.555-1.42c-1.623-0.949-2.909-2.236-3.857-3.861
			c-0.908-1.555-1.473-3.363-1.72-5.414c-1.434,1.527-2.993,3.041-4.78,4.533c-2.214,1.852-4.606,3.41-7.179,4.672
			c-2.573,1.268-5.077,1.764-7.517,1.49c-2.801-0.27-5.034-1.33-6.703-3.182c-1.672-1.85-2.822-4.084-3.453-6.703
			s-0.699-5.438-0.205-8.465c0.497-3.025,1.512-5.799,3.05-8.33c1.534-2.523,3.588-4.625,6.16-6.295
			c2.573-1.672,5.665-2.508,9.278-2.508c2.525,0,4.535,0.609,6.025,1.828c1.488,1.219,2.438,2.709,2.844,4.471
			s0.34,3.59-0.202,5.484s-1.581,3.521-3.114,4.875c-1.085,0.904-2.146,1.287-3.184,1.15c-1.041-0.135-1.92-0.494-2.641-1.082
			c-0.724-0.588-1.242-1.264-1.559-2.031c-0.316-0.766-0.25-1.332,0.204-1.693c1.442-1.264,2.437-2.686,2.978-4.266
			c0.543-1.58,0.316-2.777-0.674-3.59c-0.727-0.543-1.56-0.609-2.508-0.201c-0.947,0.404-1.85,1.148-2.708,2.23
			c-0.858,1.086-1.671,2.396-2.438,3.93c-0.769,1.537-1.284,3.07-1.557,4.607c-0.542,3.701-0.361,6.611,0.541,8.732
			c0.903,2.121,2.482,3.139,4.739,3.049c1.444,0,2.891-0.316,4.336-0.949c1.441-0.629,2.82-1.443,4.13-2.439
			c1.307-0.99,2.526-2.074,3.655-3.25c1.127-1.172,2.188-2.256,3.184-3.25c0.723-2.438,1.76-4.738,3.114-6.906
			c1.354-2.166,2.956-4.063,4.808-5.688c1.85-1.625,3.881-2.912,6.096-3.859c2.209-0.947,4.58-1.422,7.109-1.422
			c2.075,0,3.791,0.475,5.145,1.422c1.355,0.947,2.371,2.234,3.049,3.859s0.947,3.521,0.813,5.688
			c-0.135,2.168-0.655,4.469-1.556,6.906l-0.815,1.896c2.075,0.543,4.014-0.088,5.819-1.891c0-0.002,0-0.006,0.003-0.006
			c1.441-1.893,2.842-3.879,4.196-5.959c1.355-2.074,2.528-4.016,3.522-5.822c1.172-2.076,2.303-4.107,3.385-6.094h10.158
			c-0.361,1.443-1.15,3.949-2.369,7.518c-1.221,3.566-2.598,7.291-4.131,11.172c1.895-2.619,3.902-5.26,6.025-7.922
			c2.121-2.664,4.244-4.988,6.365-6.977c2.121-1.984,4.176-3.496,6.16-4.537c1.986-1.037,3.793-1.287,5.42-0.744
			c1.082,0.361,1.646,1.334,1.691,2.912c0.047,1.58-0.202,3.432-0.743,5.553c-0.544,2.123-1.241,4.357-2.101,6.703
			c-0.859,2.35-1.646,4.492-2.367,6.434c-0.726,1.941-1.244,3.566-1.559,4.875c-0.318,1.311-0.203,1.963,0.338,1.963
			c0.811,0,1.713-0.27,2.709-0.811c0.992-0.543,2.008-1.266,3.047-2.17c1.038-0.898,2.1-1.895,3.182-2.979
			c1.085-1.084,2.168-2.121,3.252-3.115c1.084-0.992,2.008-1.625,2.775-1.893c0.767-0.273,1.355-0.273,1.762,0
			c0.404,0.268,0.584,0.721,0.541,1.352C186.58,114.553,186.242,115.275,185.609,116.086z M194.127,97.748l1.06,4.885l-4.323-2.516
			l-4.319,2.516l1.057-4.885l-3.728-3.332l4.974-0.506l2.017-4.574l2.018,4.574l4.975,0.506L194.127,97.748z"/>
		<path fill="#00ADEE" d="M159.878,62.467c0.909-0.727,1.368-1.533,1.375-2.42c0.005-1.004-0.424-1.873-1.284-2.611
			c-0.864-0.738-2.048-1.113-3.549-1.121l-3.588-0.023l-0.047,7.229l3.53,0.023C157.78,63.553,158.966,63.193,159.878,62.467z"/>
		<path fill="#00ADEE" d="M124.398,101.459c-1.537-0.359-3.363,0.566-5.483,2.777c-2.122,2.215-4.088,5.621-5.894,10.225
			c-1.173,3.162-1.85,5.984-2.028,8.467c-0.185,2.482,0.358,3.949,1.624,4.4c1.805,0.633,3.633,0.047,5.484-1.76
			c1.85-1.807,3.498-4.109,4.942-6.908l-1.083-1.219c-0.813-0.992-1.266-2.166-1.354-3.521c-0.09-1.352,0.135-2.617,0.678-3.791
			c0.541-1.174,1.308-2.145,2.3-2.912c0.993-0.766,2.169-1.061,3.523-0.881C127.197,103.629,126.296,102.002,124.398,101.459z"/>
	</g>
	<path fill="#00ADEE" d="M7.297,83.979h1.004c1.039,0,2.013,0.363,2.922,1.09c0.815,0.836,1.222,1.971,1.222,3.402v1.178
		c0,1.672-0.785,3.65-2.355,5.934c-1.687,2.639-2.573,4.297-2.661,4.973c-0.058,0.232-0.087,0.422-0.087,0.566
		c0.109,0.088,0.21,0.131,0.305,0.131h3.142c0.16,0,0.363,0.016,0.611,0.045c0.043-0.029,0.131-0.045,0.261-0.045
		c0.611,0,0.916,0.248,0.916,0.744v0.26c-0.087,0.734-0.131,1.186-0.131,1.354v0.871c0,0.16-0.319,0.264-0.959,0.307H3.851
		c-0.291,0-0.437-0.174-0.437-0.525c0-0.086-0.044-0.406-0.131-0.959c0.087-0.543,0.131-0.922,0.131-1.133v-1.877
		c0-1.504,1.352-4.195,4.058-8.07c0.668-1.215,1.003-2.217,1.003-3.01v-1.004c-0.086-0.553-0.276-0.828-0.567-0.828H7.82
		c-0.291,0.16-0.437,0.508-0.437,1.047v1.875c0,0.232-0.188,0.35-0.566,0.35H4.024c-0.406,0-0.61-0.117-0.61-0.35v-1.656
		c0.058-1.129,0.188-1.986,0.393-2.576c0.262-0.646,0.785-1.199,1.57-1.656C6.147,84.123,6.788,83.979,7.297,83.979z"/>
	<path fill="#00ADEE" d="M27.164,88.166v-0.742c0-1.127-0.51-2.115-1.527-2.965c-0.778-0.393-1.417-0.598-1.919-0.611h-1.701
		c-0.836,0-1.607,0.246-2.312,0.74c-0.539,0.414-0.947,0.924-1.224,1.527c-0.165,0.531-0.283,1.258-0.348,2.182
		c0,0.16,0.015,0.32,0.044,0.48c-0.029,0.152-0.044,0.326-0.044,0.523v0.219c0,0.043,0.028,0.393,0.088,1.047v9.771
		c0,0.131,0.027,0.363,0.088,0.697c0,1.193,0.42,2.182,1.264,2.967c0.952,0.611,1.767,0.916,2.443,0.916h1.439
		c0.684-0.035,1.426-0.27,2.225-0.697c1.076-0.771,1.614-1.963,1.614-3.578V89.693C27.295,89.482,27.251,88.973,27.164,88.166z
		 M23.281,90.393c0,0.129-0.029,0.361-0.088,0.697c0,0.057,0.03,0.334,0.088,0.828v8.898c-0.08,0.438-0.239,0.656-0.479,0.656
		c-0.327-0.072-0.502-0.438-0.523-1.092v-8.113c-0.059-0.496-0.088-0.771-0.088-0.83v-3.488c0-0.357,0.174-0.604,0.524-0.742
		c0.32,0.115,0.479,0.348,0.479,0.697v1.615c0,0.057,0.03,0.334,0.088,0.828V90.393z"/>
	<path fill="#00ADEE" d="M228.364,84.197c0.407,0,0.612,0.131,0.612,0.391v17.846c0.058,0.492,0.085,0.77,0.085,0.828v0.217
		c0,0.727-0.145,1.092-0.435,1.092h-3.142c-0.263,0-0.394-0.102-0.394-0.307v-7.154c0-0.211-0.044-0.719-0.132-1.527v-7.545
		c0-0.205-0.115-0.307-0.348-0.307h-1.877c-0.232,0-0.348-0.115-0.348-0.35v-1.613c0-0.283,0.189-0.486,0.566-0.611
		c1.55-0.641,2.494-0.959,2.835-0.959H228.364z"/>
	<path fill="#00ADEE" d="M238.503,83.805h1.309c1.236,0,2.298,0.494,3.185,1.484c0.495,0.77,0.741,1.643,0.741,2.617
		c0.03,0,0.044,2.791,0.044,2.791c0,0.881-0.276,1.723-0.829,2.531c-0.085,0.027-0.131,0.115-0.131,0.262
		c0.421,0.443,0.714,1.17,0.872,2.182c0,0,0.132,2.996,0.132,3.053c0,2.814-0.408,4.529-1.221,5.148
		c-0.859,0.727-1.847,1.09-2.966,1.09h-1.048c-0.763,0-1.638-0.32-2.619-0.961c-0.785-0.66-1.177-1.795-1.177-3.4
		c-0.058-0.336-0.087-0.568-0.087-0.699v-1.221c0-0.32,0.232-0.48,0.697-0.48h2.619c0.435,0,0.653,0.074,0.653,0.219v1.963
		c0,0.727,0.173,1.09,0.523,1.09c0.35,0,0.524-0.537,0.524-1.613v-2.705c0-1.039-0.191-1.65-0.568-1.832
		c-0.261-0.088-0.436-0.131-0.523-0.131h-0.96c-0.32,0-0.479-0.205-0.479-0.611v-2.398c0-0.35,0.173-0.525,0.522-0.525h0.916
		c0.698-0.123,1.046-0.588,1.046-1.395c0.03-0.145,0.046-0.336,0.046-0.568v-1.133c0-0.902-0.175-1.354-0.524-1.354
		c-0.351,0-0.523,0.51-0.523,1.527v1.352c-0.094,0.176-0.255,0.264-0.481,0.264h-0.129c-0.197,0-0.373-0.016-0.524-0.045
		c-0.159,0.029-0.32,0.045-0.479,0.045c-0.516-0.059-0.836-0.088-0.96-0.088h-1.09c-0.146-0.072-0.219-0.189-0.219-0.35v-2.398
		c0-1.027,0.422-1.971,1.265-2.836C236.889,84.096,237.704,83.805,238.503,83.805z"/>
</g>
</svg>
