<?xml version="1.0" encoding="UTF-8" standalone="no"?>
<!-- Generator: Adobe Illustrator 16.2.0, SVG Export Plug-In . SVG Version: 6.00 Build 0)  -->

<svg
   xmlns:dc="http://purl.org/dc/elements/1.1/"
   xmlns:cc="http://creativecommons.org/ns#"
   xmlns:rdf="http://www.w3.org/1999/02/22-rdf-syntax-ns#"
   xmlns:svg="http://www.w3.org/2000/svg"
   xmlns="http://www.w3.org/2000/svg"
   xmlns:sodipodi="http://sodipodi.sourceforge.net/DTD/sodipodi-0.dtd"
   xmlns:inkscape="http://www.inkscape.org/namespaces/inkscape"
   version="1.1"
   id="Layer_1"
   x="0px"
   y="0px"
   width="246.5px"
   height="189px"
   viewBox="0 0 246.5 189"
   enable-background="new 0 0 246.5 189"
   xml:space="preserve"
   inkscape:version="0.48.4 r9939"
   sodipodi:docname="DEVcon-blue-small.svg"><metadata
     id="metadata3095"><rdf:RDF><cc:Work
         rdf:about=""><dc:format>image/svg+xml</dc:format><dc:type
           rdf:resource="http://purl.org/dc/dcmitype/StillImage" /></cc:Work></rdf:RDF></metadata><defs
     id="defs3093" /><sodipodi:namedview
     pagecolor="#ffffff"
     bordercolor="#666666"
     borderopacity="1"
     objecttolerance="10"
     gridtolerance="10"
     guidetolerance="10"
     inkscape:pageopacity="0"
     inkscape:pageshadow="2"
     inkscape:window-width="1328"
     inkscape:window-height="878"
     id="namedview3091"
     showgrid="false"
     inkscape:zoom="4"
     inkscape:cx="185.38608"
     inkscape:cy="86.360677"
     inkscape:window-x="1584"
     inkscape:window-y="116"
     inkscape:window-maximized="0"
     inkscape:current-layer="Layer_1" /><g
     id="g3145"><path
       d="m 214.213,94.844 c 0.156,-0.271 1.445,-3.234 1.618,-4.223 l 0.037,-0.008 -0.007,-0.217 c 0,-0.039 -1.407,-3.371 -2.137,-4.236 0.486,-0.859 1.123,-3.764 1.252,-4.41 l 0.027,-0.008 -0.007,-0.094 c 0.002,-0.016 0.003,-0.023 0.003,-0.025 -0.001,-0.027 -0.006,-0.051 -0.012,-0.074 l -0.002,-0.012 c 0,-0.002 -0.002,-0.01 -0.01,-0.025 -0.006,-0.014 -0.013,-0.025 -0.021,-0.039 -0.233,-0.455 -1.757,-3.221 -2.517,-3.957 0.406,-0.906 0.76,-3.924 0.818,-4.514 l 0.012,-0.004 -0.006,-0.051 c 0.002,-0.025 0.004,-0.045 0.004,-0.045 -0.006,-0.041 -0.013,-0.074 -0.021,-0.102 -0.044,-0.283 -2.137,-3.111 -2.928,-3.783 0.336,-1.057 0.384,-4.58 0.377,-4.619 -0.008,-0.059 -0.023,-0.105 -0.041,-0.143 -0.15,-0.357 -2.455,-2.918 -3.277,-3.479 0.225,-1.09 -0.061,-4.529 -0.068,-4.566 -0.009,-0.047 -0.024,-0.129 -0.069,-0.201 -0.233,-0.459 -2.775,-2.643 -3.597,-3.127 0.135,-1.08 -0.479,-4.396 -0.488,-4.436 -0.027,-0.113 -0.063,-0.254 -0.148,-0.334 -0.415,-0.502 -3.042,-2.355 -3.855,-2.736 0.023,-1.053 -0.826,-4.061 -0.838,-4.096 -0.099,-0.328 -0.164,-0.514 -0.272,-0.586 -0.493,-0.504 -3.304,-2.037 -4.097,-2.334 -0.035,-0.398 -0.242,-1.268 -0.941,-3.225 -0.379,-1.057 -0.518,-1.293 -0.637,-1.346 -0.584,-0.492 -3.496,-1.668 -4.27,-1.902 -0.051,-0.219 -0.184,-0.596 -0.466,-1.279 -0.851,-2.07 -1.257,-2.77 -1.465,-3.004 v -0.002 c -0.175,-0.387 -3.776,-1.434 -4.549,-1.592 -0.037,-0.111 -0.103,-0.256 -0.194,-0.455 -0.266,-0.555 -0.74,-1.434 -1.214,-2.242 -0.752,-1.281 -0.935,-1.449 -1.06,-1.471 -0.723,-0.398 -3.987,-1.006 -4.562,-1.051 -0.019,-0.041 -0.041,-0.086 -0.067,-0.133 -0.141,-0.262 -2,-3.186 -2.666,-3.691 -0.016,-0.014 -0.037,-0.027 -0.061,-0.041 -0.018,-0.01 -0.031,-0.016 -0.046,-0.023 -0.733,-0.332 -4.104,-0.613 -4.517,-0.613 -0.051,0 -0.1,0 -0.145,0.004 -0.003,-0.004 -0.004,-0.006 -0.005,-0.01 -0.194,-0.326 -2.749,-3.537 -3.22,-3.582 -0.399,-0.137 -1.485,-0.207 -3.238,-0.207 -0.791,0 -1.213,0.02 -1.445,0.059 -0.365,-0.463 -2.779,-2.918 -3.435,-3.23 -0.091,-0.066 -0.248,-0.082 -0.617,-0.082 -0.036,0 -3.153,0.059 -4.166,0.387 -0.481,-0.529 -3.213,-2.736 -3.776,-2.906 -0.069,-0.031 -0.15,-0.035 -0.225,-0.035 -0.039,0 -3.445,0.383 -4.479,0.818 -0.563,-0.504 -3.569,-2.494 -4.063,-2.533 -0.044,-0.012 -0.085,-0.012 -0.107,-0.012 -0.039,0 -3.482,0.717 -4.479,1.262 -0.635,-0.469 -3.696,-2.061 -4.244,-2.121 l -0.103,-0.006 c -0.041,0 -3.487,1.066 -4.403,1.707 -0.812,-0.566 -3.593,-1.463 -4.262,-1.664 L 120.815,4.1 h -0.124 c -0.009,-0.002 -0.014,-0.004 -0.014,-0.004 -0.02,0 -0.036,0.002 -0.053,0.004 h -0.022 c -0.457,0 -3.624,1.645 -4.272,2.123 -0.9,-0.492 -3.8,-1.125 -4.379,-1.242 l -0.04,-0.008 c -0.038,-0.008 -0.058,-0.012 -0.062,-0.012 -0.022,0 -0.063,0 -0.107,0.012 -0.494,0.039 -3.514,2.037 -4.067,2.537 -1.038,-0.428 -4.436,-0.822 -4.475,-0.822 -0.071,0 -0.149,0.004 -0.217,0.031 -0.576,0.152 -3.327,2.432 -3.782,2.91 -1.012,-0.328 -4.13,-0.387 -4.165,-0.387 -0.37,0 -0.528,0.016 -0.618,0.082 -0.653,0.313 -3.067,2.768 -3.434,3.23 -0.233,-0.039 -0.655,-0.059 -1.446,-0.059 -1.754,0 -2.839,0.07 -3.238,0.207 -0.471,0.045 -3.024,3.256 -3.22,3.582 -0.001,0.004 -0.003,0.006 -0.005,0.01 C 83.03,16.29 82.982,16.29 82.93,16.29 c -0.412,0 -3.782,0.281 -4.517,0.613 -0.014,0.008 -0.029,0.014 -0.046,0.023 -0.023,0.016 -0.045,0.027 -0.06,0.041 -0.666,0.506 -2.527,3.43 -2.667,3.691 -0.025,0.047 -0.048,0.092 -0.067,0.133 -0.573,0.045 -3.839,0.652 -4.561,1.051 -0.124,0.021 -0.306,0.189 -1.059,1.471 -0.473,0.809 -0.948,1.688 -1.213,2.244 -0.095,0.197 -0.158,0.342 -0.195,0.453 -0.773,0.158 -4.377,1.205 -4.551,1.592 v 0.002 c -0.207,0.234 -0.614,0.932 -1.463,2.998 -0.282,0.689 -0.416,1.066 -0.466,1.285 -0.773,0.234 -3.687,1.41 -4.27,1.902 -0.119,0.053 -0.259,0.289 -0.636,1.342 -0.7,1.959 -0.908,2.83 -0.943,3.229 -0.792,0.297 -3.602,1.83 -4.096,2.334 -0.107,0.076 -0.174,0.258 -0.273,0.586 -0.011,0.035 -0.861,3.043 -0.837,4.096 -0.813,0.381 -3.443,2.236 -3.856,2.736 -0.085,0.08 -0.121,0.223 -0.15,0.334 -0.009,0.039 -0.621,3.354 -0.488,4.436 -0.822,0.484 -3.361,2.668 -3.595,3.129 -0.046,0.07 -0.063,0.154 -0.071,0.199 -0.008,0.041 -0.293,3.477 -0.068,4.566 -0.822,0.561 -3.125,3.119 -3.277,3.479 -0.019,0.037 -0.034,0.084 -0.042,0.143 -0.006,0.039 0.042,3.563 0.378,4.619 -0.79,0.672 -2.887,3.5 -2.929,3.783 -0.011,0.027 -0.018,0.061 -0.021,0.102 0,0.002 0.003,0.039 0.009,0.102 v 0.02 h 0.002 c 0.066,0.637 0.41,3.547 0.808,4.469 -0.717,0.703 -2.25,3.488 -2.502,3.973 -0.009,0.014 -0.018,0.031 -0.026,0.051 -0.005,0.012 -0.009,0.021 -0.009,0.021 v 0.01 c -0.006,0.021 -0.01,0.049 -0.012,0.076 0,0.004 0.004,0.021 0.011,0.057 l -10e-4,0.092 0.02,0.002 c 0.14,0.688 0.762,3.512 1.241,4.375 -0.625,0.744 -1.795,3.424 -2.073,4.096 l -0.063,0.012 v 0.223 c 0,0.037 1.05,3.432 1.692,4.383 -0.013,0.02 -0.026,0.041 -0.039,0.063 -0.217,0.376 -1.454,3.248 -1.618,4.22 l -0.037,0.006 0.007,0.218 c 0,0.039 1.409,3.371 2.139,4.235 -0.487,0.859 -1.123,3.767 -1.254,4.414 l -0.026,0.006 0.007,0.097 c -0.003,0.017 -0.004,0.021 -0.004,0.022 0.001,0.027 0.006,0.054 0.011,0.074 l 10e-4,0.014 c 0,0 0.004,0.009 0.012,0.023 0.005,0.014 0.012,0.027 0.02,0.039 0.235,0.457 1.759,3.219 2.517,3.953 -0.407,0.906 -0.76,3.924 -0.82,4.516 l -0.012,0.004 0.006,0.049 c -0.002,0.031 -0.003,0.048 -0.003,0.05 0.004,0.039 0.011,0.073 0.021,0.1 0.042,0.281 2.139,3.111 2.929,3.783 -0.336,1.056 -0.384,4.58 -0.378,4.619 0.008,0.062 0.023,0.104 0.041,0.143 0.151,0.357 2.455,2.916 3.278,3.479 -0.227,1.088 0.061,4.529 0.068,4.568 0.01,0.045 0.027,0.131 0.072,0.198 0.236,0.461 2.771,2.646 3.594,3.129 -0.134,1.08 0.479,4.396 0.489,4.437 0.028,0.113 0.064,0.256 0.149,0.332 0.415,0.502 3.042,2.356 3.855,2.736 -0.024,1.053 0.829,4.065 0.839,4.1 0.1,0.326 0.165,0.51 0.272,0.584 0.496,0.504 3.317,2.045 4.102,2.336 0.044,0.527 0.36,1.609 0.944,3.24 0.371,1.037 0.51,1.272 0.629,1.326 0.583,0.494 3.499,1.668 4.271,1.901 0.055,0.24 0.208,0.672 0.552,1.492 0.829,1.979 1.2,2.61 1.392,2.815 0.305,0.404 3.777,1.414 4.535,1.57 0.037,0.109 0.101,0.256 0.195,0.453 0.264,0.555 0.74,1.436 1.213,2.24 0.752,1.283 0.935,1.451 1.059,1.475 0.722,0.396 3.986,1.004 4.561,1.051 0.02,0.041 0.042,0.086 0.067,0.135 0.14,0.261 1.999,3.179 2.666,3.687 0.016,0.017 0.037,0.031 0.063,0.043 0.016,0.011 0.029,0.017 0.043,0.021 0.73,0.334 4.104,0.613 4.517,0.613 0.052,0 0.1,0 0.145,0 0.002,0.002 0.004,0.006 0.005,0.008 0.196,0.328 2.755,3.545 3.221,3.584 0.399,0.138 1.476,0.203 3.213,0.203 0.804,0 1.233,-0.021 1.47,-0.061 0.359,0.459 2.772,2.914 3.432,3.232 0.082,0.063 0.231,0.086 0.624,0.086 0.037,0 3.15,-0.06 4.162,-0.387 0.453,0.477 3.206,2.756 3.782,2.907 0.067,0.027 0.146,0.031 0.218,0.031 0.039,0 3.441,-0.381 4.477,-0.815 0.575,0.522 3.613,2.483 4.063,2.526 0.045,0.015 0.086,0.015 0.108,0.015 0.039,0 3.482,-0.716 4.479,-1.259 0.637,0.47 3.697,2.062 4.245,2.121 l 0.007,0.006 h 0.096 c 0.04,0 3.439,-1.053 4.386,-1.696 0.244,0.159 0.781,0.416 1.969,0.883 0.313,0.125 1.765,0.69 2.314,0.797 l 0.086,0.014 c 0.043,0.004 0.074,0.002 0.105,0 h 0.021 c 0.457,0 3.625,-1.645 4.274,-2.123 0.899,0.49 3.8,1.123 4.378,1.238 l 0.039,0.006 c 0.036,0.01 0.059,0.014 0.063,0.014 0.021,0 0.063,0 0.107,-0.014 0.449,-0.043 3.487,-2.004 4.063,-2.527 1.035,0.437 4.438,0.816 4.478,0.816 0.074,0 0.155,-0.004 0.224,-0.035 0.563,-0.166 3.297,-2.375 3.778,-2.904 1.013,0.328 4.125,0.387 4.162,0.387 0.394,0 0.542,-0.022 0.624,-0.086 0.657,-0.317 3.071,-2.772 3.434,-3.231 0.234,0.039 0.664,0.062 1.47,0.062 1.735,0 2.813,-0.066 3.212,-0.203 0.467,-0.037 3.025,-3.258 3.221,-3.584 0.001,-0.002 0.002,-0.008 0.006,-0.008 0.045,0 0.092,0 0.143,0 0.414,0 3.808,-0.283 4.525,-0.615 0.004,-0.004 0.01,-0.006 0.016,-0.008 0.041,-0.021 0.07,-0.041 0.09,-0.062 0.672,-0.531 2.523,-3.433 2.662,-3.685 0.023,-0.047 0.046,-0.09 0.064,-0.131 0.573,-0.047 3.84,-0.653 4.562,-1.051 0.126,-0.023 0.307,-0.191 1.062,-1.48 0.477,-0.813 0.952,-1.692 1.215,-2.243 0.092,-0.193 0.153,-0.336 0.19,-0.443 0.765,-0.155 4.296,-1.186 4.541,-1.584 0.196,-0.215 0.578,-0.868 1.405,-2.85 0.33,-0.791 0.478,-1.209 0.529,-1.445 0.771,-0.233 3.688,-1.41 4.271,-1.901 0.12,-0.056 0.26,-0.295 0.645,-1.371 0.236,-0.662 0.865,-2.422 0.93,-3.195 0.785,-0.293 3.609,-1.834 4.102,-2.338 0.109,-0.074 0.178,-0.262 0.275,-0.592 0.17,-0.564 0.412,-1.574 0.604,-2.515 0.179,-0.883 0.246,-1.338 0.253,-1.586 0.838,-0.399 3.426,-2.231 3.834,-2.728 0.086,-0.077 0.122,-0.223 0.15,-0.338 0.01,-0.037 0.629,-3.354 0.488,-4.432 0.826,-0.488 3.358,-2.668 3.595,-3.127 0.045,-0.072 0.062,-0.156 0.069,-0.201 0.01,-0.037 0.293,-3.477 0.068,-4.565 0.823,-0.563 3.131,-3.127 3.277,-3.48 0.018,-0.034 0.033,-0.084 0.042,-0.141 0.006,-0.039 -0.044,-3.563 -0.378,-4.619 0.789,-0.67 2.888,-3.504 2.928,-3.783 0.01,-0.028 0.018,-0.063 0.021,-0.102 0,-0.005 -0.002,-0.041 -0.01,-0.103 l 0.002,-0.02 h -0.004 c -0.066,-0.633 -0.41,-3.543 -0.807,-4.469 0.716,-0.699 2.249,-3.482 2.501,-3.972 0.01,-0.014 0.021,-0.03 0.026,-0.049 0.006,-0.014 0.009,-0.021 0.009,-0.022 v -0.01 c 0.007,-0.021 0.012,-0.05 0.013,-0.076 0,-0.004 -0.003,-0.023 -0.011,-0.06 l 10e-4,-0.092 h -0.02 c -0.142,-0.688 -0.762,-3.515 -1.24,-4.375 0.623,-0.744 1.793,-3.427 2.07,-4.099 l 0.064,-0.01 v -0.223 c 0,-0.041 -1.051,-3.43 -1.692,-4.378 0.014,-0.02 0.026,-0.043 0.039,-0.063 z m -1.68,4.281 v 0.215 l -0.063,0.01 c -0.268,0.646 -1.395,3.23 -1.996,3.947 0.463,0.83 1.061,3.553 1.195,4.213 l 0.02,0.002 -0.002,0.088 c 0.008,0.033 0.012,0.053 0.012,0.058 -0.002,0.024 -0.006,0.051 -0.014,0.071 v 0.011 c 0,0.002 -0.002,0.01 -0.008,0.021 -0.007,0.018 -0.017,0.035 -0.025,0.049 -0.242,0.469 -1.719,3.15 -2.409,3.824 0.382,0.891 0.713,3.695 0.776,4.305 h 0.004 l -0.002,0.019 c 0.008,0.062 0.008,0.096 0.008,0.101 -0.004,0.036 -0.01,0.067 -0.021,0.098 -0.038,0.268 -2.059,2.998 -2.819,3.643 0.322,1.02 0.369,4.414 0.363,4.451 -0.008,0.055 -0.021,0.102 -0.039,0.135 -0.142,0.34 -2.363,2.811 -3.158,3.354 0.218,1.052 -0.057,4.361 -0.064,4.398 -0.009,0.043 -0.023,0.125 -0.068,0.193 -0.226,0.443 -2.666,2.541 -3.461,3.014 0.135,1.037 -0.463,4.232 -0.472,4.268 -0.026,0.111 -0.062,0.25 -0.146,0.326 -0.394,0.478 -2.887,2.24 -3.692,2.625 -0.007,0.24 -0.072,0.679 -0.244,1.527 -0.185,0.906 -0.419,1.879 -0.581,2.424 -0.096,0.316 -0.16,0.496 -0.266,0.568 -0.475,0.486 -3.195,1.971 -3.951,2.252 -0.063,0.744 -0.667,2.441 -0.896,3.078 -0.369,1.037 -0.505,1.268 -0.619,1.32 -0.563,0.475 -3.371,1.606 -4.114,1.834 -0.052,0.227 -0.193,0.629 -0.513,1.391 -0.795,1.908 -1.164,2.539 -1.354,2.746 -0.234,0.385 -3.639,1.375 -4.374,1.525 -0.036,0.104 -0.097,0.241 -0.185,0.428 -0.252,0.529 -0.711,1.379 -1.17,2.162 -0.728,1.242 -0.9,1.401 -1.021,1.424 -0.695,0.383 -3.842,0.969 -4.395,1.014 -0.019,0.039 -0.039,0.08 -0.063,0.127 -0.132,0.242 -1.917,3.035 -2.563,3.547 -0.02,0.021 -0.047,0.039 -0.088,0.059 -0.004,0.003 -0.011,0.005 -0.015,0.009 -0.69,0.319 -3.959,0.594 -4.358,0.594 -0.049,0 -0.096,0 -0.139,-0.002 -0.002,0.002 -0.003,0.006 -0.004,0.008 -0.188,0.314 -2.652,3.416 -3.104,3.453 -0.385,0.131 -1.422,0.195 -3.094,0.195 -0.775,0 -1.188,-0.021 -1.416,-0.06 -0.349,0.443 -2.674,2.81 -3.308,3.113 -0.078,0.061 -0.224,0.084 -0.601,0.084 -0.035,0 -3.035,-0.057 -4.011,-0.373 -0.463,0.51 -3.096,2.637 -3.639,2.799 -0.065,0.029 -0.144,0.033 -0.216,0.033 -0.037,0 -3.315,-0.367 -4.313,-0.787 -0.554,0.506 -3.479,2.393 -3.913,2.437 -0.043,0.014 -0.082,0.014 -0.104,0.014 -0.004,0 -0.023,-0.004 -0.061,-0.014 l -0.037,-0.007 c -0.558,-0.11 -3.35,-0.721 -4.217,-1.192 -0.626,0.461 -3.678,2.045 -4.117,2.045 h -0.021 c -0.03,0.002 -0.061,0.004 -0.102,0 l -0.084,-0.012 c -0.528,-0.103 -1.93,-0.648 -2.229,-0.769 -1.145,-0.451 -1.662,-0.697 -1.896,-0.852 -0.91,0.621 -4.187,1.635 -4.226,1.635 h -0.092 l -0.007,-0.006 c -0.527,-0.059 -3.476,-1.592 -4.089,-2.043 -0.961,0.523 -4.277,1.213 -4.314,1.213 -0.021,0 -0.062,0 -0.105,-0.014 -0.433,-0.043 -3.359,-1.93 -3.913,-2.437 -0.997,0.421 -4.274,0.787 -4.313,0.787 -0.07,0 -0.146,-0.004 -0.21,-0.03 -0.556,-0.146 -3.207,-2.343 -3.644,-2.802 -0.975,0.316 -3.974,0.373 -4.01,0.373 -0.377,0 -0.521,-0.022 -0.601,-0.084 -0.635,-0.308 -2.959,-2.672 -3.306,-3.112 -0.228,0.036 -0.642,0.059 -1.416,0.059 -1.673,0 -2.709,-0.064 -3.095,-0.195 -0.448,-0.039 -2.913,-3.137 -3.102,-3.453 -0.002,-0.002 -0.004,-0.006 -0.005,-0.008 -0.044,0.002 -0.09,0.002 -0.14,0.002 -0.397,0 -3.647,-0.27 -4.351,-0.592 -0.014,-0.006 -0.026,-0.012 -0.041,-0.02 -0.025,-0.015 -0.047,-0.027 -0.062,-0.043 -0.643,-0.49 -2.434,-3.302 -2.568,-3.552 -0.024,-0.045 -0.046,-0.09 -0.064,-0.129 -0.554,-0.045 -3.698,-0.631 -4.394,-1.015 -0.119,-0.021 -0.296,-0.182 -1.02,-1.418 -0.455,-0.774 -0.915,-1.625 -1.169,-2.159 -0.091,-0.188 -0.151,-0.33 -0.188,-0.437 -0.73,-0.149 -4.075,-1.123 -4.369,-1.514 -0.185,-0.195 -0.542,-0.803 -1.34,-2.711 -0.332,-0.791 -0.479,-1.207 -0.531,-1.438 -0.744,-0.228 -3.553,-1.357 -4.114,-1.834 -0.115,-0.052 -0.248,-0.277 -0.605,-1.275 -0.563,-1.572 -0.867,-2.615 -0.909,-3.123 -0.756,-0.281 -3.474,-1.766 -3.951,-2.25 -0.104,-0.072 -0.167,-0.248 -0.263,-0.563 -0.01,-0.031 -0.832,-2.935 -0.808,-3.949 -0.784,-0.365 -3.314,-2.152 -3.714,-2.635 -0.083,-0.074 -0.117,-0.212 -0.145,-0.32 -0.01,-0.037 -0.6,-3.232 -0.472,-4.273 -0.792,-0.467 -3.233,-2.568 -3.461,-3.014 -0.044,-0.066 -0.061,-0.148 -0.07,-0.191 -0.007,-0.037 -0.283,-3.352 -0.065,-4.4 -0.794,-0.543 -3.012,-3.006 -3.158,-3.352 -0.018,-0.035 -0.031,-0.08 -0.04,-0.137 -0.005,-0.037 0.041,-3.434 0.364,-4.451 -0.761,-0.645 -2.78,-3.371 -2.82,-3.643 -0.011,-0.025 -0.018,-0.06 -0.021,-0.099 0,0 10e-4,-0.016 0.003,-0.045 l -0.006,-0.047 0.012,-0.004 c 0.058,-0.569 0.398,-3.478 0.79,-4.351 -0.73,-0.707 -2.197,-3.366 -2.424,-3.809 -0.008,-0.012 -0.015,-0.023 -0.02,-0.037 -0.007,-0.016 -0.011,-0.023 -0.011,-0.023 l -10e-4,-0.012 c -0.005,-0.022 -0.009,-0.047 -0.01,-0.072 0,-0.002 0.001,-0.008 0.003,-0.022 l -0.006,-0.092 0.025,-0.006 c 0.126,-0.625 0.738,-3.425 1.207,-4.252 -0.702,-0.832 -2.06,-4.044 -2.06,-4.08 l -0.007,-0.209 0.035,-0.007 c 0.159,-0.938 1.351,-3.702 1.56,-4.065 0.013,-0.02 0.025,-0.041 0.037,-0.061 -0.619,-0.916 -1.63,-4.186 -1.63,-4.221 v -0.215 l 0.061,-0.012 c 0.269,-0.646 1.396,-3.229 1.997,-3.945 -0.462,-0.832 -1.061,-3.553 -1.194,-4.213 l -0.02,-0.002 10e-4,-0.09 c -0.007,-0.033 -0.01,-0.051 -0.01,-0.055 10e-4,-0.025 0.005,-0.051 0.011,-0.072 v -0.01 c 0,0 0.004,-0.01 0.009,-0.021 0.009,-0.018 0.017,-0.035 0.025,-0.047 0.242,-0.469 1.719,-3.15 2.409,-3.828 -0.382,-0.887 -0.714,-3.691 -0.777,-4.305 h -0.002 v -0.018 c -0.006,-0.063 -0.009,-0.098 -0.009,-0.1 0.004,-0.039 0.011,-0.07 0.021,-0.098 0.04,-0.271 2.06,-2.996 2.82,-3.643 -0.323,-1.02 -0.369,-4.412 -0.364,-4.451 0.009,-0.057 0.022,-0.102 0.041,-0.137 0.146,-0.346 2.365,-2.811 3.157,-3.35 -0.217,-1.051 0.059,-4.361 0.065,-4.4 0.009,-0.043 0.024,-0.125 0.068,-0.191 0.226,-0.443 2.671,-2.549 3.463,-3.016 -0.128,-1.041 0.462,-4.234 0.471,-4.271 0.028,-0.107 0.063,-0.244 0.146,-0.322 0.397,-0.48 2.931,-2.27 3.715,-2.635 -0.024,-1.016 0.795,-3.912 0.806,-3.945 0.096,-0.316 0.16,-0.492 0.264,-0.564 0.476,-0.486 3.183,-1.963 3.944,-2.25 0.034,-0.383 0.234,-1.221 0.909,-3.109 0.363,-1.014 0.497,-1.24 0.612,-1.293 0.562,-0.473 3.367,-1.605 4.113,-1.832 0.047,-0.211 0.176,-0.574 0.448,-1.238 0.817,-1.99 1.21,-2.662 1.409,-2.887 v -0.002 c 0.168,-0.371 3.639,-1.381 4.384,-1.533 0.036,-0.107 0.097,-0.246 0.188,-0.436 0.255,-0.537 0.714,-1.385 1.169,-2.162 0.725,-1.236 0.9,-1.396 1.02,-1.418 0.695,-0.383 3.841,-0.969 4.394,-1.012 0.019,-0.039 0.04,-0.082 0.064,-0.127 0.135,-0.252 1.928,-3.068 2.569,-3.557 0.014,-0.014 0.034,-0.025 0.058,-0.039 0.016,-0.01 0.03,-0.016 0.044,-0.023 0.707,-0.32 3.953,-0.59 4.351,-0.59 0.05,0 0.096,0 0.14,0.002 0.001,-0.004 0.003,-0.006 0.005,-0.008 0.188,-0.314 2.647,-3.406 3.101,-3.451 0.386,-0.133 1.431,-0.199 3.119,-0.199 0.763,0 1.169,0.02 1.394,0.057 0.353,-0.445 2.678,-2.811 3.308,-3.111 0.086,-0.064 0.239,-0.08 0.596,-0.08 0.034,0 3.037,0.057 4.012,0.373 0.438,-0.461 3.089,-2.656 3.644,-2.805 0.064,-0.025 0.14,-0.027 0.209,-0.027 0.037,0 3.311,0.379 4.311,0.791 0.532,-0.482 3.441,-2.406 3.917,-2.443 0.043,-0.014 0.083,-0.014 0.104,-0.014 0.004,0 0.023,0.004 0.06,0.014 l 0.038,0.006 c 0.559,0.113 3.352,0.723 4.219,1.197 0.624,-0.461 3.675,-2.045 4.115,-2.045 h 0.022 c 0.016,-0.002 0.032,-0.004 0.049,-0.004 0.001,0 0.006,0.002 0.015,0.004 h 0.12 l 0.005,0.037 c 0.645,0.195 3.324,1.059 4.105,1.604 0.883,-0.617 4.203,-1.646 4.241,-1.646 l 0.1,0.006 c 0.527,0.059 3.477,1.592 4.088,2.043 0.961,-0.525 4.278,-1.217 4.316,-1.217 0.021,0 0.061,0 0.104,0.014 0.475,0.037 3.371,1.953 3.913,2.439 0.995,-0.42 4.276,-0.787 4.313,-0.787 0.07,0 0.148,0.002 0.216,0.033 0.543,0.162 3.175,2.289 3.638,2.799 0.977,-0.316 3.979,-0.373 4.014,-0.373 0.355,0 0.509,0.016 0.596,0.08 0.63,0.301 2.955,2.666 3.308,3.111 0.226,-0.037 0.632,-0.057 1.394,-0.057 1.688,0 2.734,0.066 3.119,0.199 0.453,0.045 2.914,3.137 3.103,3.451 0.001,0.002 0.002,0.004 0.004,0.008 0.043,-0.002 0.09,-0.002 0.14,-0.002 0.396,0 3.643,0.27 4.351,0.59 0.013,0.008 0.028,0.014 0.045,0.023 0.022,0.012 0.043,0.025 0.058,0.039 0.641,0.488 2.434,3.305 2.568,3.557 0.025,0.045 0.047,0.088 0.064,0.127 0.552,0.043 3.697,0.629 4.395,1.012 0.12,0.021 0.295,0.182 1.02,1.418 0.455,0.777 0.914,1.625 1.17,2.158 0.09,0.193 0.15,0.332 0.188,0.439 0.744,0.152 4.213,1.162 4.382,1.533 v 0.002 c 0.2,0.225 0.593,0.9 1.411,2.893 0.271,0.66 0.398,1.023 0.447,1.232 0.744,0.227 3.551,1.359 4.113,1.832 0.115,0.053 0.248,0.279 0.612,1.299 0.675,1.885 0.873,2.721 0.907,3.104 0.764,0.287 3.471,1.764 3.945,2.25 0.104,0.07 0.169,0.248 0.264,0.564 0.012,0.033 0.83,2.93 0.807,3.945 0.784,0.365 3.314,2.152 3.715,2.635 0.082,0.078 0.117,0.213 0.144,0.322 0.01,0.037 0.601,3.232 0.472,4.271 0.791,0.469 3.238,2.572 3.463,3.014 0.045,0.068 0.061,0.148 0.068,0.193 0.01,0.037 0.282,3.35 0.064,4.4 0.793,0.539 3.013,3.006 3.158,3.35 0.018,0.035 0.031,0.08 0.039,0.137 0.006,0.039 -0.039,3.432 -0.361,4.451 0.761,0.646 2.775,3.371 2.818,3.643 0.01,0.027 0.016,0.059 0.021,0.098 0,0.002 0,0.02 -0.003,0.045 l 0.006,0.049 -0.012,0.002 c -0.058,0.568 -0.396,3.475 -0.789,4.35 0.731,0.707 2.199,3.373 2.425,3.811 0.008,0.014 0.014,0.025 0.021,0.039 0.006,0.014 0.01,0.021 0.01,0.023 l 0.002,0.012 c 0.004,0.021 0.009,0.045 0.011,0.07 0,0.004 -0.002,0.01 -0.004,0.025 l 0.007,0.09 -0.025,0.008 c -0.125,0.623 -0.738,3.42 -1.207,4.248 0.702,0.834 2.059,4.043 2.06,4.08 l 0.006,0.211 -0.036,0.006 c -0.166,0.951 -1.408,3.807 -1.559,4.066 -0.012,0.021 -0.023,0.043 -0.037,0.063 0.616,0.919 1.628,4.183 1.628,4.222 z"
       id="path3063"
       inkscape:connector-curvature="0"
       style="fill:#00adee" /><g
       id="g3065"><path
         d="m 104.389,152.273 c -0.035,-0.013 -0.07,-0.023 -0.104,-0.035 -0.067,0.004 -0.114,0.047 -0.143,0.129 -0.024,0.07 -0.049,0.139 -0.071,0.209 -0.041,0.189 -0.063,0.295 -0.07,0.316 -0.009,0.021 -0.016,0.043 -0.022,0.063 -0.031,0.09 -0.066,0.158 -0.108,0.196 -0.004,0.095 -0.025,0.188 -0.058,0.283 -0.06,0.172 -0.117,0.342 -0.177,0.515 -0.019,0.055 -0.008,0.102 0.034,0.137 0.023,0.008 0.048,0.019 0.071,0.024 0.24,0.082 0.422,-0.061 0.544,-0.424 0.051,-0.151 0.102,-0.301 0.151,-0.451 0.13,-0.504 0.172,-0.764 0.125,-0.78 -0.047,-0.096 -0.105,-0.158 -0.172,-0.182 z"
         id="path3067"
         inkscape:connector-curvature="0"
         style="fill:#00adee" /><path
         d="m 119.577,155.361 c -0.007,0 -0.011,0 -0.019,0 -0.121,-0.012 -0.208,0.078 -0.262,0.266 -0.032,0.35 -0.064,0.697 -0.097,1.045 -0.015,0.139 -0.028,0.223 -0.044,0.252 0.001,0.127 -0.003,0.238 -0.012,0.34 -0.108,1.158 -0.217,2.318 -0.323,3.479 -0.019,0.473 0.054,0.719 0.213,0.731 0.014,0.002 0.025,0.002 0.039,0.004 0.177,-0.033 0.271,-0.127 0.284,-0.28 0.142,-1.669 0.282,-3.334 0.424,-5 -0.011,-0.166 -0.015,-0.259 -0.014,-0.273 0.007,-0.084 0.014,-0.17 0.021,-0.254 -0.018,-0.196 -0.089,-0.298 -0.21,-0.31 z"
         id="path3069"
         inkscape:connector-curvature="0"
         style="fill:#00adee" /><path
         d="m 96.92,149.043 c -0.113,-0.053 -0.228,-0.004 -0.346,0.152 -0.155,0.313 -0.312,0.629 -0.467,0.943 -0.061,0.122 -0.104,0.194 -0.13,0.219 -0.044,0.117 -0.088,0.221 -0.133,0.313 -0.517,1.043 -1.032,2.088 -1.548,3.131 -0.188,0.438 -0.205,0.691 -0.06,0.764 0.013,0.006 0.024,0.013 0.037,0.019 0.181,0.035 0.306,-0.019 0.372,-0.158 0.729,-1.506 1.458,-3.01 2.186,-4.516 0.05,-0.158 0.078,-0.246 0.085,-0.263 0.037,-0.076 0.074,-0.151 0.11,-0.229 0.051,-0.189 0.02,-0.311 -0.092,-0.365 -0.003,-0.004 -0.01,-0.006 -0.014,-0.01 z"
         id="path3071"
         inkscape:connector-curvature="0"
         style="fill:#00adee" /><path
         d="m 162.689,146.666 c -0.107,-0.131 -0.178,-0.188 -0.207,-0.166 -0.008,0.002 -0.012,0.008 -0.02,0.01 0.012,0.027 0.023,0.055 0.032,0.082 0.022,0.033 0.044,0.066 0.067,0.098 0.34,0.675 0.57,1.105 0.691,1.289 -0.018,0.015 0.008,0.078 0.081,0.193 0.013,0.02 0.024,0.037 0.037,0.057 0.051,0.074 0.131,0.074 0.244,0 0.026,-0.02 0.055,-0.037 0.083,-0.057 0.111,-0.076 0.14,-0.156 0.085,-0.242 -0.369,-0.403 -0.733,-0.825 -1.093,-1.264 z"
         id="path3073"
         inkscape:connector-curvature="0"
         style="fill:#00adee" /><g
         id="g3075"><path
           d="m 205.107,94.847 c 0.143,-0.244 1.3,-2.904 1.455,-3.791 l 0.033,-0.006 -0.006,-0.195 c -0.001,-0.035 -1.265,-3.027 -1.92,-3.805 0.438,-0.771 1.01,-3.379 1.125,-3.959 L 205.817,83.083 205.814,83 c 0,-0.014 0.002,-0.02 0.002,-0.023 -0.002,-0.023 -0.004,-0.045 -0.01,-0.066 l -0.002,-0.01 c 0,-0.002 -0.003,-0.01 -0.008,-0.023 -0.008,-0.012 -0.012,-0.023 -0.02,-0.035 -0.211,-0.408 -1.577,-2.893 -2.26,-3.553 0.365,-0.814 0.683,-3.521 0.734,-4.053 l 0.01,-0.002 -0.004,-0.047 c 0.002,-0.021 0.002,-0.039 0.002,-0.041 -0.004,-0.035 -0.01,-0.064 -0.019,-0.09 -0.039,-0.254 -1.919,-2.793 -2.628,-3.396 0.301,-0.951 0.344,-4.111 0.338,-4.148 -0.008,-0.053 -0.021,-0.094 -0.037,-0.127 -0.137,-0.322 -2.204,-2.621 -2.941,-3.123 0.2,-0.979 -0.055,-4.066 -0.063,-4.102 -0.008,-0.041 -0.021,-0.115 -0.063,-0.18 -0.211,-0.412 -2.492,-2.373 -3.229,-2.809 0.12,-0.969 -0.431,-3.947 -0.438,-3.982 -0.025,-0.102 -0.058,-0.229 -0.135,-0.299 -0.372,-0.451 -2.73,-2.117 -3.461,-2.457 0.021,-0.945 -0.742,-3.648 -0.752,-3.678 -0.089,-0.295 -0.148,-0.461 -0.245,-0.525 -0.442,-0.453 -2.967,-1.83 -3.678,-2.096 -0.032,-0.359 -0.22,-1.139 -0.847,-2.895 -0.34,-0.949 -0.465,-1.162 -0.571,-1.211 -0.524,-0.441 -3.14,-1.496 -3.833,-1.707 -0.047,-0.197 -0.164,-0.535 -0.418,-1.148 -0.764,-1.859 -1.129,-2.488 -1.315,-2.695 v -0.004 c -0.155,-0.346 -3.391,-1.285 -4.084,-1.43 -0.032,-0.1 -0.091,-0.229 -0.175,-0.408 -0.236,-0.498 -0.666,-1.287 -1.09,-2.014 -0.676,-1.15 -0.838,-1.301 -0.95,-1.318 -0.649,-0.359 -3.581,-0.904 -4.097,-0.945 -0.016,-0.035 -0.036,-0.076 -0.059,-0.119 -0.128,-0.234 -1.798,-2.859 -2.396,-3.314 -0.015,-0.012 -0.033,-0.025 -0.054,-0.035 -0.017,-0.008 -0.029,-0.016 -0.043,-0.021 -0.658,-0.299 -3.686,-0.551 -4.056,-0.551 -0.045,0 -0.088,0 -0.129,0.002 -0.002,-0.004 -0.003,-0.004 -0.004,-0.008 -0.175,-0.293 -2.468,-3.176 -2.892,-3.217 -0.358,-0.123 -1.334,-0.186 -2.907,-0.186 -0.71,0 -1.089,0.018 -1.298,0.053 -0.328,-0.414 -2.496,-2.619 -3.084,-2.9 -0.08,-0.059 -0.223,-0.072 -0.555,-0.072 -0.031,0 -2.83,0.051 -3.74,0.346 -0.432,-0.475 -2.885,-2.457 -3.392,-2.609 -0.062,-0.029 -0.135,-0.031 -0.2,-0.031 -0.035,0 -3.094,0.344 -4.021,0.736 -0.507,-0.455 -3.206,-2.242 -3.647,-2.275 -0.041,-0.012 -0.078,-0.012 -0.098,-0.012 -0.035,0 -3.127,0.645 -4.021,1.133 -0.57,-0.42 -3.319,-1.85 -3.812,-1.904 l -0.093,-0.004 c -0.036,0 -3.131,0.957 -3.954,1.533 -0.728,-0.51 -3.226,-1.314 -3.825,-1.496 l -0.006,-0.035 h -0.111 c -0.008,-0.002 -0.013,-0.002 -0.014,-0.002 -0.016,0 -0.03,0 -0.046,0.002 h -0.021 c -0.41,0 -3.254,1.477 -3.836,1.906 -0.809,-0.441 -3.411,-1.01 -3.933,-1.115 l -0.035,-0.006 c -0.034,-0.01 -0.052,-0.012 -0.056,-0.012 -0.02,0 -0.056,0 -0.096,0.012 -0.443,0.033 -3.155,1.828 -3.652,2.277 -0.932,-0.383 -3.982,-0.738 -4.017,-0.738 -0.064,0 -0.135,0.002 -0.195,0.027 -0.518,0.137 -2.987,2.184 -3.396,2.613 -0.909,-0.295 -3.708,-0.346 -3.74,-0.346 -0.332,0 -0.475,0.014 -0.555,0.072 -0.587,0.281 -2.754,2.486 -3.083,2.9 -0.209,-0.035 -0.589,-0.053 -1.299,-0.053 -1.574,0 -2.548,0.063 -2.908,0.186 -0.421,0.041 -2.714,2.924 -2.89,3.217 -0.002,0.004 -0.003,0.004 -0.005,0.008 -0.04,-0.002 -0.084,-0.002 -0.13,-0.002 -0.369,0 -3.396,0.252 -4.055,0.551 -0.013,0.006 -0.027,0.014 -0.042,0.021 -0.021,0.012 -0.04,0.023 -0.053,0.035 -0.599,0.455 -2.27,3.08 -2.396,3.314 -0.022,0.043 -0.043,0.084 -0.06,0.119 -0.515,0.041 -3.446,0.586 -4.095,0.945 -0.112,0.018 -0.275,0.168 -0.95,1.318 -0.425,0.727 -0.853,1.516 -1.09,2.018 -0.085,0.176 -0.142,0.305 -0.175,0.404 -0.695,0.145 -3.931,1.084 -4.086,1.43 v 0.004 c -0.186,0.207 -0.552,0.834 -1.313,2.689 -0.255,0.619 -0.374,0.957 -0.418,1.154 -0.695,0.211 -3.312,1.266 -3.834,1.707 -0.107,0.049 -0.232,0.262 -0.571,1.205 -0.629,1.76 -0.815,2.541 -0.847,2.9 -0.711,0.266 -3.233,1.643 -3.677,2.096 -0.098,0.068 -0.157,0.23 -0.246,0.525 -0.011,0.031 -0.773,2.732 -0.751,3.678 -0.73,0.34 -3.092,2.008 -3.463,2.457 -0.077,0.07 -0.109,0.199 -0.135,0.299 -0.009,0.035 -0.559,3.012 -0.439,3.982 -0.738,0.434 -3.018,2.396 -3.228,2.811 -0.041,0.063 -0.056,0.137 -0.063,0.178 -0.007,0.037 -0.264,3.123 -0.062,4.102 -0.738,0.502 -2.806,2.799 -2.942,3.123 -0.018,0.033 -0.03,0.074 -0.038,0.127 -0.005,0.037 0.038,3.197 0.34,4.148 -0.71,0.604 -2.592,3.143 -2.63,3.396 -0.01,0.025 -0.016,0.055 -0.02,0.09 0,0.002 0.003,0.035 0.009,0.092 l -10e-4,0.018 h 0.002 c 0.06,0.572 0.369,3.186 0.726,4.012 -0.645,0.633 -2.021,3.133 -2.246,3.568 -0.009,0.012 -0.016,0.027 -0.024,0.045 -0.004,0.01 -0.008,0.02 -0.008,0.02 v 0.008 c -0.006,0.021 -0.009,0.045 -0.01,0.068 0,0.004 0.003,0.02 0.01,0.051 l -0.002,0.084 h 0.019 c 0.124,0.617 0.683,3.154 1.113,3.93 -0.561,0.668 -1.611,3.074 -1.861,3.678 l -0.057,0.008 v 0.201 c 0,0.035 0.942,3.082 1.52,3.936 -0.012,0.018 -0.023,0.039 -0.034,0.057 -0.196,0.338 -1.307,2.917 -1.454,3.79 l -0.033,0.006 0.006,0.193 c 0,0.034 1.266,3.028 1.921,3.807 -0.438,0.771 -1.009,3.38 -1.126,3.959 l -0.023,0.009 0.006,0.086 c -0.002,0.014 -0.003,0.018 -0.003,0.02 10e-4,0.025 0.004,0.047 0.01,0.068 v 0.012 c 0,0 0.004,0.008 0.011,0.021 0.005,0.012 0.01,0.024 0.018,0.034 0.212,0.41 1.579,2.892 2.259,3.552 -0.365,0.813 -0.683,3.521 -0.735,4.053 l -0.011,0.004 0.005,0.043 c -0.002,0.027 -0.003,0.043 -0.003,0.043 0.004,0.037 0.01,0.066 0.02,0.092 0.038,0.252 1.92,2.793 2.63,3.395 -0.302,0.949 -0.345,4.113 -0.34,4.15 0.008,0.051 0.021,0.094 0.037,0.127 0.137,0.32 2.204,2.617 2.943,3.121 -0.203,0.979 0.055,4.068 0.062,4.102 0.008,0.041 0.024,0.119 0.064,0.183 0.213,0.412 2.488,2.373 3.227,2.81 -0.119,0.969 0.431,3.946 0.439,3.981 0.025,0.103 0.058,0.229 0.135,0.299 0.372,0.449 2.731,2.115 3.462,2.457 -0.022,0.943 0.744,3.649 0.753,3.681 0.089,0.293 0.147,0.457 0.245,0.522 0.445,0.451 2.978,1.836 3.683,2.099 0.039,0.475 0.323,1.444 0.848,2.909 0.333,0.933 0.457,1.144 0.564,1.188 0.522,0.443 3.142,1.498 3.835,1.709 0.048,0.216 0.186,0.604 0.494,1.341 0.744,1.778 1.078,2.346 1.25,2.526 0.272,0.365 3.392,1.271 4.072,1.412 0.033,0.101 0.09,0.229 0.175,0.404 0.236,0.5 0.665,1.291 1.09,2.014 0.674,1.152 0.838,1.303 0.95,1.322 0.647,0.357 3.579,0.904 4.095,0.945 0.017,0.037 0.037,0.078 0.06,0.119 0.126,0.234 1.796,2.854 2.395,3.311 0.014,0.014 0.033,0.027 0.057,0.039 0.014,0.008 0.026,0.014 0.038,0.02 0.656,0.3 3.687,0.552 4.056,0.552 0.046,0 0.09,0 0.13,0 0.002,0 0.003,0.004 0.005,0.006 0.177,0.295 2.473,3.185 2.891,3.219 0.36,0.121 1.326,0.183 2.886,0.183 0.721,0 1.107,-0.021 1.319,-0.053 0.322,0.409 2.489,2.614 3.081,2.899 0.073,0.058 0.208,0.078 0.56,0.078 0.034,0 2.829,-0.054 3.738,-0.349 0.406,0.428 2.878,2.476 3.396,2.611 0.061,0.025 0.131,0.029 0.195,0.029 0.036,0 3.091,-0.342 4.02,-0.734 0.517,0.471 3.244,2.23 3.648,2.27 0.041,0.013 0.077,0.013 0.098,0.013 0.034,0 3.126,-0.642 4.021,-1.129 0.571,0.42 3.319,1.85 3.812,1.903 l 0.006,0.006 h 0.086 c 0.036,0 3.089,-0.944 3.938,-1.524 0.219,0.146 0.701,0.373 1.768,0.795 0.279,0.111 1.585,0.619 2.078,0.716 l 0.078,0.012 c 0.037,0.004 0.065,0.002 0.095,0 h 0.021 c 0.41,0 3.254,-1.478 3.838,-1.906 0.809,0.439 3.41,1.008 3.931,1.111 l 0.034,0.006 c 0.033,0.008 0.054,0.012 0.057,0.012 0.02,0 0.057,0 0.098,-0.012 0.402,-0.039 3.131,-1.799 3.647,-2.271 0.929,0.394 3.983,0.734 4.021,0.734 0.065,0 0.14,-0.005 0.201,-0.031 0.506,-0.151 2.959,-2.135 3.391,-2.608 0.91,0.295 3.705,0.348 3.738,0.348 0.352,0 0.485,-0.021 0.56,-0.078 0.591,-0.285 2.758,-2.49 3.082,-2.9 0.212,0.033 0.598,0.053 1.319,0.053 1.559,0 2.524,-0.061 2.885,-0.182 0.419,-0.035 2.717,-2.926 2.892,-3.219 0.001,-0.002 0.002,-0.006 0.004,-0.006 0.041,0 0.084,0 0.13,0 0.372,0 3.418,-0.256 4.063,-0.553 0.005,-0.004 0.01,-0.006 0.015,-0.01 0.037,-0.017 0.063,-0.033 0.081,-0.054 0.604,-0.478 2.268,-3.08 2.389,-3.308 0.021,-0.043 0.043,-0.079 0.06,-0.116 0.516,-0.041 3.446,-0.588 4.096,-0.945 0.113,-0.021 0.275,-0.17 0.953,-1.327 0.429,-0.73 0.854,-1.521 1.091,-2.017 0.081,-0.172 0.139,-0.302 0.172,-0.396 0.687,-0.144 3.856,-1.066 4.076,-1.422 0.178,-0.193 0.52,-0.781 1.262,-2.562 0.297,-0.709 0.431,-1.086 0.478,-1.298 0.692,-0.211 3.312,-1.268 3.835,-1.709 0.107,-0.049 0.232,-0.264 0.578,-1.229 0.213,-0.594 0.777,-2.176 0.835,-2.868 0.704,-0.263 3.239,-1.646 3.683,-2.099 0.098,-0.067 0.158,-0.233 0.248,-0.531 0.15,-0.508 0.369,-1.411 0.542,-2.258 0.159,-0.793 0.222,-1.201 0.228,-1.426 0.752,-0.357 3.076,-2.002 3.441,-2.445 0.077,-0.071 0.109,-0.198 0.135,-0.305 0.01,-0.033 0.564,-3.011 0.439,-3.979 0.741,-0.438 3.016,-2.396 3.227,-2.807 0.041,-0.066 0.057,-0.141 0.063,-0.184 0.008,-0.033 0.263,-3.119 0.062,-4.101 0.739,-0.504 2.813,-2.807 2.942,-3.123 0.017,-0.03 0.03,-0.075 0.037,-0.127 0.006,-0.035 -0.039,-3.196 -0.339,-4.147 0.709,-0.603 2.593,-3.146 2.629,-3.396 0.009,-0.026 0.016,-0.058 0.02,-0.092 0,-0.002 -0.002,-0.037 -0.009,-0.093 l 0.001,-0.018 h -0.003 c -0.06,-0.568 -0.366,-3.182 -0.724,-4.012 0.643,-0.629 2.02,-3.129 2.244,-3.564 0.011,-0.014 0.019,-0.029 0.025,-0.045 0.004,-0.012 0.008,-0.02 0.008,-0.021 v -0.009 c 0.006,-0.021 0.01,-0.045 0.012,-0.069 0,-0.002 -0.004,-0.021 -0.01,-0.049 v -0.084 h -0.019 c -0.125,-0.617 -0.683,-3.156 -1.112,-3.931 0.561,-0.668 1.61,-3.076 1.859,-3.678 l 0.059,-0.01 V 98.84 c 0,-0.037 -0.943,-3.08 -1.521,-3.932 0.011,-0.022 0.024,-0.043 0.031,-0.061 z m -141.668,3.401 1.059,4.885 -4.322,-2.516 -4.318,2.516 1.057,-4.885 -3.729,-3.332 4.975,-0.506 2.016,-4.574 2.019,4.574 4.972,0.506 -3.729,3.332 z m 80.034,-49.213 c 0.264,-0.445 0.658,-0.669 1.188,-0.669 h 9.979 c 0.232,0 0.467,0.085 0.703,0.257 0.233,0.172 0.41,0.395 0.527,0.669 l 7.957,19.976 7.648,-19.976 c 0.088,-0.24 0.256,-0.454 0.506,-0.644 0.248,-0.188 0.49,-0.283 0.727,-0.283 h 9.582 c 0.557,0 0.96,0.231 1.21,0.695 0.248,0.463 0.256,0.987 0.022,1.57 l -16.004,37.893 c -0.117,0.241 -0.301,0.446 -0.549,0.618 -0.248,0.171 -0.478,0.257 -0.682,0.257 h -5.76 c -0.207,0 -0.439,-0.095 -0.703,-0.283 -0.264,-0.189 -0.439,-0.403 -0.527,-0.644 L 143.428,50.578 c -0.235,-0.582 -0.22,-1.096 0.045,-1.543 z m -21.955,-22.322 2.017,-4.576 2.018,4.576 4.975,0.504 -3.729,3.332 1.062,4.887 -4.323,-2.516 -4.32,2.516 1.058,-4.887 -3.729,-3.332 4.971,-0.504 z m -9.655,23.249 c 0,-0.412 0.132,-0.772 0.396,-1.082 0.264,-0.308 0.572,-0.463 0.923,-0.463 h 25.63 c 0.352,0 0.658,0.155 0.922,0.463 0.266,0.31 0.396,0.669 0.396,1.082 v 7.517 c 0,0.446 -0.131,0.824 -0.396,1.132 -0.264,0.309 -0.57,0.463 -0.922,0.463 h -14.771 v 4.12 h 12.617 c 0.351,0 0.658,0.154 0.923,0.463 0.265,0.309 0.396,0.669 0.396,1.082 v 7.413 c 0,0.447 -0.131,0.824 -0.396,1.133 -0.265,0.309 -0.572,0.463 -0.923,0.463 l -12.617,0.051 v 4.325 h 15.958 c 0.379,0 0.694,0.155 0.944,0.463 0.248,0.309 0.373,0.687 0.373,1.132 v 7.517 c 0,0.412 -0.125,0.773 -0.373,1.081 -0.25,0.309 -0.565,0.463 -0.944,0.463 h -26.817 c -0.351,0 -0.659,-0.155 -0.923,-0.463 -0.264,-0.308 -0.396,-0.669 -0.396,-1.081 V 49.962 z M 70.113,88.318 C 69.849,88.01 69.717,87.649 69.717,87.237 V 49.962 c 0,-0.412 0.132,-0.772 0.396,-1.082 0.264,-0.308 0.585,-0.463 0.968,-0.463 h 19.167 c 5.245,0 9.51,1.872 12.793,5.612 3.254,3.707 4.879,8.564 4.879,14.57 0,5.869 -1.642,10.708 -4.923,14.519 -3.254,3.775 -7.445,5.663 -12.573,5.663 H 71.081 c -0.383,0 -0.704,-0.155 -0.968,-0.463 z m 21.83,56.807 c -0.359,0.582 -0.719,1.164 -1.078,1.744 -0.08,0.178 -0.124,0.275 -0.136,0.297 -0.929,1.504 -1.857,3.01 -2.785,4.516 -0.077,0.178 -0.121,0.277 -0.134,0.295 -0.016,0.025 -0.03,0.049 -0.045,0.074 -0.07,0.115 -0.178,0.129 -0.32,0.039 -0.501,-0.311 -0.998,-0.627 -1.492,-0.953 -0.13,-0.084 -0.153,-0.229 -0.07,-0.432 0.332,-1.162 0.68,-2.318 1.043,-3.465 0.013,-0.102 0.011,-0.158 -0.006,-0.168 -0.007,-0.006 -0.011,-0.01 -0.017,-0.012 -0.073,0.059 -0.145,0.141 -0.216,0.241 -0.361,0.527 -0.723,1.054 -1.084,1.578 -0.035,0.05 -0.09,0.154 -0.169,0.316 -0.058,0.088 -0.109,0.149 -0.15,0.184 -0.077,0.142 -0.158,0.271 -0.242,0.392 -0.109,0.158 -0.218,0.315 -0.325,0.475 -0.045,0.066 -0.108,0.07 -0.189,0.016 -0.443,-0.307 -0.883,-0.617 -1.32,-0.934 -0.091,-0.066 -0.111,-0.135 -0.059,-0.209 1.63,-2.246 3.263,-4.49 4.894,-6.734 0.053,-0.074 0.129,-0.072 0.23,0 0.441,0.318 0.885,0.631 1.332,0.937 0.123,0.086 0.131,0.204 0.022,0.364 -0.125,0.451 -0.293,0.984 -0.505,1.603 -0.063,0.276 -0.146,0.541 -0.249,0.791 -0.105,0.385 -0.212,0.771 -0.313,1.153 0.01,0.021 0.021,0.039 0.03,0.062 0.09,-0.09 0.206,-0.244 0.348,-0.461 0.291,-0.444 0.58,-0.892 0.871,-1.336 0.141,-0.283 0.226,-0.447 0.248,-0.483 0.161,-0.246 0.322,-0.492 0.483,-0.738 0.1,-0.15 0.195,-0.195 0.288,-0.137 0.364,0.237 0.73,0.471 1.098,0.698 0.094,0.057 0.099,0.152 0.017,0.287 z m 6.669,5.148 c -0.777,1.725 -1.556,3.451 -2.334,5.176 -0.105,0.234 -0.318,0.441 -0.642,0.621 -0.341,0.145 -0.748,0.17 -1.219,0.068 -0.207,-0.05 -0.361,-0.099 -0.461,-0.146 -0.199,-0.096 -0.399,-0.193 -0.601,-0.293 -0.307,-0.152 -0.604,-0.414 -0.884,-0.789 -0.313,-0.545 -0.339,-1.053 -0.092,-1.52 -0.012,-0.009 10e-4,-0.046 0.036,-0.113 0.894,-1.689 1.787,-3.377 2.68,-5.066 0.199,-0.373 0.573,-0.604 1.118,-0.697 0.389,-0.002 0.69,0.049 0.908,0.156 0.262,0.131 0.525,0.26 0.789,0.387 0.278,0.135 0.521,0.394 0.728,0.773 0.218,0.434 0.213,0.916 -0.026,1.443 z m 7.588,3.016 c -0.083,0.27 -0.166,0.541 -0.249,0.811 -0.246,0.537 -0.407,0.797 -0.477,0.775 -0.057,0.072 -0.178,0.166 -0.366,0.275 -0.002,0.006 -0.005,0.012 -0.006,0.016 -0.012,0.039 0.023,0.139 0.107,0.301 0.136,0.293 0.151,0.619 0.044,0.973 0.014,0.002 0.007,0.043 -0.017,0.117 -0.209,0.688 -0.42,1.375 -0.631,2.06 -0.126,0.539 -0.153,0.84 -0.083,0.897 -0.005,0.039 -0.009,0.078 -0.014,0.119 -0.014,0.043 -0.027,0.086 -0.039,0.129 -0.033,0.037 -0.085,0.045 -0.158,0.023 -0.183,-0.057 -0.364,-0.111 -0.547,-0.17 -0.228,-0.047 -0.356,-0.076 -0.382,-0.086 -0.183,-0.06 -0.364,-0.117 -0.546,-0.176 -0.169,-0.058 -0.232,-0.256 -0.19,-0.601 0.002,-0.047 0.011,-0.092 0.024,-0.137 0.217,-0.646 0.436,-1.295 0.652,-1.943 0.174,-0.633 0.234,-0.959 0.183,-0.977 -0.025,-0.128 -0.111,-0.216 -0.259,-0.267 -0.064,-0.022 -0.12,0.021 -0.166,0.123 -0.387,1.121 -0.772,2.242 -1.158,3.365 -0.026,0.074 -0.086,0.096 -0.176,0.064 -0.498,-0.172 -0.994,-0.351 -1.489,-0.535 -0.09,-0.033 -0.122,-0.088 -0.095,-0.162 0.069,-0.186 0.139,-0.369 0.209,-0.555 0.042,-0.189 0.066,-0.295 0.074,-0.314 0.599,-1.6 1.197,-3.197 1.797,-4.795 0.005,-0.016 0.041,-0.148 0.107,-0.395 0.217,-0.576 0.434,-1.154 0.649,-1.73 0.032,-0.086 0.1,-0.107 0.2,-0.068 0.646,0.238 1.295,0.469 1.946,0.688 0.39,0.131 0.705,0.362 0.953,0.7 0.186,0.349 0.254,0.671 0.196,0.968 -0.028,0.173 -0.061,0.339 -0.093,0.507 z m 7.389,0.801 c -0.026,0.145 -0.054,0.289 -0.081,0.434 -0.012,0.078 -0.063,0.109 -0.146,0.095 -0.324,-0.062 -0.648,-0.125 -0.971,-0.188 -0.079,-0.019 -0.137,-0.005 -0.177,0.032 -0.024,0.187 -0.048,0.324 -0.066,0.418 -0.098,0.472 -0.194,0.94 -0.292,1.41 -0.016,0.078 0.037,0.131 0.162,0.153 0.043,0.011 0.087,0.021 0.13,0.027 0.213,0.021 0.335,0.031 0.357,0.037 0.162,0.031 0.323,0.063 0.484,0.092 0.087,0.017 0.122,0.063 0.108,0.142 -0.072,0.383 -0.144,0.768 -0.215,1.149 -0.027,0.041 -0.074,0.055 -0.145,0.043 -0.328,-0.063 -0.656,-0.127 -0.983,-0.192 -0.127,-0.025 -0.198,0 -0.215,0.077 -0.229,1.117 -0.46,2.236 -0.69,3.354 -0.041,0.199 -0.107,0.289 -0.2,0.271 -0.539,-0.111 -1.078,-0.23 -1.614,-0.355 -0.106,-0.023 -0.148,-0.08 -0.128,-0.168 0.629,-2.678 1.257,-5.357 1.887,-8.037 0.018,-0.076 0.067,-0.107 0.15,-0.086 0.897,0.207 1.801,0.396 2.708,0.566 0.046,0.008 0.072,0.1 0.076,0.271 -0.06,0.133 -0.108,0.287 -0.139,0.455 z m 7.619,7.476 c -0.014,0.256 -0.139,0.526 -0.371,0.811 -0.263,0.256 -0.626,0.426 -1.09,0.5 -0.206,0.029 -0.365,0.039 -0.473,0.031 -0.218,-0.018 -0.434,-0.037 -0.649,-0.057 -0.335,-0.031 -0.697,-0.17 -1.082,-0.416 -0.476,-0.396 -0.674,-0.859 -0.611,-1.384 -0.014,-0.002 -0.014,-0.043 -0.005,-0.12 0.227,-1.896 0.454,-3.793 0.682,-5.688 0.05,-0.423 0.313,-0.771 0.776,-1.056 0.353,-0.145 0.646,-0.205 0.883,-0.184 0.284,0.027 0.569,0.053 0.854,0.076 0.303,0.023 0.612,0.178 0.936,0.461 0.351,0.326 0.513,0.775 0.48,1.354 -0.111,1.893 -0.221,3.782 -0.33,5.672 z m 7.708,1.289 c -1.014,0.051 -2.027,0.08 -3.042,0.09 -0.095,0 -0.144,-0.039 -0.144,-0.119 -0.008,-1.236 -0.016,-2.475 -0.022,-3.711 0,-0.023 -0.015,-0.131 -0.04,-0.322 -0.009,-1.43 -0.016,-2.859 -0.023,-4.289 0,-0.016 0.023,-0.041 0.07,-0.068 0.489,-0.002 0.979,-0.012 1.467,-0.026 0.084,0 0.127,0.036 0.129,0.114 0.016,0.463 0.03,0.929 0.045,1.392 0.031,0.19 0.045,0.297 0.047,0.319 0,0.007 0,0.011 0,0.017 -0.02,0.166 -0.027,0.256 -0.026,0.272 0,0.011 0,0.021 0,0.033 0.032,0.193 0.047,0.299 0.049,0.322 0.005,0.156 0.009,0.314 0.015,0.475 0.006,0.156 0.002,0.236 -0.01,0.236 0.016,0.146 0.025,0.264 0.029,0.355 0.037,1.129 0.072,2.26 0.109,3.389 0.002,0.135 0.064,0.201 0.186,0.197 0.346,-0.012 0.689,-0.027 1.035,-0.045 0.146,-0.006 0.221,0.041 0.227,0.143 0.02,0.361 0.037,0.723 0.059,1.082 0,0.092 -0.051,0.139 -0.16,0.144 z m 9.453,-1.107 c -0.555,0.104 -1.109,0.199 -1.665,0.287 -0.129,0.021 -0.249,-0.119 -0.354,-0.424 -0.279,-0.479 -0.643,-1.166 -1.078,-2.064 -0.051,-0.072 -0.09,-0.107 -0.111,-0.104 -0.032,0.004 -0.042,0.08 -0.028,0.225 0.042,0.104 0.067,0.186 0.076,0.248 0.104,0.727 0.21,1.453 0.313,2.18 0.012,0.078 -0.027,0.125 -0.123,0.139 -0.524,0.074 -1.049,0.144 -1.572,0.205 -0.108,0.015 -0.167,-0.024 -0.178,-0.114 -0.131,-1.123 -0.262,-2.244 -0.396,-3.367 -0.046,-0.188 -0.071,-0.295 -0.075,-0.315 -0.176,-1.498 -0.35,-2.996 -0.525,-4.496 -0.006,-0.062 0.02,-0.109 0.074,-0.146 0.492,-0.06 0.982,-0.123 1.477,-0.19 0.063,0.02 0.1,0.061 0.105,0.121 0.01,0.063 0.019,0.125 0.026,0.186 0.008,0.051 0.009,0.141 0.004,0.273 0.038,0.104 0.063,0.186 0.072,0.245 0.001,0.019 0.004,0.033 0.006,0.052 0.005,0.192 0.007,0.301 0.011,0.323 0.002,0.021 0.006,0.046 0.01,0.066 0.004,0.02 0.029,0.127 0.082,0.313 0.01,0.072 0.021,0.146 0.03,0.217 0.007,0.039 0.007,0.138 0.005,0.291 0.022,0.156 0.053,0.232 0.088,0.229 0.056,-0.063 0.129,-0.473 0.211,-1.229 0.059,-0.394 0.115,-0.783 0.168,-1.176 0.037,-0.029 0.069,-0.046 0.103,-0.05 0.483,-0.075 0.968,-0.157 1.451,-0.246 0.082,-0.014 0.133,0.027 0.149,0.13 0.004,0.016 0.008,0.032 0.01,0.049 0.009,0.049 -0.053,0.664 -0.209,1.844 -0.143,0.975 -0.234,1.662 -0.26,2.057 1.391,2.6 2.193,3.941 2.24,4.082 0.006,0.087 -0.04,0.141 -0.137,0.159 z m 6.471,-0.051 c -0.039,0.033 -0.074,0.057 -0.109,0.066 -0.282,0.075 -0.564,0.151 -0.849,0.227 -0.063,0.018 -0.231,-0.215 -0.501,-0.693 -0.176,-0.188 -0.277,-0.342 -0.311,-0.463 -0.063,-0.258 -0.131,-0.516 -0.194,-0.773 -0.074,-0.18 -0.112,-0.278 -0.12,-0.301 -0.008,-0.033 -0.016,-0.066 -0.025,-0.1 -0.022,-0.098 0.039,-0.172 0.191,-0.223 0.446,-0.115 0.895,-0.236 1.339,-0.359 0.13,-0.037 0.205,-0.012 0.231,0.076 0.107,0.387 0.217,0.771 0.324,1.158 0.02,0.065 0.032,0.528 0.024,1.385 z m 13.547,-6.863 c -0.357,0.186 -0.717,0.369 -1.076,0.547 -0.024,0.014 -0.139,0.082 -0.338,0.207 -0.013,0.006 -0.025,0.012 -0.037,0.018 -0.131,0.064 -0.254,0.004 -0.367,-0.18 -0.777,-1.066 -1.547,-2.139 -2.303,-3.217 -0.633,-0.879 -1.285,-1.832 -1.955,-2.867 -0.156,-0.191 -0.256,-0.332 -0.297,-0.422 -0.021,-0.047 -0.043,-0.094 -0.063,-0.139 -0.05,-0.102 0.016,-0.195 0.192,-0.279 0.14,-0.064 0.278,-0.123 0.422,-0.18 0.076,-0.047 0.178,-0.104 0.307,-0.164 0.012,-0.006 0.02,-0.004 0.023,0.006 0.026,-0.018 0.051,-0.037 0.076,-0.055 0.094,-0.045 0.187,-0.092 0.279,-0.137 0.1,-0.05 0.2,0.032 0.307,0.245 0.651,0.97 1.312,1.937 1.977,2.896 0.005,-0.003 0.012,-0.007 0.019,-0.011 0.027,-0.014 0.003,-0.135 -0.073,-0.36 -0.035,-0.063 -0.066,-0.129 -0.102,-0.197 -0.746,-1.926 -1.146,-2.914 -1.177,-2.978 0.016,-0.032 0.034,-0.065 0.051,-0.102 0.431,-0.221 0.858,-0.447 1.285,-0.68 0.06,-0.031 0.114,-0.031 0.17,0.004 0.012,0.02 0.021,0.041 0.032,0.061 0.419,1.076 1.053,2.76 1.855,5.066 0.614,1.758 0.916,2.689 0.936,2.781 -0.031,0.059 -0.08,0.104 -0.143,0.137 z m 8.847,-5.406 c -0.016,0.012 -0.033,0.025 -0.053,0.037 -0.039,0.029 -0.145,0.09 -0.313,0.184 -0.124,0.117 -0.229,0.203 -0.309,0.261 -0.17,0.118 -0.338,0.233 -0.506,0.354 -0.142,0.096 -0.322,-0.021 -0.545,-0.349 -0.021,0.006 -0.212,-0.209 -0.566,-0.642 -0.104,-0.119 -0.207,-0.145 -0.303,-0.078 -0.144,0.097 -0.287,0.191 -0.43,0.287 -0.115,0.076 -0.102,0.224 0.042,0.439 0.004,0.008 0.161,0.305 0.465,0.893 0.027,0.041 0.056,0.084 0.085,0.127 0.049,0.074 0.027,0.146 -0.066,0.207 -0.461,0.304 -0.92,0.599 -1.387,0.89 -0.072,0.014 -0.129,-0.008 -0.16,-0.062 -0.039,-0.063 -0.078,-0.125 -0.115,-0.186 -0.885,-1.922 -1.787,-3.83 -2.71,-5.727 -0.466,-0.965 -0.729,-1.511 -0.778,-1.638 0.021,-0.065 0.048,-0.11 0.087,-0.137 0.173,-0.11 0.345,-0.226 0.517,-0.338 0.021,-0.015 0.113,-0.088 0.275,-0.226 0.342,-0.229 0.68,-0.459 1.02,-0.692 0.092,-0.064 0.201,-0.007 0.33,0.18 0.254,0.229 0.873,0.894 1.869,1.979 1.318,1.359 2.193,2.261 2.598,2.728 0.182,0.16 0.546,0.529 1.094,1.115 0.091,0.13 0.045,0.261 -0.141,0.394 z m 17.875,-32.842 c -2.349,3.072 -4.738,5.781 -7.176,8.127 -2.168,2.078 -4.584,3.951 -7.246,5.619 -2.664,1.674 -5.441,2.506 -8.326,2.506 -2.168,0 -3.639,-0.584 -4.404,-1.76 -0.77,-1.172 -1.107,-2.641 -1.016,-4.402 0.088,-1.76 0.475,-3.678 1.151,-5.756 0.677,-2.076 1.375,-3.994 2.101,-5.756 0.719,-1.76 1.285,-3.227 1.692,-4.4 0.405,-1.172 0.38,-1.762 -0.071,-1.762 -0.451,0 -1.194,0.543 -2.233,1.627 -1.038,1.084 -2.213,2.461 -3.519,4.131 -1.312,1.67 -2.688,3.498 -4.135,5.484 -1.441,1.986 -2.796,3.859 -4.062,5.621 -1.267,1.76 -2.326,3.273 -3.183,4.535 -0.861,1.266 -1.377,2.033 -1.557,2.303 v 0.135 h -8.262 c 0.99,-2.256 2.1,-5.234 3.318,-8.938 1.217,-3.701 2.367,-7.449 3.45,-11.24 l -2.676,3.881 c -0.013,0.016 -0.017,0.027 -0.028,0.045 -0.072,0.104 -0.164,0.188 -0.242,0.283 -0.181,0.223 -0.357,0.438 -0.529,0.623 -0.203,0.221 -0.418,0.432 -0.637,0.637 -0.002,0 -0.002,0 -0.002,0 -1.047,0.973 -2.281,1.779 -3.736,2.385 -2.168,0.906 -4.381,1.131 -6.635,0.678 -1.81,3.435 -4.021,6.23 -6.639,8.396 -2.618,2.168 -5.552,3.25 -8.802,3.25 -2.079,0 -3.929,-0.473 -5.555,-1.42 -1.623,-0.949 -2.909,-2.236 -3.857,-3.861 -0.908,-1.555 -1.473,-3.363 -1.72,-5.414 -1.434,1.527 -2.993,3.041 -4.78,4.533 -2.214,1.852 -4.606,3.41 -7.179,4.672 -2.573,1.269 -5.077,1.764 -7.517,1.49 -2.801,-0.27 -5.034,-1.33 -6.703,-3.182 -1.672,-1.85 -2.822,-4.084 -3.453,-6.703 -0.631,-2.619 -0.699,-5.438 -0.205,-8.465 0.497,-3.025 1.512,-5.799 3.05,-8.33 1.534,-2.523 3.588,-4.625 6.16,-6.295 2.573,-1.672 5.665,-2.508 9.278,-2.508 2.525,0 4.535,0.608 6.025,1.828 1.488,1.219 2.438,2.709 2.844,4.471 0.406,1.762 0.34,3.59 -0.202,5.484 -0.542,1.894 -1.581,3.521 -3.114,4.875 -1.085,0.903 -2.146,1.286 -3.184,1.149 -1.041,-0.136 -1.92,-0.494 -2.641,-1.082 -0.724,-0.588 -1.242,-1.265 -1.559,-2.031 -0.316,-0.766 -0.25,-1.332 0.204,-1.692 1.442,-1.265 2.437,-2.687 2.978,-4.267 0.543,-1.58 0.316,-2.776 -0.674,-3.59 -0.727,-0.543 -1.56,-0.608 -2.508,-0.201 -0.947,0.404 -1.85,1.148 -2.708,2.23 -0.858,1.086 -1.671,2.396 -2.438,3.93 -0.769,1.537 -1.284,3.07 -1.557,4.606 -0.542,3.701 -0.361,6.611 0.541,8.732 0.903,2.121 2.482,3.139 4.739,3.049 1.444,0 2.891,-0.315 4.336,-0.949 1.441,-0.629 2.82,-1.442 4.13,-2.438 1.307,-0.989 2.526,-2.074 3.655,-3.25 1.127,-1.172 2.188,-2.256 3.184,-3.25 0.723,-2.438 1.76,-4.737 3.114,-6.905 1.354,-2.166 2.956,-4.063 4.808,-5.688 1.85,-1.625 3.881,-2.912 6.096,-3.859 2.209,-0.946 4.58,-1.422 7.109,-1.422 2.076,0 3.791,0.476 5.145,1.422 1.354,0.947 2.371,2.234 3.05,3.859 0.678,1.625 0.946,3.521 0.813,5.688 -0.135,2.168 -0.655,4.469 -1.557,6.905 l -0.814,1.896 c 2.074,0.543 4.014,-0.088 5.818,-1.891 0,-0.002 0,-0.006 0.004,-0.006 1.44,-1.893 2.842,-3.879 4.195,-5.959 1.355,-2.074 2.528,-4.016 3.522,-5.822 1.172,-2.076 2.303,-4.106 3.385,-6.094 h 10.158 c -0.361,1.443 -1.149,3.949 -2.369,7.518 -1.221,3.566 -2.599,7.291 -4.131,11.172 1.896,-2.618 3.901,-5.26 6.024,-7.922 2.121,-2.664 4.244,-4.987 6.365,-6.977 2.121,-1.984 4.176,-3.496 6.16,-4.537 1.986,-1.037 3.793,-1.287 5.42,-0.744 1.082,0.361 1.646,1.334 1.691,2.912 0.047,1.58 -0.202,3.432 -0.743,5.553 -0.544,2.123 -1.241,4.357 -2.101,6.703 -0.859,2.35 -1.646,4.492 -2.367,6.435 -0.727,1.94 -1.244,3.565 -1.559,4.875 -0.318,1.311 -0.203,1.963 0.338,1.963 0.811,0 1.713,-0.271 2.709,-0.812 0.991,-0.543 2.008,-1.266 3.047,-2.17 1.037,-0.897 2.1,-1.895 3.182,-2.979 1.085,-1.084 2.168,-2.121 3.252,-3.115 1.084,-0.992 2.008,-1.625 2.775,-1.893 0.767,-0.273 1.354,-0.273 1.762,0 0.404,0.268 0.584,0.721 0.541,1.352 -0.037,0.636 -0.375,1.358 -1.008,2.169 z m 8.518,-18.338 1.061,4.885 -4.324,-2.516 -4.318,2.516 1.057,-4.885 -3.728,-3.332 4.974,-0.506 2.018,-4.574 2.018,4.574 4.975,0.506 -3.733,3.332 z"
           id="path3077"
           inkscape:connector-curvature="0"
           style="fill:#00adee" /><path
           d="m 94.336,74.545 c 1.084,-1.321 1.627,-3.286 1.627,-5.895 0,-2.643 -0.514,-4.634 -1.538,-5.972 C 93.398,61.34 91.89,60.67 89.896,60.67 H 82.16 v 15.857 h 7.386 c 2.109,0.001 3.706,-0.659 4.79,-1.982 z"
           id="path3079"
           inkscape:connector-curvature="0"
           style="fill:#00adee" /></g><path
         d="m 123.898,101.959 c -1.538,-0.359 -3.363,0.566 -5.483,2.777 -2.122,2.215 -4.088,5.621 -5.894,10.225 -1.173,3.162 -1.85,5.984 -2.028,8.467 -0.185,2.482 0.358,3.949 1.624,4.4 1.805,0.633 3.633,0.047 5.484,-1.76 1.85,-1.808 3.498,-4.109 4.942,-6.908 l -1.083,-1.219 c -0.813,-0.992 -1.266,-2.166 -1.354,-3.521 -0.09,-1.352 0.135,-2.617 0.678,-3.791 0.541,-1.174 1.308,-2.145 2.3,-2.912 0.993,-0.766 2.169,-1.061 3.523,-0.881 0.09,-2.707 -0.811,-4.334 -2.709,-4.877 z"
         id="path3081"
         inkscape:connector-curvature="0"
         style="fill:#00adee" /></g><path
       d="m 6.797,84.479 h 1.004 c 1.039,0 2.013,0.363 2.922,1.09 0.815,0.836 1.222,1.971 1.222,3.402 v 1.178 c 0,1.672 -0.785,3.65 -2.355,5.933 -1.687,2.639 -2.573,4.297 -2.661,4.973 -0.058,0.232 -0.087,0.422 -0.087,0.566 0.109,0.088 0.21,0.131 0.305,0.131 h 3.142 c 0.16,0 0.363,0.016 0.611,0.045 0.043,-0.029 0.131,-0.045 0.261,-0.045 0.611,0 0.916,0.248 0.916,0.744 v 0.26 c -0.087,0.734 -0.131,1.186 -0.131,1.354 v 0.871 c 0,0.16 -0.319,0.265 -0.959,0.308 H 3.351 c -0.291,0 -0.437,-0.174 -0.437,-0.524 0,-0.087 -0.044,-0.406 -0.131,-0.959 0.087,-0.544 0.131,-0.923 0.131,-1.134 v -1.877 c 0,-1.504 1.352,-4.194 4.058,-8.07 0.668,-1.215 1.003,-2.217 1.003,-3.01 V 88.71 C 7.889,88.157 7.699,87.882 7.408,87.882 H 7.32 c -0.291,0.16 -0.437,0.508 -0.437,1.047 v 1.875 c 0,0.232 -0.188,0.35 -0.566,0.35 H 3.524 c -0.406,0 -0.61,-0.117 -0.61,-0.35 v -1.656 c 0.058,-1.129 0.188,-1.986 0.393,-2.576 0.262,-0.646 0.785,-1.199 1.57,-1.656 0.77,-0.292 1.411,-0.437 1.92,-0.437 z"
       id="path3083"
       inkscape:connector-curvature="0"
       style="fill:#00adee" /><path
       d="m 26.664,88.667 v -0.742 c 0,-1.127 -0.51,-2.115 -1.527,-2.965 -0.778,-0.393 -1.417,-0.598 -1.919,-0.611 h -1.701 c -0.836,0 -1.607,0.246 -2.312,0.74 -0.539,0.414 -0.947,0.924 -1.224,1.527 -0.165,0.531 -0.283,1.258 -0.348,2.182 0,0.16 0.015,0.32 0.044,0.48 -0.029,0.152 -0.044,0.326 -0.044,0.523 v 0.219 c 0,0.043 0.028,0.393 0.088,1.047 v 9.771 c 0,0.131 0.027,0.363 0.088,0.697 0,1.193 0.42,2.182 1.264,2.967 0.952,0.611 1.767,0.916 2.443,0.916 h 1.439 c 0.684,-0.035 1.426,-0.27 2.225,-0.697 1.076,-0.771 1.614,-1.963 1.614,-3.578 V 90.194 c 0.001,-0.211 -0.043,-0.721 -0.13,-1.527 z m -3.883,2.226 c 0,0.129 -0.029,0.361 -0.088,0.697 0,0.057 0.03,0.334 0.088,0.828 v 8.898 c -0.08,0.438 -0.239,0.656 -0.479,0.656 -0.327,-0.072 -0.502,-0.438 -0.523,-1.093 V 92.766 C 21.72,92.27 21.691,91.995 21.691,91.936 V 88.45 c 0,-0.357 0.174,-0.604 0.524,-0.742 0.32,0.115 0.479,0.348 0.479,0.697 v 1.615 c 0,0.057 0.03,0.334 0.088,0.828 v 0.045 h -0.001 z"
       id="path3085"
       inkscape:connector-curvature="0"
       style="fill:#00adee" /><text
       sodipodi:linespacing="125%"
       id="text3097"
       y="103.75"
       x="218.75"
       style="font-size:40px;font-style:normal;font-weight:normal;line-height:125%;letter-spacing:0px;word-spacing:0px;fill:#00adee;fill-opacity:1;stroke:#000000;stroke-opacity:0;font-family:Sans"
       xml:space="preserve"><tspan
         style="font-size:24px;font-style:normal;font-variant:normal;font-weight:normal;font-stretch:condensed;text-align:start;line-height:125%;writing-mode:lr-tb;text-anchor:start;fill:#00adee;fill-opacity:1;stroke:#000000;stroke-opacity:0;font-family:Impact;-inkscape-font-specification:Impact Condensed"
         y="103.75"
         x="218.75"
         id="tspan3099"
         sodipodi:role="line">1 4</tspan></text>
</g></svg>