<?xml version="1.0" encoding="utf-8"?>
<!-- Generator: Adobe Illustrator 17.1.0, SVG Export Plug-In . SVG Version: 6.00 Build 0)  -->
<!DOCTYPE svg PUBLIC "-//W3C//DTD SVG 1.1//EN" "http://www.w3.org/Graphics/SVG/1.1/DTD/svg11.dtd">
<svg version="1.1" id="Layer_1" xmlns="http://www.w3.org/2000/svg" xmlns:xlink="http://www.w3.org/1999/xlink" x="0px" y="0px"
	 viewBox="0 0 612 612" enable-background="new 0 0 612 612" xml:space="preserve">
<path fill="#00ADEE" d="M387.2,305.8c0.2-0.3,1.4-3.2,1.6-4.2l0,0l0-0.2c0,0-1.4-3.4-2.1-4.2c0.5-0.9,1.1-3.8,1.3-4.4l0,0l0-0.1
	c0,0,0,0,0,0c0,0,0-0.1,0-0.1l0,0c0,0,0,0,0,0c0,0,0,0,0,0c-0.2-0.5-1.8-3.2-2.5-4c0.4-0.9,0.8-3.9,0.8-4.5l0,0l0-0.1c0,0,0,0,0,0
	c0,0,0-0.1,0-0.1c0-0.3-2.1-3.1-2.9-3.8c0.3-1.1,0.4-4.6,0.4-4.6c0-0.1,0-0.1,0-0.1c-0.2-0.4-2.5-2.9-3.3-3.5
	c0.2-1.1-0.1-4.5-0.1-4.6c0,0,0-0.1-0.1-0.2c-0.2-0.5-2.8-2.6-3.6-3.1c0.1-1.1-0.5-4.4-0.5-4.4c0-0.1-0.1-0.3-0.1-0.3
	c-0.4-0.5-3-2.4-3.9-2.7c0-1.1-0.8-4.1-0.8-4.1c-0.1-0.3-0.2-0.5-0.3-0.6c-0.5-0.5-3.3-2-4.1-2.3c0-0.4-0.2-1.3-0.9-3.2
	c-0.4-1.1-0.5-1.3-0.6-1.3c-0.6-0.5-3.5-1.7-4.3-1.9c0-0.2-0.2-0.6-0.5-1.3c-0.9-2.1-1.3-2.8-1.5-3v0c-0.2-0.4-3.8-1.4-4.5-1.6
	c0-0.1-0.1-0.3-0.2-0.5c-0.3-0.6-0.7-1.4-1.2-2.2c-0.8-1.3-0.9-1.4-1.1-1.5c-0.7-0.4-4-1-4.6-1.1c0,0,0-0.1-0.1-0.1
	c-0.1-0.3-2-3.2-2.7-3.7c0,0,0,0-0.1,0c0,0,0,0,0,0c-0.7-0.3-4.1-0.6-4.5-0.6c-0.1,0-0.1,0-0.1,0c0,0,0,0,0,0
	c-0.2-0.3-2.7-3.5-3.2-3.6c-0.4-0.1-1.5-0.2-3.2-0.2c-0.8,0-1.2,0-1.4,0.1c-0.4-0.5-2.8-2.9-3.4-3.2c-0.1-0.1-0.2-0.1-0.6-0.1
	c0,0-3.2,0.1-4.2,0.4c-0.5-0.5-3.2-2.7-3.8-2.9c-0.1,0-0.2,0-0.2,0c0,0-3.4,0.4-4.5,0.8c-0.6-0.5-3.6-2.5-4.1-2.5c0,0-0.1,0-0.1,0
	c0,0-3.5,0.7-4.5,1.3c-0.6-0.5-3.7-2.1-4.2-2.1l-0.1,0c0,0-3.5,1.1-4.4,1.7c-0.8-0.6-3.6-1.5-4.3-1.7l0,0h-0.1c0,0,0,0,0,0
	c0,0,0,0-0.1,0h0c-0.5,0-3.6,1.6-4.3,2.1c-0.9-0.5-3.8-1.1-4.4-1.2l0,0c0,0-0.1,0-0.1,0c0,0-0.1,0-0.1,0c-0.5,0-3.5,2-4.1,2.5
	c-1-0.4-4.4-0.8-4.5-0.8c-0.1,0-0.1,0-0.2,0c-0.6,0.2-3.3,2.4-3.8,2.9c-1-0.3-4.1-0.4-4.2-0.4c-0.4,0-0.5,0-0.6,0.1
	c-0.7,0.3-3.1,2.8-3.4,3.2c-0.2,0-0.7-0.1-1.4-0.1c-1.8,0-2.8,0.1-3.2,0.2c-0.5,0-3,3.3-3.2,3.6c0,0,0,0,0,0c0,0-0.1,0-0.1,0
	c-0.4,0-3.8,0.3-4.5,0.6c0,0,0,0,0,0c0,0,0,0-0.1,0c-0.7,0.5-2.5,3.4-2.7,3.7c0,0,0,0.1-0.1,0.1c-0.6,0-3.8,0.7-4.6,1.1
	c-0.1,0-0.3,0.2-1.1,1.5c-0.5,0.8-0.9,1.7-1.2,2.2c-0.1,0.2-0.2,0.3-0.2,0.5c-0.8,0.2-4.4,1.2-4.6,1.6v0c-0.2,0.2-0.6,0.9-1.5,3
	c-0.3,0.7-0.4,1.1-0.5,1.3c-0.8,0.2-3.7,1.4-4.3,1.9c-0.1,0.1-0.3,0.3-0.6,1.3c-0.7,2-0.9,2.8-0.9,3.2c-0.8,0.3-3.6,1.8-4.1,2.3
	c-0.1,0.1-0.2,0.3-0.3,0.6c0,0-0.9,3-0.8,4.1c-0.8,0.4-3.4,2.2-3.9,2.7c-0.1,0.1-0.1,0.2-0.2,0.3c0,0-0.6,3.4-0.5,4.4
	c-0.8,0.5-3.4,2.7-3.6,3.1c0,0.1-0.1,0.2-0.1,0.2c0,0-0.3,3.5-0.1,4.6c-0.8,0.6-3.1,3.1-3.3,3.5c0,0,0,0.1,0,0.1c0,0,0,3.6,0.4,4.6
	c-0.8,0.7-2.9,3.5-2.9,3.8c0,0,0,0.1,0,0.1c0,0,0,0,0,0.1v0h0c0.1,0.6,0.4,3.5,0.8,4.5c-0.7,0.7-2.3,3.5-2.5,4c0,0,0,0,0,0.1
	c0,0,0,0,0,0v0c0,0,0,0,0,0.1c0,0,0,0,0,0.1l0,0.1l0,0c0.1,0.7,0.8,3.5,1.2,4.4c-0.6,0.7-1.8,3.4-2.1,4.1l-0.1,0v0.2
	c0,0,1,3.4,1.7,4.4c0,0,0,0,0,0.1c-0.2,0.4-1.5,3.2-1.6,4.2l0,0l0,0.2c0,0,1.4,3.4,2.1,4.2c-0.5,0.9-1.1,3.8-1.3,4.4l0,0l0,0.1
	c0,0,0,0,0,0c0,0,0,0.1,0,0.1l0,0c0,0,0,0,0,0c0,0,0,0,0,0c0.2,0.5,1.8,3.2,2.5,4c-0.4,0.9-0.8,3.9-0.8,4.5l0,0l0,0c0,0,0,0,0,0
	c0,0,0,0.1,0,0.1c0,0.3,2.1,3.1,2.9,3.8c-0.3,1.1-0.4,4.6-0.4,4.6c0,0.1,0,0.1,0,0.1c0.2,0.4,2.5,2.9,3.3,3.5
	c-0.2,1.1,0.1,4.5,0.1,4.6c0,0,0,0.1,0.1,0.2c0.2,0.5,2.8,2.6,3.6,3.1c-0.1,1.1,0.5,4.4,0.5,4.4c0,0.1,0.1,0.3,0.1,0.3
	c0.4,0.5,3,2.4,3.9,2.7c0,1.1,0.8,4.1,0.8,4.1c0.1,0.3,0.2,0.5,0.3,0.6c0.5,0.5,3.3,2,4.1,2.3c0,0.5,0.4,1.6,0.9,3.2
	c0.4,1,0.5,1.3,0.6,1.3c0.6,0.5,3.5,1.7,4.3,1.9c0.1,0.2,0.2,0.7,0.6,1.5c0.8,2,1.2,2.6,1.4,2.8c0.3,0.4,3.8,1.4,4.5,1.6
	c0,0.1,0.1,0.3,0.2,0.5c0.3,0.6,0.7,1.4,1.2,2.2c0.8,1.3,0.9,1.5,1.1,1.5c0.7,0.4,4,1,4.6,1.1c0,0,0,0.1,0.1,0.1
	c0.1,0.3,2,3.2,2.7,3.7c0,0,0,0,0.1,0c0,0,0,0,0,0c0.7,0.3,4.1,0.6,4.5,0.6c0.1,0,0.1,0,0.1,0c0,0,0,0,0,0c0.2,0.3,2.8,3.5,3.2,3.6
	c0.4,0.1,1.5,0.2,3.2,0.2c0.8,0,1.2,0,1.5-0.1c0.4,0.5,2.8,2.9,3.4,3.2c0.1,0.1,0.2,0.1,0.6,0.1c0,0,3.2-0.1,4.2-0.4
	c0.5,0.5,3.2,2.8,3.8,2.9c0.1,0,0.1,0,0.2,0c0,0,3.4-0.4,4.5-0.8c0.6,0.5,3.6,2.5,4.1,2.5c0,0,0.1,0,0.1,0c0,0,3.5-0.7,4.5-1.3
	c0.6,0.5,3.7,2.1,4.2,2.1l0,0h0.1c0,0,3.4-1.1,4.4-1.7c0.2,0.2,0.8,0.4,2,0.9c0.3,0.1,1.8,0.7,2.3,0.8l0.1,0c0,0,0.1,0,0.1,0h0
	c0.5,0,3.6-1.6,4.3-2.1c0.9,0.5,3.8,1.1,4.4,1.2l0,0c0,0,0.1,0,0.1,0c0,0,0.1,0,0.1,0c0.4,0,3.5-2,4.1-2.5c1,0.4,4.4,0.8,4.5,0.8
	c0.1,0,0.2,0,0.2,0c0.6-0.2,3.3-2.4,3.8-2.9c1,0.3,4.1,0.4,4.2,0.4c0.4,0,0.5,0,0.6-0.1c0.7-0.3,3.1-2.8,3.4-3.2
	c0.2,0,0.7,0.1,1.5,0.1c1.7,0,2.8-0.1,3.2-0.2c0.5,0,3-3.3,3.2-3.6c0,0,0,0,0,0c0,0,0.1,0,0.1,0c0.4,0,3.8-0.3,4.5-0.6c0,0,0,0,0,0
	c0,0,0.1,0,0.1-0.1c0.7-0.5,2.5-3.4,2.7-3.7c0,0,0-0.1,0.1-0.1c0.6,0,3.8-0.7,4.6-1.1c0.1,0,0.3-0.2,1.1-1.5c0.5-0.8,1-1.7,1.2-2.2
	c0.1-0.2,0.2-0.3,0.2-0.4c0.8-0.2,4.3-1.2,4.5-1.6c0.2-0.2,0.6-0.9,1.4-2.8c0.3-0.8,0.5-1.2,0.5-1.4c0.8-0.2,3.7-1.4,4.3-1.9
	c0.1-0.1,0.3-0.3,0.6-1.4c0.2-0.7,0.9-2.4,0.9-3.2c0.8-0.3,3.6-1.8,4.1-2.3c0.1-0.1,0.2-0.3,0.3-0.6c0.2-0.6,0.4-1.6,0.6-2.5
	c0.2-0.9,0.2-1.3,0.3-1.6c0.8-0.4,3.4-2.2,3.8-2.7c0.1-0.1,0.1-0.2,0.2-0.3c0,0,0.6-3.4,0.5-4.4c0.8-0.5,3.4-2.7,3.6-3.1
	c0-0.1,0.1-0.2,0.1-0.2c0,0,0.3-3.5,0.1-4.6c0.8-0.6,3.1-3.1,3.3-3.5c0,0,0-0.1,0-0.1c0,0,0-3.6-0.4-4.6c0.8-0.7,2.9-3.5,2.9-3.8
	c0,0,0-0.1,0-0.1c0,0,0,0,0-0.1l0,0h0c-0.1-0.6-0.4-3.5-0.8-4.5c0.7-0.7,2.2-3.5,2.5-4c0,0,0,0,0,0c0,0,0,0,0,0v0c0,0,0,0,0-0.1
	c0,0,0,0,0-0.1l0-0.1h0c-0.1-0.7-0.8-3.5-1.2-4.4c0.6-0.7,1.8-3.4,2.1-4.1l0.1,0v-0.2C388.9,310.2,387.8,306.9,387.2,305.8
	C387.2,305.9,387.2,305.9,387.2,305.8z M385.5,310.1v0.2l-0.1,0c-0.3,0.6-1.4,3.2-2,3.9c0.5,0.8,1.1,3.6,1.2,4.2l0,0l0,0.1
	c0,0,0,0.1,0,0.1c0,0,0,0.1,0,0.1v0c0,0,0,0,0,0c0,0,0,0,0,0c-0.2,0.5-1.7,3.2-2.4,3.8c0.4,0.9,0.7,3.7,0.8,4.3h0l0,0
	c0,0.1,0,0.1,0,0.1c0,0,0,0.1,0,0.1c0,0.3-2.1,3-2.8,3.6c0.3,1,0.4,4.4,0.4,4.5c0,0.1,0,0.1,0,0.1c-0.1,0.3-2.4,2.8-3.2,3.4
	c0.2,1.1-0.1,4.4-0.1,4.4c0,0,0,0.1-0.1,0.2c-0.2,0.4-2.7,2.5-3.5,3c0.1,1-0.5,4.2-0.5,4.3c0,0.1-0.1,0.3-0.1,0.3
	c-0.4,0.5-2.9,2.2-3.7,2.6c0,0.2-0.1,0.7-0.2,1.5c-0.2,0.9-0.4,1.9-0.6,2.4c-0.1,0.3-0.2,0.5-0.3,0.6c-0.5,0.5-3.2,2-4,2.3
	c-0.1,0.7-0.7,2.4-0.9,3.1c-0.4,1-0.5,1.3-0.6,1.3c-0.6,0.5-3.4,1.6-4.1,1.8c-0.1,0.2-0.2,0.6-0.5,1.4c-0.8,1.9-1.2,2.5-1.4,2.7
	c-0.2,0.4-3.6,1.4-4.4,1.5c0,0.1-0.1,0.2-0.2,0.4c-0.3,0.5-0.7,1.4-1.2,2.2c-0.7,1.2-0.9,1.4-1,1.4c-0.7,0.4-3.8,1-4.4,1
	c0,0,0,0.1-0.1,0.1c-0.1,0.2-1.9,3-2.6,3.5c0,0,0,0-0.1,0.1c0,0,0,0,0,0c-0.7,0.3-4,0.6-4.4,0.6c0,0-0.1,0-0.1,0c0,0,0,0,0,0
	c-0.2,0.3-2.7,3.4-3.1,3.5c-0.4,0.1-1.4,0.2-3.1,0.2c-0.8,0-1.2,0-1.4-0.1c-0.3,0.4-2.7,2.8-3.3,3.1c-0.1,0.1-0.2,0.1-0.6,0.1
	c0,0-3-0.1-4-0.4c-0.5,0.5-3.1,2.6-3.6,2.8c-0.1,0-0.1,0-0.2,0c0,0-3.3-0.4-4.3-0.8c-0.6,0.5-3.5,2.4-3.9,2.4c0,0-0.1,0-0.1,0
	c0,0,0,0-0.1,0l0,0c-0.6-0.1-3.3-0.7-4.2-1.2c-0.6,0.5-3.7,2-4.1,2h0c0,0-0.1,0-0.1,0l-0.1,0c-0.5-0.1-1.9-0.6-2.2-0.8
	c-1.1-0.5-1.7-0.7-1.9-0.9c-0.9,0.6-4.2,1.6-4.2,1.6h-0.1l0,0c-0.5-0.1-3.5-1.6-4.1-2c-1,0.5-4.3,1.2-4.3,1.2c0,0-0.1,0-0.1,0
	c-0.4,0-3.4-1.9-3.9-2.4c-1,0.4-4.3,0.8-4.3,0.8c-0.1,0-0.1,0-0.2,0c-0.6-0.1-3.2-2.3-3.6-2.8c-1,0.3-4,0.4-4,0.4
	c-0.4,0-0.5,0-0.6-0.1c-0.6-0.3-3-2.7-3.3-3.1c-0.2,0-0.6,0.1-1.4,0.1c-1.7,0-2.7-0.1-3.1-0.2c-0.4,0-2.9-3.1-3.1-3.5c0,0,0,0,0,0
	c0,0-0.1,0-0.1,0c-0.4,0-3.6-0.3-4.4-0.6c0,0,0,0,0,0c0,0,0,0-0.1,0c-0.6-0.5-2.4-3.3-2.6-3.6c0,0,0-0.1-0.1-0.1
	c-0.6,0-3.7-0.6-4.4-1c-0.1,0-0.3-0.2-1-1.4c-0.5-0.8-0.9-1.6-1.2-2.2c-0.1-0.2-0.2-0.3-0.2-0.4c-0.7-0.2-4.1-1.1-4.4-1.5
	c-0.2-0.2-0.5-0.8-1.3-2.7c-0.3-0.8-0.5-1.2-0.5-1.4c-0.7-0.2-3.6-1.4-4.1-1.8c-0.1-0.1-0.2-0.3-0.6-1.3c-0.6-1.6-0.9-2.6-0.9-3.1
	c-0.8-0.3-3.5-1.8-4-2.3c-0.1-0.1-0.2-0.2-0.3-0.6c0,0-0.8-2.9-0.8-3.9c-0.8-0.4-3.3-2.2-3.7-2.6c-0.1-0.1-0.1-0.2-0.1-0.3
	c0,0-0.6-3.2-0.5-4.3c-0.8-0.5-3.2-2.6-3.5-3c0-0.1-0.1-0.1-0.1-0.2c0,0-0.3-3.4-0.1-4.4c-0.8-0.5-3-3-3.2-3.4c0,0,0-0.1,0-0.1
	c0,0,0-3.4,0.4-4.5c-0.8-0.6-2.8-3.4-2.8-3.6c0,0,0-0.1,0-0.1c0,0,0,0,0,0l0,0l0,0c0.1-0.6,0.4-3.5,0.8-4.3
	c-0.7-0.7-2.2-3.4-2.4-3.8c0,0,0,0,0,0c0,0,0,0,0,0l0,0c0,0,0,0,0-0.1c0,0,0,0,0,0l0-0.1l0,0c0.1-0.6,0.7-3.4,1.2-4.3
	c-0.7-0.8-2.1-4-2.1-4.1l0-0.2l0,0c0.2-0.9,1.4-3.7,1.6-4.1c0,0,0,0,0-0.1c-0.6-0.9-1.6-4.2-1.6-4.2v-0.2l0.1,0
	c0.3-0.6,1.4-3.2,2-3.9c-0.5-0.8-1.1-3.6-1.2-4.2l0,0l0-0.1c0,0,0-0.1,0-0.1c0,0,0-0.1,0-0.1v0c0,0,0,0,0,0c0,0,0,0,0,0
	c0.2-0.5,1.7-3.2,2.4-3.8c-0.4-0.9-0.7-3.7-0.8-4.3h0v0c0-0.1,0-0.1,0-0.1c0,0,0-0.1,0-0.1c0-0.3,2.1-3,2.8-3.6
	c-0.3-1-0.4-4.4-0.4-4.5c0-0.1,0-0.1,0-0.1c0.1-0.3,2.4-2.8,3.2-3.3c-0.2-1.1,0.1-4.4,0.1-4.4c0,0,0-0.1,0.1-0.2
	c0.2-0.4,2.7-2.5,3.5-3c-0.1-1,0.5-4.2,0.5-4.3c0-0.1,0.1-0.2,0.1-0.3c0.4-0.5,2.9-2.3,3.7-2.6c0-1,0.8-3.9,0.8-3.9
	c0.1-0.3,0.2-0.5,0.3-0.6c0.5-0.5,3.2-2,3.9-2.3c0-0.4,0.2-1.2,0.9-3.1c0.4-1,0.5-1.2,0.6-1.3c0.6-0.5,3.4-1.6,4.1-1.8
	c0-0.2,0.2-0.6,0.4-1.2c0.8-2,1.2-2.7,1.4-2.9v0c0.2-0.4,3.6-1.4,4.4-1.5c0-0.1,0.1-0.2,0.2-0.4c0.3-0.5,0.7-1.4,1.2-2.2
	c0.7-1.2,0.9-1.4,1-1.4c0.7-0.4,3.8-1,4.4-1c0,0,0-0.1,0.1-0.1c0.1-0.3,1.9-3.1,2.6-3.6c0,0,0,0,0.1,0c0,0,0,0,0,0
	c0.7-0.3,4-0.6,4.4-0.6c0,0,0.1,0,0.1,0c0,0,0,0,0,0c0.2-0.3,2.6-3.4,3.1-3.5c0.4-0.1,1.4-0.2,3.1-0.2c0.8,0,1.2,0,1.4,0.1
	c0.4-0.4,2.7-2.8,3.3-3.1c0.1-0.1,0.2-0.1,0.6-0.1c0,0,3,0.1,4,0.4c0.4-0.5,3.1-2.7,3.6-2.8c0.1,0,0.1,0,0.2,0c0,0,3.3,0.4,4.3,0.8
	c0.5-0.5,3.4-2.4,3.9-2.4c0,0,0.1,0,0.1,0c0,0,0,0,0.1,0l0,0c0.6,0.1,3.4,0.7,4.2,1.2c0.6-0.5,3.7-2,4.1-2h0c0,0,0,0,0,0
	c0,0,0,0,0,0h0.1l0,0c0.6,0.2,3.3,1.1,4.1,1.6c0.9-0.6,4.2-1.6,4.2-1.6l0.1,0c0.5,0.1,3.5,1.6,4.1,2c1-0.5,4.3-1.2,4.3-1.2
	c0,0,0.1,0,0.1,0c0.5,0,3.4,2,3.9,2.4c1-0.4,4.3-0.8,4.3-0.8c0.1,0,0.1,0,0.2,0c0.5,0.2,3.2,2.3,3.6,2.8c1-0.3,4-0.4,4-0.4
	c0.4,0,0.5,0,0.6,0.1c0.6,0.3,3,2.7,3.3,3.1c0.2,0,0.6-0.1,1.4-0.1c1.7,0,2.7,0.1,3.1,0.2c0.5,0,2.9,3.1,3.1,3.5c0,0,0,0,0,0
	c0,0,0.1,0,0.1,0c0.4,0,3.6,0.3,4.4,0.6c0,0,0,0,0,0c0,0,0,0,0.1,0c0.6,0.5,2.4,3.3,2.6,3.6c0,0,0,0.1,0.1,0.1c0.6,0,3.7,0.6,4.4,1
	c0.1,0,0.3,0.2,1,1.4c0.5,0.8,0.9,1.6,1.2,2.2c0.1,0.2,0.2,0.3,0.2,0.4c0.7,0.2,4.2,1.2,4.4,1.5v0c0.2,0.2,0.6,0.9,1.4,2.9
	c0.3,0.7,0.4,1,0.4,1.2c0.7,0.2,3.6,1.4,4.1,1.8c0.1,0.1,0.2,0.3,0.6,1.3c0.7,1.9,0.9,2.7,0.9,3.1c0.8,0.3,3.5,1.8,3.9,2.3
	c0.1,0.1,0.2,0.2,0.3,0.6c0,0,0.8,2.9,0.8,3.9c0.8,0.4,3.3,2.2,3.7,2.6c0.1,0.1,0.1,0.2,0.1,0.3c0,0,0.6,3.2,0.5,4.3
	c0.8,0.5,3.2,2.6,3.5,3c0,0.1,0.1,0.1,0.1,0.2c0,0,0.3,3.3,0.1,4.4c0.8,0.5,3,3,3.2,3.3c0,0,0,0.1,0,0.1c0,0,0,3.4-0.4,4.5
	c0.8,0.6,2.8,3.4,2.8,3.6c0,0,0,0.1,0,0.1c0,0,0,0,0,0l0,0l0,0c-0.1,0.6-0.4,3.5-0.8,4.3c0.7,0.7,2.2,3.4,2.4,3.8c0,0,0,0,0,0
	c0,0,0,0,0,0l0,0c0,0,0,0,0,0.1c0,0,0,0,0,0l0,0.1l0,0c-0.1,0.6-0.7,3.4-1.2,4.2c0.7,0.8,2.1,4,2.1,4.1l0,0.2l0,0
	c-0.2,1-1.4,3.8-1.6,4.1c0,0,0,0,0,0.1C384.5,306.8,385.5,310.1,385.5,310.1z"/>
<g>
	<path fill="#00ADEE" d="M277.4,363.3c0,0-0.1,0-0.1,0c-0.1,0-0.1,0-0.1,0.1c0,0.1,0,0.1-0.1,0.2c0,0.2-0.1,0.3-0.1,0.3
		c0,0,0,0,0,0.1c0,0.1-0.1,0.2-0.1,0.2c0,0.1,0,0.2-0.1,0.3c-0.1,0.2-0.1,0.3-0.2,0.5c0,0.1,0,0.1,0,0.1c0,0,0,0,0.1,0
		c0.2,0.1,0.4-0.1,0.5-0.4c0.1-0.2,0.1-0.3,0.2-0.5c0.1-0.5,0.2-0.8,0.1-0.8C277.5,363.4,277.5,363.3,277.4,363.3z"/>
	<path fill="#00ADEE" d="M292.6,366.4C292.6,366.4,292.6,366.4,292.6,366.4c-0.1,0-0.2,0.1-0.3,0.3c0,0.3-0.1,0.7-0.1,1
		c0,0.1,0,0.2,0,0.3c0,0.1,0,0.2,0,0.3c-0.1,1.2-0.2,2.3-0.3,3.5c0,0.5,0.1,0.7,0.2,0.7c0,0,0,0,0,0c0.2,0,0.3-0.1,0.3-0.3
		c0.1-1.7,0.3-3.3,0.4-5c0-0.2,0-0.3,0-0.3c0-0.1,0-0.2,0-0.3C292.8,366.5,292.7,366.4,292.6,366.4z"/>
	<path fill="#00ADEE" d="M269.9,360c-0.1-0.1-0.2,0-0.3,0.2c-0.2,0.3-0.3,0.6-0.5,0.9c-0.1,0.1-0.1,0.2-0.1,0.2
		c0,0.1-0.1,0.2-0.1,0.3c-0.5,1-1,2.1-1.5,3.1c-0.2,0.4-0.2,0.7-0.1,0.8c0,0,0,0,0,0c0.2,0,0.3,0,0.4-0.2c0.7-1.5,1.5-3,2.2-4.5
		c0-0.2,0.1-0.2,0.1-0.3c0-0.1,0.1-0.2,0.1-0.2C270.1,360.2,270,360.1,269.9,360C269.9,360,269.9,360,269.9,360z"/>
	<path fill="#00ADEE" d="M335.7,357.7c-0.1-0.1-0.2-0.2-0.2-0.2c0,0,0,0,0,0c0,0,0,0.1,0,0.1c0,0,0,0.1,0.1,0.1
		c0.3,0.7,0.6,1.1,0.7,1.3c0,0,0,0.1,0.1,0.2c0,0,0,0,0,0.1c0.1,0.1,0.1,0.1,0.2,0c0,0,0.1,0,0.1-0.1c0.1-0.1,0.1-0.2,0.1-0.2
		C336.4,358.5,336,358.1,335.7,357.7z"/>
	<g>
		<path fill="#00ADEE" d="M378.1,305.8c0.1-0.2,1.3-2.9,1.5-3.8l0,0l0-0.2c0,0-1.3-3-1.9-3.8c0.4-0.8,1-3.4,1.1-4l0,0l0-0.1
			c0,0,0,0,0,0c0,0,0,0,0-0.1l0,0c0,0,0,0,0,0c0,0,0,0,0,0c-0.2-0.4-1.6-2.9-2.3-3.6c0.4-0.8,0.7-3.5,0.7-4.1l0,0l0,0c0,0,0,0,0,0
			c0,0,0-0.1,0-0.1c0-0.3-1.9-2.8-2.6-3.4c0.3-1,0.3-4.1,0.3-4.1c0-0.1,0-0.1,0-0.1c-0.1-0.3-2.2-2.6-2.9-3.1c0.2-1-0.1-4.1-0.1-4.1
			c0,0,0-0.1-0.1-0.2c-0.2-0.4-2.5-2.4-3.2-2.8c0.1-1-0.4-3.9-0.4-4c0-0.1-0.1-0.2-0.1-0.3c-0.4-0.5-2.7-2.1-3.5-2.5
			c0-0.9-0.7-3.6-0.8-3.7c-0.1-0.3-0.1-0.5-0.2-0.5c-0.4-0.5-3-1.8-3.7-2.1c0-0.4-0.2-1.1-0.8-2.9c-0.3-0.9-0.5-1.2-0.6-1.2
			c-0.5-0.4-3.1-1.5-3.8-1.7c0-0.2-0.2-0.5-0.4-1.1c-0.8-1.9-1.1-2.5-1.3-2.7v0c-0.2-0.3-3.4-1.3-4.1-1.4c0-0.1-0.1-0.2-0.2-0.4
			c-0.2-0.5-0.7-1.3-1.1-2c-0.7-1.2-0.8-1.3-1-1.3c-0.6-0.4-3.6-0.9-4.1-0.9c0,0,0-0.1-0.1-0.1c-0.1-0.2-1.8-2.9-2.4-3.3
			c0,0,0,0-0.1,0c0,0,0,0,0,0c-0.7-0.3-3.7-0.6-4.1-0.6c0,0-0.1,0-0.1,0c0,0,0,0,0,0c-0.2-0.3-2.5-3.2-2.9-3.2
			c-0.4-0.1-1.3-0.2-2.9-0.2c-0.7,0-1.1,0-1.3,0.1c-0.3-0.4-2.5-2.6-3.1-2.9c-0.1-0.1-0.2-0.1-0.6-0.1c0,0-2.8,0.1-3.7,0.3
			c-0.4-0.5-2.9-2.5-3.4-2.6c-0.1,0-0.1,0-0.2,0c0,0-3.1,0.3-4,0.7c-0.5-0.5-3.2-2.2-3.6-2.3c0,0-0.1,0-0.1,0c0,0-3.1,0.6-4,1.1
			c-0.6-0.4-3.3-1.8-3.8-1.9l-0.1,0c0,0-3.1,1-4,1.5c-0.7-0.5-3.2-1.3-3.8-1.5l0,0h-0.1c0,0,0,0,0,0c0,0,0,0,0,0h0
			c-0.4,0-3.3,1.5-3.8,1.9c-0.8-0.4-3.4-1-3.9-1.1l0,0c0,0-0.1,0-0.1,0c0,0-0.1,0-0.1,0c-0.4,0-3.2,1.8-3.7,2.3
			c-0.9-0.4-4-0.7-4-0.7c-0.1,0-0.1,0-0.2,0c-0.5,0.1-3,2.2-3.4,2.6c-0.9-0.3-3.7-0.3-3.7-0.3c-0.3,0-0.5,0-0.6,0.1
			c-0.6,0.3-2.8,2.5-3.1,2.9c-0.2,0-0.6-0.1-1.3-0.1c-1.6,0-2.5,0.1-2.9,0.2c-0.4,0-2.7,2.9-2.9,3.2c0,0,0,0,0,0c0,0-0.1,0-0.1,0
			c-0.4,0-3.4,0.3-4.1,0.6c0,0,0,0,0,0c0,0,0,0-0.1,0c-0.6,0.5-2.3,3.1-2.4,3.3c0,0,0,0.1-0.1,0.1c-0.5,0-3.4,0.6-4.1,0.9
			c-0.1,0-0.3,0.2-1,1.3c-0.4,0.7-0.9,1.5-1.1,2c-0.1,0.2-0.1,0.3-0.2,0.4c-0.7,0.1-3.9,1.1-4.1,1.4v0c-0.2,0.2-0.6,0.8-1.3,2.7
			c-0.3,0.6-0.4,1-0.4,1.2c-0.7,0.2-3.3,1.3-3.8,1.7c-0.1,0-0.2,0.3-0.6,1.2c-0.6,1.8-0.8,2.5-0.8,2.9c-0.7,0.3-3.2,1.6-3.7,2.1
			c-0.1,0.1-0.2,0.2-0.2,0.5c0,0-0.8,2.7-0.8,3.7c-0.7,0.3-3.1,2-3.5,2.5c-0.1,0.1-0.1,0.2-0.1,0.3c0,0-0.6,3-0.4,4
			c-0.7,0.4-3,2.4-3.2,2.8c0,0.1-0.1,0.1-0.1,0.2c0,0-0.3,3.1-0.1,4.1c-0.7,0.5-2.8,2.8-2.9,3.1c0,0,0,0.1,0,0.1c0,0,0,3.2,0.3,4.1
			c-0.7,0.6-2.6,3.1-2.6,3.4c0,0,0,0.1,0,0.1c0,0,0,0,0,0.1l0,0h0c0.1,0.6,0.4,3.2,0.7,4c-0.6,0.6-2,3.1-2.2,3.6c0,0,0,0,0,0
			c0,0,0,0,0,0v0c0,0,0,0,0,0.1c0,0,0,0,0,0.1l0,0.1h0c0.1,0.6,0.7,3.2,1.1,3.9c-0.6,0.7-1.6,3.1-1.9,3.7l-0.1,0v0.2
			c0,0,0.9,3.1,1.5,3.9c0,0,0,0,0,0.1c-0.2,0.3-1.3,2.9-1.5,3.8l0,0l0,0.2c0,0,1.3,3,1.9,3.8c-0.4,0.8-1,3.4-1.1,4l0,0l0,0.1
			c0,0,0,0,0,0c0,0,0,0,0,0.1v0c0,0,0,0,0,0c0,0,0,0,0,0c0.2,0.4,1.6,2.9,2.3,3.6c-0.4,0.8-0.7,3.5-0.7,4.1l0,0l0,0c0,0,0,0,0,0
			c0,0,0,0.1,0,0.1c0,0.3,1.9,2.8,2.6,3.4c-0.3,0.9-0.3,4.1-0.3,4.2c0,0.1,0,0.1,0,0.1c0.1,0.3,2.2,2.6,2.9,3.1
			c-0.2,1,0.1,4.1,0.1,4.1c0,0,0,0.1,0.1,0.2c0.2,0.4,2.5,2.4,3.2,2.8c-0.1,1,0.4,3.9,0.4,4c0,0.1,0.1,0.2,0.1,0.3
			c0.4,0.4,2.7,2.1,3.5,2.5c0,0.9,0.7,3.7,0.8,3.7c0.1,0.3,0.1,0.5,0.2,0.5c0.4,0.5,3,1.8,3.7,2.1c0,0.5,0.3,1.4,0.8,2.9
			c0.3,0.9,0.5,1.1,0.6,1.2c0.5,0.4,3.1,1.5,3.8,1.7c0,0.2,0.2,0.6,0.5,1.3c0.7,1.8,1.1,2.3,1.3,2.5c0.3,0.4,3.4,1.3,4.1,1.4
			c0,0.1,0.1,0.2,0.2,0.4c0.2,0.5,0.7,1.3,1.1,2c0.7,1.2,0.8,1.3,1,1.3c0.6,0.4,3.6,0.9,4.1,0.9c0,0,0,0.1,0.1,0.1
			c0.1,0.2,1.8,2.9,2.4,3.3c0,0,0,0,0.1,0c0,0,0,0,0,0c0.7,0.3,3.7,0.6,4.1,0.6c0,0,0.1,0,0.1,0c0,0,0,0,0,0
			c0.2,0.3,2.5,3.2,2.9,3.2c0.4,0.1,1.3,0.2,2.9,0.2c0.7,0,1.1,0,1.3-0.1c0.3,0.4,2.5,2.6,3.1,2.9c0.1,0.1,0.2,0.1,0.6,0.1
			c0,0,2.8-0.1,3.7-0.3c0.4,0.4,2.9,2.5,3.4,2.6c0.1,0,0.1,0,0.2,0c0,0,3.1-0.3,4-0.7c0.5,0.5,3.2,2.2,3.6,2.3c0,0,0.1,0,0.1,0
			c0,0,3.1-0.6,4-1.1c0.6,0.4,3.3,1.8,3.8,1.9l0,0h0.1c0,0,3.1-0.9,3.9-1.5c0.2,0.1,0.7,0.4,1.8,0.8c0.3,0.1,1.6,0.6,2.1,0.7l0.1,0
			c0,0,0.1,0,0.1,0h0c0.4,0,3.3-1.5,3.8-1.9c0.8,0.4,3.4,1,3.9,1.1l0,0c0,0,0.1,0,0.1,0c0,0,0.1,0,0.1,0c0.4,0,3.1-1.8,3.6-2.3
			c0.9,0.4,4,0.7,4,0.7c0.1,0,0.1,0,0.2,0c0.5-0.2,3-2.1,3.4-2.6c0.9,0.3,3.7,0.3,3.7,0.3c0.4,0,0.5,0,0.6-0.1
			c0.6-0.3,2.8-2.5,3.1-2.9c0.2,0,0.6,0.1,1.3,0.1c1.6,0,2.5-0.1,2.9-0.2c0.4,0,2.7-2.9,2.9-3.2c0,0,0,0,0,0c0,0,0.1,0,0.1,0
			c0.4,0,3.4-0.3,4.1-0.6c0,0,0,0,0,0c0,0,0.1,0,0.1-0.1c0.6-0.5,2.3-3.1,2.4-3.3c0,0,0-0.1,0.1-0.1c0.5,0,3.4-0.6,4.1-0.9
			c0.1,0,0.3-0.2,1-1.3c0.4-0.7,0.9-1.5,1.1-2c0.1-0.2,0.1-0.3,0.2-0.4c0.7-0.1,3.9-1.1,4.1-1.4c0.2-0.2,0.5-0.8,1.3-2.6
			c0.3-0.7,0.4-1.1,0.5-1.3c0.7-0.2,3.3-1.3,3.8-1.7c0.1,0,0.2-0.3,0.6-1.2c0.2-0.6,0.8-2.2,0.8-2.9c0.7-0.3,3.2-1.6,3.7-2.1
			c0.1-0.1,0.2-0.2,0.2-0.5c0.2-0.5,0.4-1.4,0.5-2.3c0.2-0.8,0.2-1.2,0.2-1.4c0.8-0.4,3.1-2,3.4-2.4c0.1-0.1,0.1-0.2,0.1-0.3
			c0,0,0.6-3,0.4-4c0.7-0.4,3-2.4,3.2-2.8c0-0.1,0.1-0.1,0.1-0.2c0,0,0.3-3.1,0.1-4.1c0.7-0.5,2.8-2.8,2.9-3.1c0,0,0-0.1,0-0.1
			c0,0,0-3.2-0.3-4.1c0.7-0.6,2.6-3.1,2.6-3.4c0,0,0-0.1,0-0.1c0,0,0,0,0-0.1l0,0h0c-0.1-0.6-0.4-3.2-0.7-4c0.6-0.6,2-3.1,2.2-3.6
			c0,0,0,0,0,0c0,0,0,0,0,0v0c0,0,0,0,0-0.1c0,0,0,0,0,0v-0.1h0c-0.1-0.6-0.7-3.2-1.1-3.9c0.6-0.7,1.6-3.1,1.9-3.7l0.1,0v-0.2
			C379.6,309.8,378.7,306.8,378.1,305.8C378.1,305.9,378.1,305.9,378.1,305.8z M236.4,309.2l1.1,4.9l-4.3-2.5l-4.3,2.5l1.1-4.9
			l-3.7-3.3l5-0.5l2-4.6l2,4.6l5,0.5L236.4,309.2z M316.5,260c0.3-0.4,0.7-0.7,1.2-0.7h10c0.2,0,0.5,0.1,0.7,0.3
			c0.2,0.2,0.4,0.4,0.5,0.7l8,20l7.6-20c0.1-0.2,0.3-0.5,0.5-0.6c0.2-0.2,0.5-0.3,0.7-0.3h9.6c0.6,0,1,0.2,1.2,0.7
			c0.2,0.5,0.3,1,0,1.6l-16,37.9c-0.1,0.2-0.3,0.4-0.5,0.6c-0.2,0.2-0.5,0.3-0.7,0.3h-5.8c-0.2,0-0.4-0.1-0.7-0.3
			c-0.3-0.2-0.4-0.4-0.5-0.6l-15.9-37.9C316.2,261,316.2,260.5,316.5,260z M294.5,237.7l2-4.6l2,4.6l5,0.5l-3.7,3.3l1.1,4.9
			l-4.3-2.5l-4.3,2.5l1.1-4.9l-3.7-3.3L294.5,237.7z M284.9,261c0-0.4,0.1-0.8,0.4-1.1c0.3-0.3,0.6-0.5,0.9-0.5h25.6
			c0.4,0,0.7,0.2,0.9,0.5c0.3,0.3,0.4,0.7,0.4,1.1v7.5c0,0.4-0.1,0.8-0.4,1.1c-0.3,0.3-0.6,0.5-0.9,0.5H297v4.1h12.6
			c0.4,0,0.7,0.2,0.9,0.5c0.3,0.3,0.4,0.7,0.4,1.1v7.4c0,0.4-0.1,0.8-0.4,1.1c-0.3,0.3-0.6,0.5-0.9,0.5l-12.6,0.1v4.3h16
			c0.4,0,0.7,0.2,0.9,0.5c0.2,0.3,0.4,0.7,0.4,1.1v7.5c0,0.4-0.1,0.8-0.4,1.1c-0.3,0.3-0.6,0.5-0.9,0.5h-26.8
			c-0.4,0-0.7-0.2-0.9-0.5c-0.3-0.3-0.4-0.7-0.4-1.1V261z M243.1,299.3c-0.3-0.3-0.4-0.7-0.4-1.1V261c0-0.4,0.1-0.8,0.4-1.1
			c0.3-0.3,0.6-0.5,1-0.5h19.2c5.2,0,9.5,1.9,12.8,5.6c3.3,3.7,4.9,8.6,4.9,14.6c0,5.9-1.6,10.7-4.9,14.5c-3.3,3.8-7.4,5.7-12.6,5.7
			h-19.3C243.7,299.8,243.4,299.6,243.1,299.3z M264.9,356.1c-0.4,0.6-0.7,1.2-1.1,1.7c-0.1,0.2-0.1,0.3-0.1,0.3
			c-0.9,1.5-1.9,3-2.8,4.5c-0.1,0.2-0.1,0.3-0.1,0.3c0,0,0,0,0,0.1c-0.1,0.1-0.2,0.1-0.3,0c-0.5-0.3-1-0.6-1.5-1
			c-0.1-0.1-0.2-0.2-0.1-0.4c0.3-1.2,0.7-2.3,1-3.5c0-0.1,0-0.2,0-0.2c0,0,0,0,0,0c-0.1,0.1-0.1,0.1-0.2,0.2
			c-0.4,0.5-0.7,1.1-1.1,1.6c0,0-0.1,0.2-0.2,0.3c-0.1,0.1-0.1,0.2-0.2,0.2c-0.1,0.1-0.2,0.3-0.2,0.4c-0.1,0.2-0.2,0.3-0.3,0.5
			c0,0.1-0.1,0.1-0.2,0c-0.4-0.3-0.9-0.6-1.3-0.9c-0.1-0.1-0.1-0.1-0.1-0.2c1.6-2.2,3.3-4.5,4.9-6.7c0.1-0.1,0.1-0.1,0.2,0
			c0.4,0.3,0.9,0.6,1.3,0.9c0.1,0.1,0.1,0.2,0,0.4c-0.1,0.5-0.3,1-0.5,1.6c-0.1,0.3-0.1,0.5-0.2,0.8c-0.1,0.4-0.2,0.8-0.3,1.2
			c0,0,0,0,0,0.1c0.1-0.1,0.2-0.2,0.3-0.5c0.3-0.4,0.6-0.9,0.9-1.3c0.1-0.3,0.2-0.4,0.2-0.5c0.2-0.2,0.3-0.5,0.5-0.7
			c0.1-0.2,0.2-0.2,0.3-0.1c0.4,0.2,0.7,0.5,1.1,0.7C265,355.9,265,356,264.9,356.1z M271.6,361.3c-0.8,1.7-1.6,3.5-2.3,5.2
			c-0.1,0.2-0.3,0.4-0.6,0.6c-0.3,0.1-0.7,0.2-1.2,0.1c-0.2,0-0.4-0.1-0.5-0.1c-0.2-0.1-0.4-0.2-0.6-0.3c-0.3-0.2-0.6-0.4-0.9-0.8
			c-0.3-0.5-0.3-1.1-0.1-1.5c0,0,0,0,0-0.1c0.9-1.7,1.8-3.4,2.7-5.1c0.2-0.4,0.6-0.6,1.1-0.7c0.4,0,0.7,0,0.9,0.2
			c0.3,0.1,0.5,0.3,0.8,0.4c0.3,0.1,0.5,0.4,0.7,0.8C271.9,360.3,271.9,360.7,271.6,361.3z M279.2,364.3c-0.1,0.3-0.2,0.5-0.2,0.8
			c-0.2,0.5-0.4,0.8-0.5,0.8c-0.1,0.1-0.2,0.2-0.4,0.3c0,0,0,0,0,0c0,0,0,0.1,0.1,0.3c0.1,0.3,0.2,0.6,0,1c0,0,0,0,0,0.1
			c-0.2,0.7-0.4,1.4-0.6,2.1c-0.1,0.5-0.2,0.8-0.1,0.9c0,0,0,0.1,0,0.1c0,0,0,0.1,0,0.1c0,0-0.1,0-0.2,0c-0.2-0.1-0.4-0.1-0.5-0.2
			c-0.2,0-0.4-0.1-0.4-0.1c-0.2-0.1-0.4-0.1-0.5-0.2c-0.2-0.1-0.2-0.3-0.2-0.6c0,0,0-0.1,0-0.1c0.2-0.6,0.4-1.3,0.7-1.9
			c0.2-0.6,0.2-1,0.2-1c0-0.1-0.1-0.2-0.3-0.3c-0.1,0-0.1,0-0.2,0.1c-0.4,1.1-0.8,2.2-1.2,3.4c0,0.1-0.1,0.1-0.2,0.1
			c-0.5-0.2-1-0.3-1.5-0.5c-0.1,0-0.1-0.1-0.1-0.2c0.1-0.2,0.1-0.4,0.2-0.6c0-0.2,0.1-0.3,0.1-0.3c0.6-1.6,1.2-3.2,1.8-4.8
			c0,0,0-0.1,0.1-0.4c0.2-0.6,0.4-1.2,0.6-1.7c0-0.1,0.1-0.1,0.2-0.1c0.6,0.2,1.3,0.5,1.9,0.7c0.4,0.1,0.7,0.4,1,0.7
			c0.2,0.3,0.3,0.7,0.2,1C279.3,364,279.2,364.1,279.2,364.3z M286.6,365.1c0,0.1-0.1,0.3-0.1,0.4c0,0.1-0.1,0.1-0.1,0.1
			c-0.3-0.1-0.6-0.1-1-0.2c-0.1,0-0.1,0-0.2,0c0,0.2,0,0.3-0.1,0.4c-0.1,0.5-0.2,0.9-0.3,1.4c0,0.1,0,0.1,0.2,0.2c0,0,0.1,0,0.1,0
			c0.2,0,0.3,0,0.4,0c0.2,0,0.3,0.1,0.5,0.1c0.1,0,0.1,0.1,0.1,0.1c-0.1,0.4-0.1,0.8-0.2,1.2c0,0-0.1,0.1-0.1,0
			c-0.3-0.1-0.7-0.1-1-0.2c-0.1,0-0.2,0-0.2,0.1c-0.2,1.1-0.5,2.2-0.7,3.4c0,0.2-0.1,0.3-0.2,0.3c-0.5-0.1-1.1-0.2-1.6-0.4
			c-0.1,0-0.1-0.1-0.1-0.2c0.6-2.7,1.3-5.4,1.9-8c0-0.1,0.1-0.1,0.2-0.1c0.9,0.2,1.8,0.4,2.7,0.6c0,0,0.1,0.1,0.1,0.3
			C286.7,364.8,286.6,364.9,286.6,365.1z M294.2,372.6c0,0.3-0.1,0.5-0.4,0.8c-0.3,0.3-0.6,0.4-1.1,0.5c-0.2,0-0.4,0-0.5,0
			c-0.2,0-0.4,0-0.6-0.1c-0.3,0-0.7-0.2-1.1-0.4c-0.5-0.4-0.7-0.9-0.6-1.4c0,0,0,0,0-0.1c0.2-1.9,0.5-3.8,0.7-5.7
			c0-0.4,0.3-0.8,0.8-1.1c0.4-0.1,0.6-0.2,0.9-0.2c0.3,0,0.6,0.1,0.9,0.1c0.3,0,0.6,0.2,0.9,0.5c0.4,0.3,0.5,0.8,0.5,1.4
			C294.4,368.8,294.3,370.7,294.2,372.6z M301.9,373.9c-1,0.1-2,0.1-3,0.1c-0.1,0-0.1,0-0.1-0.1c0-1.2,0-2.5,0-3.7c0,0,0-0.1,0-0.3
			c0-1.4,0-2.9,0-4.3c0,0,0,0,0.1-0.1c0.5,0,1,0,1.5,0c0.1,0,0.1,0,0.1,0.1c0,0.5,0,0.9,0,1.4c0,0.2,0,0.3,0,0.3c0,0,0,0,0,0
			c0,0.2,0,0.3,0,0.3c0,0,0,0,0,0c0,0.2,0,0.3,0,0.3c0,0.2,0,0.3,0,0.5c0,0.2,0,0.2,0,0.2c0,0.1,0,0.3,0,0.4c0,1.1,0.1,2.3,0.1,3.4
			c0,0.1,0.1,0.2,0.2,0.2c0.3,0,0.7,0,1,0c0.1,0,0.2,0,0.2,0.1c0,0.4,0,0.7,0.1,1.1C302.1,373.8,302,373.8,301.9,373.9z
			 M311.4,372.7c-0.6,0.1-1.1,0.2-1.7,0.3c-0.1,0-0.2-0.1-0.4-0.4c-0.3-0.5-0.6-1.2-1.1-2.1c-0.1-0.1-0.1-0.1-0.1-0.1
			c0,0,0,0.1,0,0.2c0,0.1,0.1,0.2,0.1,0.2c0.1,0.7,0.2,1.5,0.3,2.2c0,0.1,0,0.1-0.1,0.1c-0.5,0.1-1,0.1-1.6,0.2
			c-0.1,0-0.2,0-0.2-0.1c-0.1-1.1-0.3-2.2-0.4-3.4c0-0.2-0.1-0.3-0.1-0.3c-0.2-1.5-0.3-3-0.5-4.5c0-0.1,0-0.1,0.1-0.1
			c0.5-0.1,1-0.1,1.5-0.2c0.1,0,0.1,0.1,0.1,0.1c0,0.1,0,0.1,0,0.2c0,0.1,0,0.1,0,0.3c0,0.1,0.1,0.2,0.1,0.2c0,0,0,0,0,0.1
			c0,0.2,0,0.3,0,0.3c0,0,0,0,0,0.1c0,0,0,0.1,0.1,0.3c0,0.1,0,0.1,0,0.2c0,0,0,0.1,0,0.3c0,0.2,0.1,0.2,0.1,0.2
			c0.1-0.1,0.1-0.5,0.2-1.2c0.1-0.4,0.1-0.8,0.2-1.2c0,0,0.1,0,0.1,0c0.5-0.1,1-0.2,1.5-0.2c0.1,0,0.1,0,0.2,0.1c0,0,0,0,0,0
			c0,0-0.1,0.7-0.2,1.8c-0.1,1-0.2,1.7-0.3,2.1c1.4,2.6,2.2,3.9,2.2,4.1C311.5,372.7,311.5,372.7,311.4,372.7z M317.8,372.7
			c0,0-0.1,0.1-0.1,0.1c-0.3,0.1-0.6,0.2-0.8,0.2c-0.1,0-0.2-0.2-0.5-0.7c-0.2-0.2-0.3-0.3-0.3-0.5c-0.1-0.3-0.1-0.5-0.2-0.8
			c-0.1-0.2-0.1-0.3-0.1-0.3c0,0,0-0.1,0-0.1c0-0.1,0-0.2,0.2-0.2c0.4-0.1,0.9-0.2,1.3-0.4c0.1,0,0.2,0,0.2,0.1
			c0.1,0.4,0.2,0.8,0.3,1.2C317.8,371.4,317.8,371.8,317.8,372.7z M331.4,365.8c-0.4,0.2-0.7,0.4-1.1,0.5c0,0-0.1,0.1-0.3,0.2
			c0,0,0,0,0,0c-0.1,0.1-0.3,0-0.4-0.2c-0.8-1.1-1.5-2.1-2.3-3.2c-0.6-0.9-1.3-1.8-2-2.9c-0.2-0.2-0.3-0.3-0.3-0.4
			c0,0,0-0.1-0.1-0.1c0-0.1,0-0.2,0.2-0.3c0.1-0.1,0.3-0.1,0.4-0.2c0.1,0,0.2-0.1,0.3-0.2c0,0,0,0,0,0c0,0,0.1,0,0.1-0.1
			c0.1,0,0.2-0.1,0.3-0.1c0.1,0,0.2,0,0.3,0.2c0.7,1,1.3,1.9,2,2.9c0,0,0,0,0,0c0,0,0-0.1-0.1-0.4c0-0.1-0.1-0.1-0.1-0.2
			c-0.7-1.9-1.1-2.9-1.2-3c0,0,0-0.1,0.1-0.1c0.4-0.2,0.9-0.4,1.3-0.7c0.1,0,0.1,0,0.2,0c0,0,0,0,0,0.1c0.4,1.1,1.1,2.8,1.9,5.1
			c0.6,1.8,0.9,2.7,0.9,2.8C331.5,365.8,331.5,365.8,331.4,365.8z M340.2,360.4C340.2,360.4,340.2,360.5,340.2,360.4
			c-0.1,0.1-0.2,0.1-0.4,0.2c-0.1,0.1-0.2,0.2-0.3,0.3c-0.2,0.1-0.3,0.2-0.5,0.4c-0.1,0.1-0.3,0-0.5-0.3c0,0-0.2-0.2-0.6-0.6
			c-0.1-0.1-0.2-0.1-0.3-0.1c-0.1,0.1-0.3,0.2-0.4,0.3c-0.1,0.1-0.1,0.2,0,0.4c0,0,0.2,0.3,0.5,0.9c0,0,0.1,0.1,0.1,0.1
			c0,0.1,0,0.1-0.1,0.2c-0.5,0.3-0.9,0.6-1.4,0.9c-0.1,0-0.1,0-0.2-0.1c0-0.1-0.1-0.1-0.1-0.2c-0.9-1.9-1.8-3.8-2.7-5.7
			c-0.5-1-0.7-1.5-0.8-1.6c0-0.1,0-0.1,0.1-0.1c0.2-0.1,0.3-0.2,0.5-0.3c0,0,0.1-0.1,0.3-0.2c0.3-0.2,0.7-0.5,1-0.7
			c0.1-0.1,0.2,0,0.3,0.2c0.3,0.2,0.9,0.9,1.9,2c1.3,1.4,2.2,2.3,2.6,2.7c0.2,0.2,0.5,0.5,1.1,1.1
			C340.5,360.2,340.4,360.3,340.2,360.4z M358.1,327.6c-2.3,3.1-4.7,5.8-7.2,8.1c-2.2,2.1-4.6,4-7.2,5.6c-2.7,1.7-5.4,2.5-8.3,2.5
			c-2.2,0-3.6-0.6-4.4-1.8c-0.8-1.2-1.1-2.6-1-4.4c0.1-1.8,0.5-3.7,1.2-5.8c0.7-2.1,1.4-4,2.1-5.8c0.7-1.8,1.3-3.2,1.7-4.4
			c0.4-1.2,0.4-1.8-0.1-1.8c-0.5,0-1.2,0.5-2.2,1.6c-1,1.1-2.2,2.5-3.5,4.1c-1.3,1.7-2.7,3.5-4.1,5.5c-1.4,2-2.8,3.9-4.1,5.6
			c-1.3,1.8-2.3,3.3-3.2,4.5c-0.9,1.3-1.4,2-1.6,2.3v0.1h-8.3c1-2.3,2.1-5.2,3.3-8.9c1.2-3.7,2.4-7.4,3.5-11.2l-2.7,3.9c0,0,0,0,0,0
			c-0.1,0.1-0.2,0.2-0.2,0.3c-0.2,0.2-0.4,0.4-0.5,0.6c-0.2,0.2-0.4,0.4-0.6,0.6c0,0,0,0,0,0c-1,1-2.3,1.8-3.7,2.4
			c-2.2,0.9-4.4,1.1-6.6,0.7c-1.8,3.4-4,6.2-6.6,8.4c-2.6,2.2-5.6,3.3-8.8,3.3c-2.1,0-3.9-0.5-5.6-1.4c-1.6-0.9-2.9-2.2-3.9-3.9
			c-0.9-1.6-1.5-3.4-1.7-5.4c-1.4,1.5-3,3-4.8,4.5c-2.2,1.9-4.6,3.4-7.2,4.7c-2.6,1.3-5.1,1.8-7.5,1.5c-2.8-0.3-5-1.3-6.7-3.2
			c-1.7-1.8-2.8-4.1-3.5-6.7c-0.6-2.6-0.7-5.4-0.2-8.5c0.5-3,1.5-5.8,3-8.3c1.5-2.5,3.6-4.6,6.2-6.3c2.6-1.7,5.7-2.5,9.3-2.5
			c2.5,0,4.5,0.6,6,1.8c1.5,1.2,2.4,2.7,2.8,4.5c0.4,1.8,0.3,3.6-0.2,5.5c-0.5,1.9-1.6,3.5-3.1,4.9c-1.1,0.9-2.1,1.3-3.2,1.2
			c-1-0.1-1.9-0.5-2.6-1.1c-0.7-0.6-1.2-1.3-1.6-2c-0.3-0.8-0.3-1.3,0.2-1.7c1.4-1.3,2.4-2.7,3-4.3c0.5-1.6,0.3-2.8-0.7-3.6
			c-0.7-0.5-1.6-0.6-2.5-0.2c-0.9,0.4-1.8,1.1-2.7,2.2c-0.9,1.1-1.7,2.4-2.4,3.9c-0.8,1.5-1.3,3.1-1.6,4.6c-0.5,3.7-0.4,6.6,0.5,8.7
			c0.9,2.1,2.5,3.1,4.7,3c1.4,0,2.9-0.3,4.3-0.9c1.4-0.6,2.8-1.4,4.1-2.4c1.3-1,2.5-2.1,3.7-3.3c1.1-1.2,2.2-2.3,3.2-3.3
			c0.7-2.4,1.8-4.7,3.1-6.9c1.4-2.2,3-4.1,4.8-5.7c1.8-1.6,3.9-2.9,6.1-3.9c2.2-0.9,4.6-1.4,7.1-1.4c2.1,0,3.8,0.5,5.1,1.4
			c1.4,0.9,2.4,2.2,3,3.9c0.7,1.6,0.9,3.5,0.8,5.7c-0.1,2.2-0.7,4.5-1.6,6.9l-0.8,1.9c2.1,0.5,4-0.1,5.8-1.9c0,0,0,0,0,0
			c1.4-1.9,2.8-3.9,4.2-6c1.4-2.1,2.5-4,3.5-5.8c1.2-2.1,2.3-4.1,3.4-6.1h10.2c-0.4,1.4-1.2,3.9-2.4,7.5c-1.2,3.6-2.6,7.3-4.1,11.2
			c1.9-2.6,3.9-5.3,6-7.9c2.1-2.7,4.2-5,6.4-7c2.1-2,4.2-3.5,6.2-4.5c2-1,3.8-1.3,5.4-0.7c1.1,0.4,1.6,1.3,1.7,2.9
			c0,1.6-0.2,3.4-0.7,5.6c-0.5,2.1-1.2,4.4-2.1,6.7c-0.9,2.3-1.6,4.5-2.4,6.4c-0.7,1.9-1.2,3.6-1.6,4.9c-0.3,1.3-0.2,2,0.3,2
			c0.8,0,1.7-0.3,2.7-0.8c1-0.5,2-1.3,3-2.2c1-0.9,2.1-1.9,3.2-3c1.1-1.1,2.2-2.1,3.3-3.1c1.1-1,2-1.6,2.8-1.9
			c0.8-0.3,1.4-0.3,1.8,0c0.4,0.3,0.6,0.7,0.5,1.4C359.1,326.1,358.7,326.8,358.1,327.6z M366.6,309.2l1.1,4.9l-4.3-2.5l-4.3,2.5
			l1.1-4.9l-3.7-3.3l5-0.5l2-4.6l2,4.6l5,0.5L366.6,309.2z"/>
		<path fill="#00ADEE" d="M267.3,285.5c1.1-1.3,1.6-3.3,1.6-5.9c0-2.6-0.5-4.6-1.5-6c-1-1.3-2.5-2-4.5-2h-7.7v15.9h7.4
			C264.7,287.5,266.3,286.9,267.3,285.5z"/>
	</g>
	<path fill="#00ADEE" d="M296.9,313c-1.5-0.4-3.4,0.6-5.5,2.8c-2.1,2.2-4.1,5.6-5.9,10.2c-1.2,3.2-1.8,6-2,8.5
		c-0.2,2.5,0.4,3.9,1.6,4.4c1.8,0.6,3.6,0,5.5-1.8c1.8-1.8,3.5-4.1,4.9-6.9l-1.1-1.2c-0.8-1-1.3-2.2-1.4-3.5
		c-0.1-1.4,0.1-2.6,0.7-3.8c0.5-1.2,1.3-2.1,2.3-2.9c1-0.8,2.2-1.1,3.5-0.9C299.7,315.1,298.8,313.5,296.9,313z"/>
</g>
</svg>
