<?xml version="1.0" encoding="utf-8"?>
<!-- Generator: Adobe Illustrator 16.0.0, SVG Export Plug-In . SVG Version: 6.00 Build 0)  -->
<!DOCTYPE svg PUBLIC "-//W3C//DTD SVG 1.1//EN" "http://www.w3.org/Graphics/SVG/1.1/DTD/svg11.dtd">
<svg version="1.1" id="Layer_1" xmlns="http://www.w3.org/2000/svg" xmlns:xlink="http://www.w3.org/1999/xlink" x="0px" y="0px"
	 width="39.5px" height="32px" viewBox="0 0 39.5 32" enable-background="new 0 0 39.5 32" xml:space="preserve">
<g>
	<path d="M19.717,30.166c-6.439,0.139-11.785-5.505-11.934-12.602C7.636,10.468,12.734,4.604,19.174,4.468
		c6.439-0.139,11.78,5.505,11.932,12.603C31.257,24.166,26.156,30.03,19.717,30.166z"/>
	<path fill="#FFFFFF" d="M10.848,16.936c-0.123-5.853,4.548-10.829,10.904-12.203c-1.025-0.172-2.073-0.279-3.16-0.252
		c-7.9,0.165-14.19,5.804-14.051,12.592c0.146,6.788,6.667,12.155,14.566,11.987c1.088-0.022,2.137-0.168,3.146-0.387
		C15.848,27.567,10.974,22.79,10.848,16.936z"/>
	<path fill="#050505" d="M18.228,30.455c-8.587,0-15.438-5.867-15.598-13.354C2.554,13.407,4.139,9.91,7.102,7.257
		c2.9-2.6,5.277-5.285,29.785-3.896c1.196,1.716-1.052,2.146-1.052,2.146H20.356c-5.88,1.27-8.745,6.306-8.636,11.399
		c0.104,5.099,4.322,9.372,10.252,10.394l4.498-1.351l-4.442,4.085c-1.194,0.259-2.31,0.395-3.409,0.417L18.228,30.455z
		 M14.181,6.467c-1.963,0.573-3.75,1.544-5.222,2.862c-2.345,2.104-3.605,4.843-3.545,7.713c0.101,4.797,3.971,8.863,9.184,10.179
		c-3.432-2.448-5.572-6.134-5.66-10.255C8.85,12.837,10.842,9.059,14.181,6.467z"/>
</g>
</svg>
