<?xml version="1.0" encoding="utf-8"?>
<!-- Generator: Adobe Illustrator 16.0.0, SVG Export Plug-In . SVG Version: 6.00 Build 0)  -->
<!DOCTYPE svg PUBLIC "-//W3C//DTD SVG 1.1//EN" "http://www.w3.org/Graphics/SVG/1.1/DTD/svg11.dtd">
<svg version="1.1" id="Layer_1" xmlns="http://www.w3.org/2000/svg" xmlns:xlink="http://www.w3.org/1999/xlink" x="0px" y="0px"
	 width="525px" height="220px" viewBox="218.5 164.5 525 220" enable-background="new 218.5 164.5 525 220" xml:space="preserve">
<g>
	<path fill="#FFFFFF" stroke="#000000" stroke-width="2.5706" stroke-miterlimit="10" d="M271.586,318.479
		c0,0,128.531-185.086,234.783-133.673c84.443,40.859,18.7,116.354-9.733,145.627C489.291,337.996,386.164,424.745,271.586,318.479z
		"/>
	<linearGradient id="SVGID_1_" gradientUnits="userSpaceOnUse" x1="411.2905" y1="331.2021" x2="411.2905" y2="176.1841">
		<stop  offset="0.4949" style="stop-color:#00ADEF"/>
		<stop  offset="1" style="stop-color:#006CD4"/>
	</linearGradient>
	<path fill="url(#SVGID_1_)" stroke="#000000" stroke-width="2.5706" stroke-miterlimit="10" d="M416.078,320.083
		c19.086,0,37.616,0.666,55.311,1.919c9.328,0.661,16.857,4.768,24.933,7.315c2.54,0.802,4.079,2.156,7.854,1.783
		c3.775-0.374,101.058-99.959,2.515-146.24c-106.839-50.182-234.782,133.671-234.782,133.671c5.467,4.647,10.969,8.845,16.486,12.67
		C324.679,324.19,368.661,320.083,416.078,320.083z"/>
	
		<line fill="none" stroke="#000000" stroke-width="2.5706" stroke-miterlimit="10" x1="319.021" y1="261.401" x2="303.504" y2="279.821"/>
	<path fill="#00ADEF" d="M466.937,308.687c-0.22,16.029,34.544,20.058,33.301,20.499l1.516-4.498l-33.779-18.035L466.937,308.687z"
		/>
	<g>
		<path stroke="#000000" stroke-width="2.8842" stroke-miterlimit="10" d="M519.561,228.708c0.116-8.287,6.199-15.056,14.039-16.206
			c-0.839-0.143-1.689-0.246-2.566-0.258c-9.046-0.123-16.486,7.215-16.613,16.395c-0.125,9.173,7.109,16.715,16.156,16.837
			c0.877,0.013,1.732-0.067,2.571-0.188C525.345,243.925,519.448,236.995,519.561,228.708z"/>
		<path d="M733.813,186.882c-0.523-2.253-3.95-2.714-11.138-1.584l-0.352,0.116c-1.904,0.962-3.248,1.909-4.061,2.554
			c-0.419-0.241-0.995-0.422-1.773-0.482c-3.038-0.228-8.316,1.414-10.052,1.951l-0.362,0.11c-5.257,1.445-8.5,3.605-10.005,4.808
			c-0.467-0.313-1.13-0.552-2.069-0.624c-3.001-0.225-7.817,1.276-11.179,2.423c-0.266,0.091-0.45,0.153-0.437,0.159
			c-5.449,0.901-8.919,2.749-10.514,3.78c-0.599-0.423-1.477-0.679-2.629-0.765c-3.076-0.231-7.753,0.705-9.293,1.014l-0.355,0.071
			c-5.425,0.901-8.885,2.736-10.488,3.771c-0.606-0.446-1.5-0.718-2.678-0.805c-3.056-0.229-7.806,0.743-9.834,1.158
			c-0.417,0.086-0.709,0.149-0.818,0.161c-4.973,0.522-8.355,1.906-10.181,2.857c-0.169,0.07-0.354,0.163-0.56,0.274
			c-1.024-0.812-2.665-0.937-3.35-0.987c-3.02-0.228-7.177,0.349-8.539,0.54l-0.366,0.049c-5.472,0.574-9.035,2.201-10.701,3.14
			c-0.695-0.583-1.827-0.935-3.393-1.052c-3.007-0.224-7.165,0.369-9.162,0.655c-0.446,0.063-0.761,0.113-0.878,0.117
			c-5.752,0.212-9.501,1.713-11.113,2.514c-0.975-0.578-2.781-0.915-5.748-1.139c-2.868-0.216-5.871-0.222-6.268-0.208
			c-5.386,0.198-9.012,1.526-10.78,2.354c-0.651-0.802-1.831-1.371-3.528-1.702l-0.142-0.028l-0.14,0.008
			c-8.319,0.352-13.137,0.394-13.531,0.387c-9.691-0.131-17.683,7.541-17.813,17.101c-0.094,6.638,3.589,12.646,9.44,15.572
			c0.902,0.66,2.011,1.102,3.156,1.28c0.813,0.236,1.7,0.419,2.702,0.552l0.149,0.018l0.15-0.015
			c3.991-0.479,6.729-1.541,8.137-2.219c1.19,1.096,3.529,1.272,4.58,1.353c2.803,0.211,6.062-0.03,7.285-0.118l0.365-0.025
			c5.369-0.212,8.987-1.544,10.756-2.375c0.773,0.958,2.305,1.525,4.58,1.695c2.088,0.156,4.497-0.038,6.18-0.231
			c1.916-0.261,3.847-0.549,5.95-0.894c3.38-1.044,5.668-2.357,6.913-3.193c0.547,0.492,1.418,0.886,2.785,0.989
			c2.374,0.178,5.654-0.563,7.988-1.218l0.254-0.103c0.412-0.227,0.843-0.381,1.365-0.484c5.276-1.062,8.643-2.961,10.252-4.06
			c0.553,0.492,1.422,0.879,2.782,0.981c0.55,0.04,1.151,0.033,1.993-0.045c3.771-0.955,7.533-1.956,11.428-3.061
			c3.413-1.486,5.617-3.136,6.781-4.15c0.458,0.322,1.096,0.572,1.989,0.64c2.431,0.18,6.056-1.075,8.672-2.162l0.239-0.132
			c0.384-0.278,0.795-0.482,1.295-0.648c5.117-1.697,8.231-3.992,9.697-5.277c0.452,0.322,1.09,0.573,1.98,0.638
			c2.447,0.186,6.109-1.092,8.75-2.191l0.237-0.134c0.384-0.276,0.789-0.479,1.284-0.642c5.12-1.694,8.236-3.986,9.699-5.272
			c0.941,0.663,2.614,0.937,5.684,0.164c1.901-0.765,6.271-2.751,6.739-2.968c4.919-2.262,7.762-4.902,9.065-6.339
			c0.374,0.191,0.844,0.329,1.439,0.375c2.561,0.19,7.064-1.456,13.391-4.9l0.363-0.198c2.442-1.574,4.039-3.085,4.934-4.05
			c0.341,0.184,0.765,0.324,1.292,0.382l0.395,0.045l0.342-0.198C733.27,190.967,734.174,188.426,733.813,186.882z"/>
		<path fill="#FFFFFF" d="M722.238,194.674c-0.17-0.064-0.206-0.143-0.226-0.183l-0.853-1.857l-1.194,1.662
			c-0.018,0.022-1.58,2.172-5.071,4.426l-0.307,0.166c-8.048,4.381-11.131,4.689-12.08,4.617c-0.168-0.013-0.568-0.061-0.648-0.232
			l-0.871-1.89l-1.188,1.709c-0.024,0.038-2.586,3.652-8.967,6.589c-0.457,0.207-4.766,2.166-6.474,2.87
			c-2.079,0.508-3.565,0.462-3.729-0.027l-0.654-1.971l-1.368,1.564c-0.03,0.033-2.98,3.334-9.65,5.542
			c-0.671,0.221-1.266,0.509-1.81,0.889c-3.339,1.383-6.013,2.079-7.537,1.962c-0.548-0.04-0.86-0.173-0.932-0.392l-0.658-1.973
			l-1.368,1.567c-0.03,0.032-2.978,3.341-9.642,5.551c-0.681,0.224-1.279,0.517-1.826,0.896c-3.302,1.363-5.945,2.048-7.455,1.934
			c-0.547-0.041-0.859-0.171-0.935-0.392l-0.646-1.957l-1.372,1.547c-0.02,0.022-2.189,2.43-6.792,4.448
			c-3.722,1.04-7.466,2.039-11.014,2.955c-0.51,0.039-0.994,0.047-1.438,0.013c-0.321-0.022-1.383-0.138-1.471-0.575l-0.413-2.042
			l-1.552,1.392c-0.032,0.03-3.356,2.957-10.243,4.343c-0.703,0.143-1.331,0.359-1.916,0.667c-2.983,0.823-5.483,1.215-7.044,1.097
			c-0.411-0.03-1.384-0.148-1.472-0.581l-0.405-2.015l-1.548,1.359c-0.019,0.021-2.381,2.063-6.988,3.503
			c-1.917,0.301-3.833,0.59-5.709,0.844c-1.557,0.178-3.806,0.361-5.706,0.221c-2.031-0.154-2.952-0.633-2.97-1.04l-0.083-2.079
			l-1.752,1.127c-0.037,0.025-3.783,2.387-10.803,2.666l-0.443,0.031c-1.178,0.085-4.309,0.313-6.937,0.115
			c-2.564-0.19-3.088-0.63-3.105-0.641l-0.086-2.061l-1.75,1.123c-0.027,0.02-2.82,1.78-8.088,2.438
			c-0.82-0.116-1.551-0.267-2.345-0.49c-0.911-0.151-1.676-0.447-2.439-0.986c-5.202-2.619-8.38-7.799-8.303-13.521
			c0.114-8.247,7.023-14.866,15.401-14.751c0.4,0.006,5.237-0.037,13.527-0.384c0.774,0.161,1.301,0.365,1.637,0.565
			c-2.23,1.308-7.049,5.884-10.283,21.667c-0.828,4.047,6.412-18.852,14.305-20.999c1.661-0.451,2.465-0.76,2.753-0.976
			c1.665-0.429,3.763-0.799,6.308-0.894c0.187-0.008,3.127-0.01,5.996,0.204c1.517,0.115,2.547,0.256,3.253,0.386
			c-2.448,1.926-5.974,6.409-8.396,16.898c-0.652,2.824,4.144-10.087,10.35-15.311l1.11-0.711c0.04-0.025,3.791-2.375,10.813-2.63
			c0.139-0.005,0.54-0.059,1.129-0.141c1.916-0.277,5.897-0.843,8.647-0.638c0.73,0.055,1.186,0.156,1.492,0.246
			c-2.445,1.948-5.939,6.439-8.353,16.865c-0.775,3.363,6.169-15.638,14.029-17.329c2.724-0.585,3.194-0.884,2.682-1.027
			c1.337-0.356,2.89-0.666,4.668-0.851l0.443-0.061c1.301-0.179,5.268-0.73,8.035-0.523c0.661,0.05,1.074,0.131,1.379,0.207
			c-2.372,2.241-5.422,6.81-7.594,16.201c-0.659,2.852,4.24-10.342,10.534-15.463c1.082-0.665,4.475-2.495,10.195-3.093
			c0.129-0.012,0.502-0.085,1.048-0.195c1.932-0.397,6.451-1.321,9.179-1.115c0.552,0.04,0.898,0.112,1.108,0.178
			c-2.015,1.938-4.582,5.844-6.415,13.773c-0.664,2.871,5.558-12.375,11.984-14.808c0.731-0.276,1.185-0.487,1.465-0.655
			c1.507-0.562,3.339-1.11,5.592-1.483l0.434-0.085c3.911-0.783,6.822-1.113,8.65-0.974c1.049,0.078,1.374,0.278,1.382,0.25
			l0.063,0.387c-1.436,1.376-3.147,4.057-3.536,9.161c-0.106,1.403,1.516-4.89,4.903-8.436l0.506-0.418
			c0.03-0.028,3.454-2.834,10.387-3.985c0.063-0.01,0.353-0.095,0.814-0.253c4.894-1.669,8.336-2.442,10.236-2.302
			c0.685,0.052,0.946,0.221,0.961,0.271l0.141,0.508c-0.793,1.546-1.451,3.669-1.677,6.597c-0.086,1.145,0.98-2.827,3.211-6.256
			l0.329-0.336c0.03-0.033,3.143-3.181,9.915-5.046l0.443-0.133c5.436-1.687,7.984-1.936,9.165-1.845
			c0.502,0.038,0.696,0.118,0.726,0.106l0.536,1.938l1.446-1.452c0.011-0.015,1.391-1.38,4.21-2.834
			c2.915-0.446,5.157-0.616,6.679-0.501c1.161,0.085,1.515,0.287,1.582,0.299C731.452,187.662,730.873,189.569,722.238,194.674z"/>
	</g>
	<path d="M500.047,331.813l-0.411-1.157l-0.538,1.047c-0.264-0.101-0.979-0.251-2.018-0.484
		c-7.989-1.787-32.302-7.232-32.107-21.479l2.503,0.035c-0.111,8.104,10.032,14.497,30.15,19.002
		c2.729,0.612,3.219,0.723,3.284,1.755L500.047,331.813z"/>
</g>
</svg>
